<svg fill="none" height="170" viewBox="0 0 174 170" width="174" xmlns="http://www.w3.org/2000/svg">
    <path
        d="M162.564 0V96.7112L144.081 115.194C137.634 121.641 129.045 129.998 122.59 136.445C113.359 136.445 104.121 136.445 94.874 136.445C99.255 132.065 105.777 125.774 110.158 121.385L116.382 115.161L142.287 89.2471V33.8902C141.353 34.7664 140.799 35.2872 140.262 35.8162L60.9094 115.169L49.4446 126.626L41.3027 134.734C40.5339 135.503 39.509 136.528 38.5997 136.553C29.9536 136.685 21.3157 136.627 12 136.627C13.1076 135.396 13.7276 134.643 14.4136 133.957C29.4411 118.913 44.4768 103.875 59.5207 88.8421L147.296 1.0663C147.645 0.683845 148.02 0.32746 148.421 0H148.47H162.564Z"
        fill="#22A770" />
    <path d="M162.564 133.974H14.4136V136.661H162.564V133.974Z" fill="#22A770" />
    <path
        d="M32.4584 15.7797V98.4388L12.1904 118.707V15.7797L18.0014 6.66235L18.6461 5.68695L22.3162 0.124008L25.9945 5.68695L32.4584 15.7797Z"
        fill="#141A18" />
    <path d="M92.1213 38.7754L72.1343 58.7624H39.2112V38.7754H92.1213Z" fill="#22A770" />
    <path
        d="M130.921 0L111.654 19.2678H108.215H105C83.4503 19.3918 61.8763 19.3505 40.3105 19.3505H39.2442V15.7714L28.7878 0H130.921Z"
        fill="#22A770" />
    <path
        d="M32.6312 166V151.455H41.6511V153.344H34.8258V157.776H41.0048V159.658H34.8258V166H32.6312ZM46.5446 151.455V166H44.35V151.455H46.5446ZM49.7406 166V151.455H54.9252C56.0521 151.455 56.9873 151.649 57.7306 152.037C58.4788 152.425 59.0375 152.963 59.4068 153.649C59.7761 154.331 59.9608 155.119 59.9608 156.014C59.9608 156.904 59.7737 157.688 59.3997 158.365C59.0304 159.037 58.4717 159.561 57.7235 159.935C56.9802 160.309 56.045 160.496 54.9181 160.496H50.9906V158.607H54.7193C55.4295 158.607 56.0072 158.505 56.4522 158.301C56.902 158.098 57.2311 157.802 57.4395 157.413C57.6478 157.025 57.752 156.559 57.752 156.014C57.752 155.465 57.6454 154.989 57.4324 154.587C57.224 154.184 56.8949 153.876 56.4451 153.663C56.0001 153.446 55.4153 153.337 54.6909 153.337H51.9352V166H49.7406ZM56.921 159.438L60.5147 166H58.0147L54.492 159.438H56.921ZM70.5645 155.276C70.4887 154.603 70.1762 154.082 69.627 153.713C69.0777 153.339 68.3864 153.152 67.5531 153.152C66.9565 153.152 66.4404 153.247 66.0048 153.436C65.5692 153.621 65.2306 153.876 64.9892 154.203C64.7524 154.525 64.6341 154.892 64.6341 155.304C64.6341 155.65 64.7145 155.948 64.8755 156.199C65.0413 156.45 65.2567 156.661 65.5218 156.831C65.7917 156.997 66.0806 157.136 66.3883 157.25C66.6961 157.359 66.992 157.449 67.2761 157.52L68.6966 157.889C69.1606 158.003 69.6364 158.157 70.1241 158.351C70.6118 158.545 71.064 158.801 71.4806 159.118C71.8973 159.435 72.2335 159.828 72.4892 160.297C72.7496 160.766 72.8798 161.327 72.8798 161.98C72.8798 162.804 72.6667 163.536 72.2406 164.175C71.8192 164.814 71.206 165.318 70.4011 165.688C69.6009 166.057 68.6326 166.241 67.4963 166.241C66.4073 166.241 65.465 166.069 64.6696 165.723C63.8741 165.377 63.2515 164.887 62.8017 164.253C62.3519 163.614 62.1033 162.856 62.0559 161.98H64.2576C64.3002 162.506 64.4707 162.944 64.769 163.294C65.072 163.64 65.4579 163.898 65.9267 164.068C66.4002 164.234 66.9186 164.317 67.4821 164.317C68.1023 164.317 68.6539 164.22 69.1369 164.026C69.6246 163.827 70.0081 163.552 70.2875 163.202C70.5668 162.847 70.7065 162.432 70.7065 161.959C70.7065 161.528 70.5834 161.175 70.3372 160.901C70.0957 160.626 69.7666 160.399 69.35 160.219C68.938 160.039 68.4717 159.88 67.9508 159.743L66.2321 159.274C65.0673 158.957 64.144 158.491 63.4622 157.875C62.7851 157.259 62.4466 156.445 62.4466 155.432C62.4466 154.594 62.6738 153.862 63.1284 153.237C63.5829 152.612 64.1984 152.127 64.975 151.781C65.7515 151.431 66.6274 151.256 67.6028 151.256C68.5877 151.256 69.4565 151.429 70.2093 151.774C70.9669 152.12 71.5635 152.596 71.9991 153.202C72.4347 153.803 72.662 154.494 72.6809 155.276H70.5645ZM74.785 153.344V151.455H86.0421V153.344H81.5037V166H79.3162V153.344H74.785ZM101.756 155.276C101.68 154.603 101.368 154.082 100.818 153.713C100.269 153.339 99.5778 153.152 98.7445 153.152C98.1479 153.152 97.6318 153.247 97.1962 153.436C96.7606 153.621 96.4221 153.876 96.1806 154.203C95.9438 154.525 95.8255 154.892 95.8255 155.304C95.8255 155.65 95.906 155.948 96.0669 156.199C96.2327 156.45 96.4481 156.661 96.7132 156.831C96.9831 156.997 97.272 157.136 97.5797 157.25C97.8875 157.359 98.1834 157.449 98.4675 157.52L99.888 157.889C100.352 158.003 100.828 158.157 101.316 158.351C101.803 158.545 102.255 158.801 102.672 159.118C103.089 159.435 103.425 159.828 103.681 160.297C103.941 160.766 104.071 161.327 104.071 161.98C104.071 162.804 103.858 163.536 103.432 164.175C103.011 164.814 102.397 165.318 101.593 165.688C100.792 166.057 99.824 166.241 98.6877 166.241C97.5987 166.241 96.6564 166.069 95.861 165.723C95.0655 165.377 94.4429 164.887 93.9931 164.253C93.5433 163.614 93.2947 162.856 93.2473 161.98H95.449C95.4917 162.506 95.6621 162.944 95.9604 163.294C96.2634 163.64 96.6493 163.898 97.1181 164.068C97.5916 164.234 98.11 164.317 98.6735 164.317C99.2937 164.317 99.8453 164.22 100.328 164.026C100.816 163.827 101.2 163.552 101.479 163.202C101.758 162.847 101.898 162.432 101.898 161.959C101.898 161.528 101.775 161.175 101.529 160.901C101.287 160.626 100.958 160.399 100.541 160.219C100.129 160.039 99.6631 159.88 99.1422 159.743L97.4235 159.274C96.2587 158.957 95.3354 158.491 94.6536 157.875C93.9765 157.259 93.638 156.445 93.638 155.432C93.638 154.594 93.8652 153.862 94.3198 153.237C94.7743 152.612 95.3899 152.127 96.1664 151.781C96.9429 151.431 97.8188 151.256 98.7942 151.256C99.7791 151.256 100.648 151.429 101.401 151.774C102.158 152.12 102.755 152.596 103.191 153.202C103.626 153.803 103.853 154.494 103.872 155.276H101.756ZM105.976 153.344V151.455H117.233V153.344H112.695V166H110.508V153.344H105.976ZM119.721 166V151.455H128.84V153.344H121.916V157.776H128.365V159.658H121.916V164.111H128.926V166H119.721ZM131.772 166V151.455H136.956C138.088 151.455 139.026 151.661 139.769 152.072C140.512 152.484 141.069 153.048 141.438 153.763C141.807 154.473 141.992 155.273 141.992 156.163C141.992 157.058 141.805 157.863 141.431 158.578C141.062 159.288 140.503 159.852 139.755 160.268C139.011 160.68 138.076 160.886 136.949 160.886H133.384V159.026H136.751C137.465 159.026 138.046 158.902 138.491 158.656C138.936 158.405 139.262 158.064 139.471 157.634C139.679 157.203 139.783 156.713 139.783 156.163C139.783 155.614 139.679 155.126 139.471 154.7C139.262 154.274 138.933 153.94 138.483 153.699C138.038 153.457 137.451 153.337 136.722 153.337H133.966V166H131.772Z"
        fill="#141A18" />
</svg>
