<svg fill="none" height="28" viewBox="0 0 30 28" width="30" xmlns="http://www.w3.org/2000/svg">
    <path
        d="M30 0V19.2698L26.3173 22.9525C25.0327 24.2372 23.3214 25.9023 22.0351 27.1869C20.196 27.1869 18.3552 27.1869 16.5128 27.1869C17.3857 26.314 18.6852 25.0607 19.5581 24.1861L20.7982 22.9459L25.9599 17.7826V6.75268C25.7738 6.92726 25.6635 7.03102 25.5564 7.13643L9.74526 22.9476L7.46088 25.2303L5.83859 26.846C5.68542 26.9992 5.4812 27.2034 5.30003 27.2083C3.57727 27.2347 1.85616 27.2232 0 27.2232C0.220697 26.9778 0.344219 26.8279 0.48092 26.6912C3.47516 23.6937 6.47104 20.6972 9.46857 17.7019L26.958 0.212461C27.0274 0.136257 27.1022 0.0652468 27.182 0H27.1919H30Z"
        fill="#22A770" />
    <path d="M30 26.6945H0.480957V27.2297H30V26.6945Z" fill="#22A770" />
    <path
        d="M4.07652 3.14407V19.614L0.0380859 23.6524V3.14407L1.19592 1.32743L1.32439 1.13308L2.05565 0.0246582L2.78857 1.13308L4.07652 3.14407Z"
        fill="#141A18" />
    <path d="M15.9643 7.72615L11.9819 11.7086H5.42188V7.72615H15.9643Z" fill="#22A770" />
    <path
        d="M23.695 0L19.8558 3.83914H19.1707H18.53C14.2363 3.86385 9.93764 3.85561 5.64064 3.85561H5.42817V3.14246L3.34473 0H23.695Z"
        fill="#22A770" />
</svg>
