<svg fill="none" height="203" viewBox="0 0 305 203" width="305" xmlns="http://www.w3.org/2000/svg">
    <path d="M89.4193 49.6381L43.791 80.1105L88.7347 147.187L134.363 116.715L89.4193 49.6381Z"
        fill="#F5F5F5" />
    <path d="M110.784 113.542L110.268 116.741L87.584 113.477L88.1005 110.278L110.784 113.542Z"
        fill="#E0E0E0" />
    <path d="M99.3612 102.129L102.615 102.596L99.0074 124.894L95.75 124.423L99.3612 102.129Z"
        fill="#E0E0E0" />
    <path
        d="M78.4867 73.7905C78.5192 73.8352 73.9483 76.9492 68.2753 80.7331C62.6023 84.517 57.9785 87.5539 57.946 87.5052C57.9134 87.4565 62.4844 84.3465 68.1574 80.5585C73.8304 76.7705 78.4338 73.7418 78.4867 73.7905Z"
        fill="#E0E0E0" />
    <path
        d="M95.2495 69.5843C95.282 69.6331 87.6773 74.7649 78.2671 81.0498C68.8568 87.3347 61.1871 92.3894 61.1627 92.3447C61.1383 92.3 68.7267 87.1601 78.1491 80.8752C87.5716 74.5903 95.2169 69.5356 95.2495 69.5843Z"
        fill="#E0E0E0" />
    <path
        d="M98.6127 74.6025C98.6453 74.6512 91.0406 79.7871 81.6303 86.072C72.2201 92.3569 64.5503 97.4116 64.5259 97.3629C64.5015 97.3142 72.0981 92.1823 81.5124 85.8934C90.9267 79.6044 98.5802 74.5538 98.6127 74.6025Z"
        fill="#E0E0E0" />
    <path
        d="M101.976 79.6247C102.009 79.6735 94.4038 84.8094 84.9936 91.0902C75.5833 97.371 67.9136 102.434 67.9136 102.385C67.9136 102.336 75.4816 97.2005 84.896 90.9156C94.3103 84.6307 101.943 79.576 101.976 79.6247Z"
        fill="#E0E0E0" />
    <path
        d="M105.327 84.647C105.359 84.6957 97.7548 89.8275 88.3445 96.1124C78.9342 102.397 71.2645 107.452 71.2442 107.403C71.2238 107.355 78.8244 102.223 88.2469 95.9378C97.6694 89.6529 105.327 84.5982 105.327 84.647Z"
        fill="#E0E0E0" />
    <path d="M241.995 94.5837L203.675 120.176L241.419 176.508L279.74 150.916L241.995 94.5837Z"
        fill="#F5F5F5" />
    <path d="M259.942 148.263L259.506 150.951L240.454 148.21L240.893 145.523L259.942 148.263Z"
        fill="#E0E0E0" />
    <path d="M250.348 138.677L253.081 139.071L250.051 157.796L247.314 157.402L250.348 138.677Z"
        fill="#E0E0E0" />
    <path
        d="M232.8 114.898C232.833 114.947 228.998 117.565 224.232 120.744C219.466 123.923 215.578 126.465 215.546 126.428C215.513 126.392 219.352 123.765 224.114 120.582C228.876 117.399 232.768 114.829 232.8 114.898Z"
        fill="#E0E0E0" />
    <path
        d="M246.892 111.346C246.924 111.394 240.544 115.714 232.658 120.988C224.773 126.262 218.319 130.509 218.287 130.46C218.254 130.411 224.635 126.091 232.52 120.813C240.405 115.535 246.847 111.297 246.892 111.346Z"
        fill="#E0E0E0" />
    <path
        d="M249.718 115.56C249.75 115.609 243.37 119.928 235.485 125.206C227.599 130.484 221.145 134.723 221.113 134.674C221.08 134.626 227.441 130.326 235.346 125.048C243.252 119.77 249.693 115.515 249.718 115.56Z"
        fill="#E0E0E0" />
    <path
        d="M252.54 119.77C252.573 119.819 246.188 124.139 238.307 129.417C230.426 134.695 223.968 138.933 223.935 138.884C223.903 138.836 230.283 134.52 238.169 129.238C246.054 123.956 252.512 119.729 252.54 119.77Z"
        fill="#E0E0E0" />
    <path
        d="M255.387 123.997C255.419 124.045 249.039 128.361 241.153 133.639C233.268 138.917 226.814 143.156 226.782 143.111C226.749 143.066 233.13 138.742 241.015 133.464C248.9 128.186 255.334 123.948 255.387 123.997Z"
        fill="#E0E0E0" />
    <path d="M181.37 52.1058L139.558 29.7792L106.628 91.2459L148.441 113.573L181.37 52.1058Z"
        fill="#F5F5F5" />
    <path d="M141.284 94.3422L138.633 95.2476L131.898 76.6649L134.554 75.7555L141.284 94.3422Z"
        fill="#E0E0E0" />
    <path d="M145.351 81.0092L146.319 83.6766L127.832 89.998L126.864 87.3306L145.351 81.0092Z"
        fill="#E0E0E0" />
    <path
        d="M158.486 53.592C158.454 53.6529 154.216 51.4524 149.015 48.6794C143.814 45.9064 139.629 43.6044 139.662 43.5435C139.694 43.4826 143.936 45.6831 149.137 48.4561C154.338 51.2291 158.519 53.527 158.486 53.592Z"
        fill="#E0E0E0" />
    <path
        d="M168.523 64.6474C168.491 64.7083 161.472 61.0218 152.846 56.4177C144.221 51.8137 137.259 48.0298 137.291 47.9689C137.324 47.908 144.339 51.5904 152.964 56.1985C161.589 60.8066 168.556 64.5865 168.523 64.6474Z"
        fill="#E0E0E0" />
    <path
        d="M166.058 69.2473C166.026 69.3082 159.007 65.6258 150.381 61.0177C141.756 56.4096 134.794 52.6298 134.826 52.5689C134.859 52.508 141.874 56.1944 150.499 60.7985C159.125 65.4025 166.091 69.1864 166.058 69.2473Z"
        fill="#E0E0E0" />
    <path
        d="M163.594 73.8474C163.561 73.9083 156.542 70.2258 147.917 65.6218C139.292 61.0178 132.329 57.246 132.362 57.1729C132.394 57.0999 139.409 60.7945 148.035 65.3985C156.66 70.0025 163.626 73.7865 163.594 73.8474Z"
        fill="#E0E0E0" />
    <path
        d="M161.13 78.4473C161.097 78.5082 154.078 74.8257 145.453 70.2217C136.827 65.6177 129.861 61.8337 129.898 61.7728C129.934 61.7119 136.945 65.3944 145.571 69.9984C154.196 74.6024 161.162 78.3864 161.13 78.4473Z"
        fill="#E0E0E0" />
    <path d="M161.345 0H160.296V17.8559H161.345V0Z" fill="black" opacity="0.2" />
    <path
        d="M136.327 39.4592H185.314C185.314 39.4592 180.792 17.864 160.45 17.864C142.358 17.864 136.327 39.4592 136.327 39.4592Z"
        fill="#22A770" />
    <path d="M161.345 0H160.295V17.8559H161.345V0Z" fill="#22A770" />
    <path
        d="M269.892 178.571C269.892 178.628 217.331 178.677 152.504 178.677C87.6772 178.677 35.1074 178.64 35.1074 178.571C35.1074 178.502 87.661 178.465 152.504 178.465C217.347 178.465 269.892 178.51 269.892 178.571Z"
        fill="#263238" />
    <path
        d="M48.1043 153.143C48.7918 153.193 49.4623 153.38 50.0758 153.694C50.6892 154.008 51.233 154.442 51.6748 154.97C52.5531 156.033 53.175 157.283 53.4926 158.624C54.1798 161.19 53.7569 164.223 53.0249 166.777C50.2433 165.782 48.5231 162.818 47.7382 161.259C46.5182 158.799 45.7903 153.602 48.0921 153.139"
        fill="#22A770" />
    <path
        d="M57.0309 169.891C56.6132 169.244 56.3744 168.498 56.3387 167.73C56.303 166.961 56.4716 166.197 56.8276 165.514C57.1947 164.838 57.693 164.242 58.2935 163.76C58.894 163.278 59.5846 162.921 60.3249 162.709C61.0041 162.497 61.793 162.412 62.3827 162.806C62.6485 163.007 62.8555 163.275 62.9821 163.583C63.1087 163.891 63.1503 164.227 63.1025 164.556C62.9957 165.215 62.715 165.835 62.2891 166.35C60.9349 168.181 59.292 169.704 57.0025 169.891"
        fill="#22A770" />
    <path
        d="M57.3398 178.469C57.2794 178.297 57.2372 178.119 57.2137 177.938C57.1405 177.556 57.0429 177.065 56.925 176.476C56.5599 174.864 56.4583 173.204 56.624 171.559C56.8158 169.907 57.4462 168.336 58.45 167.008C58.7567 166.611 59.1103 166.253 59.5032 165.94C59.61 165.856 59.7213 165.777 59.8367 165.705C59.8734 165.674 59.9145 165.65 59.9587 165.632C59.4443 166.07 58.9744 166.559 58.5557 167.089C57.6048 168.418 57.0061 169.966 56.8152 171.588C56.5549 173.48 56.8762 175.213 57.0632 176.46C57.1608 177.081 57.2422 177.584 57.2869 177.934C57.3189 178.11 57.3366 178.29 57.3398 178.469Z"
        fill="#263238" />
    <path
        d="M48.999 157.053C49.0455 157.117 49.0837 157.187 49.1129 157.26C49.1861 157.422 49.2837 157.625 49.3976 157.881C49.6456 158.421 49.9913 159.205 50.4102 160.175C51.2479 162.12 52.3703 164.824 53.5415 167.836C54.7127 170.849 55.709 173.597 56.3882 175.599C56.7379 176.598 57.0104 177.41 57.2015 177.974C57.2869 178.242 57.352 178.457 57.4048 178.624C57.4338 178.698 57.4543 178.776 57.4658 178.855C57.4246 178.786 57.3918 178.713 57.3682 178.636C57.3072 178.474 57.23 178.262 57.1283 177.999L56.2702 175.644C55.5423 173.658 54.5256 170.914 53.3585 167.905C52.1914 164.897 51.0852 162.185 50.28 160.228C49.8734 159.266 49.5602 158.482 49.3284 157.91C49.2227 157.65 49.1373 157.443 49.0722 157.276C49.0417 157.204 49.0172 157.129 48.999 157.053Z"
        fill="#263238" />
    <path
        d="M54.0337 172.794C53.1969 171.403 52.0405 170.231 50.6602 169.374C49.2799 168.518 47.7152 168.002 46.0955 167.869C45.2822 167.812 44.2818 167.95 43.9158 168.681C43.5498 169.412 44.0378 170.305 44.599 170.898C45.7914 172.143 47.3263 173.008 49.0104 173.384C50.6944 173.759 52.4522 173.629 54.0621 173.009"
        fill="#22A770" />
    <path
        d="M47.3482 170.069C47.5206 170.061 47.6934 170.068 47.8646 170.09C48.0651 170.1 48.2648 170.124 48.4624 170.159C48.6942 170.203 48.9667 170.228 49.2514 170.309C49.5696 170.376 49.8833 170.463 50.1908 170.569C50.547 170.683 50.896 170.819 51.2359 170.975C52.0177 171.324 52.7571 171.762 53.44 172.278C54.115 172.807 54.7264 173.412 55.2619 174.081C55.4931 174.372 55.7064 174.677 55.9004 174.994C56.0757 175.268 56.2359 175.551 56.3802 175.843C56.5024 176.08 56.611 176.324 56.7056 176.573C56.7871 176.758 56.8564 176.948 56.913 177.142C56.9732 177.304 57.0181 177.471 57.0472 177.641C57.0024 177.641 56.8072 176.943 56.2582 175.904C56.1087 175.624 55.9445 175.353 55.7662 175.092C55.568 174.784 55.3535 174.487 55.1236 174.202C54.06 172.89 52.7035 171.845 51.1627 171.149C50.8089 170.995 50.4714 170.849 50.142 170.743C49.8396 170.633 49.5314 170.54 49.2188 170.463C48.0802 170.151 47.3441 170.114 47.3482 170.069Z"
        fill="#263238" />
    <path
        d="M231.947 42.8249C230.751 43.0969 230.169 44.4732 230.056 45.6912C229.942 46.9092 230.096 48.2003 229.584 49.3128C229.006 50.5632 227.628 51.4889 227.583 52.8653C227.555 53.7057 228.055 54.4893 228.03 55.3378C227.99 56.7182 226.583 57.7738 226.505 59.138C226.453 60.1327 227.115 61.0827 226.957 62.0652C226.835 62.8285 226.237 63.4294 225.985 64.1602C225.485 65.6218 226.489 67.2255 227.795 68.0456C228.526 68.5047 229.349 68.7987 230.206 68.9073C231.063 69.0159 231.933 68.9363 232.756 68.6741C233.579 68.412 234.335 67.9736 234.97 67.3896C235.606 66.8055 236.106 66.09 236.436 65.2929C237.16 63.539 237.001 61.5618 236.843 59.6739C236.355 53.7842 235.992 47.8864 235.753 41.9804"
        fill="#263238" />
    <path
        d="M228.474 63.604C228.72 63.4513 228.912 63.2256 229.023 62.9584C229.14 62.6407 229.187 62.3014 229.161 61.9637C229.116 61.5161 229.017 61.0756 228.864 60.6523C228.67 60.1203 228.597 59.5514 228.653 58.9877C228.754 58.3544 229.21 57.8347 229.62 57.3231C229.842 57.0728 230.026 56.7926 230.169 56.4908C230.313 56.1857 230.336 55.8379 230.235 55.5164C230.023 54.8547 229.372 54.3675 229.075 53.6001C228.936 53.2203 228.913 52.8074 229.01 52.4146C229.103 52.0463 229.239 51.6905 229.417 51.3549C229.76 50.7506 230.033 50.109 230.23 49.4427C230.515 48.1557 230.381 46.9255 230.576 45.9145C230.684 45.1049 231.044 44.3495 231.605 43.7546C231.764 43.5944 231.944 43.4577 232.142 43.3486C232.21 43.3132 232.282 43.2873 232.357 43.2715C232.102 43.4116 231.868 43.5865 231.662 43.7912C231.142 44.392 230.815 45.1344 230.722 45.9227C230.651 46.4611 230.613 47.0035 230.609 47.5467C230.607 48.1859 230.545 48.8235 230.422 49.4508C230.228 50.1324 229.955 50.7892 229.608 51.4077C229.303 52.0451 229.023 52.7922 229.291 53.4905C229.559 54.1888 230.206 54.672 230.454 55.419C230.566 55.7881 230.539 56.1853 230.377 56.5355C230.218 56.8676 230.013 57.1752 229.767 57.449C229.36 57.9606 228.917 58.4478 228.819 59.0162C228.762 59.5553 228.826 60.1003 229.006 60.6117C229.152 61.0482 229.242 61.501 229.275 61.9597C229.295 62.3129 229.232 62.666 229.092 62.9909C229.004 63.1946 228.864 63.3712 228.685 63.5025C228.621 63.549 228.55 63.5834 228.474 63.604Z"
        fill="#455A64" />
    <path
        d="M225.293 73.2302L221.633 83.7862L206.326 84.5982L203.772 90.2822L219.754 91.9062C220.51 92.2157 221.32 92.3692 222.136 92.3573C222.952 92.3455 223.757 92.1685 224.503 91.8373C225.249 91.506 225.919 91.0272 226.475 90.4299C227.03 89.8325 227.458 89.129 227.733 88.3618L231.999 76.4742L225.293 73.2302Z"
        fill="#B78876" />
    <path
        d="M256.936 172.834C256.936 172.834 245.721 137.26 245.481 136.107C245.265 135.06 249.547 109.462 250.092 102.815L234.936 103.38V103.53L228.494 103.887L234.261 176.61H241.235L240.544 152.473C244.846 164 251.011 175.749 251.011 175.749L256.936 172.834Z"
        fill="#B78876" />
    <path
        d="M240.828 161.133C240.828 160.914 240.743 153.046 240.743 153.046C240.657 153.517 238.071 146.217 238.132 145.774C238.164 145.543 240.828 161.133 240.828 161.133Z"
        fill="#A36957" />
    <path
        d="M237.839 142.315C237.803 142.46 237.788 142.609 237.794 142.758C237.772 143.163 237.772 143.57 237.794 143.976C237.794 144.232 237.831 144.508 237.863 144.808C237.896 145.108 237.941 145.425 238.01 145.754C238.154 146.472 238.346 147.18 238.583 147.873C239.087 149.347 239.649 150.634 240.043 151.568C240.23 151.974 240.393 152.36 240.531 152.668C240.581 152.812 240.649 152.948 240.734 153.074C240.713 152.934 240.672 152.797 240.612 152.668C240.519 152.4 240.377 152.015 240.206 151.54C239.848 150.589 239.311 149.29 238.811 147.833C238.574 147.15 238.38 146.453 238.229 145.746C238.156 145.421 238.107 145.108 238.063 144.816C238.018 144.524 237.985 144.248 237.965 144.004C237.916 143.501 237.896 143.095 237.884 142.811C237.891 142.644 237.876 142.478 237.839 142.315Z"
        fill="#A36957" />
    <path
        d="M234.131 176.979V176.326L241.276 176.013L241.296 178.713L240.857 178.742C238.893 178.855 230.873 179.188 229.564 178.794C228.096 178.356 234.131 176.979 234.131 176.979Z"
        fill="#455A64" />
    <path
        d="M241.389 178.551C241.349 178.553 241.308 178.553 241.267 178.551L240.918 178.575L239.624 178.632C238.535 178.677 237.026 178.717 235.363 178.725C233.699 178.733 232.187 178.705 231.093 178.673L229.803 178.62H229.45H229.328C229.368 178.617 229.409 178.617 229.45 178.62H229.803L231.097 178.644C232.187 178.644 233.695 178.677 235.359 178.669C237.022 178.66 238.535 178.632 239.624 178.604L240.918 178.571H241.389V178.551Z"
        fill="#263238" />
    <path
        d="M231.8 178.778C231.741 178.566 231.659 178.36 231.556 178.165C231.427 177.985 231.279 177.82 231.113 177.674C231.335 177.753 231.519 177.912 231.629 178.12C231.764 178.312 231.824 178.545 231.8 178.778Z"
        fill="#263238" />
    <path
        d="M233.907 177.71C233.907 177.71 233.789 177.601 233.683 177.438C233.577 177.276 233.512 177.134 233.533 177.122C233.553 177.109 233.65 177.227 233.756 177.39C233.862 177.552 233.927 177.698 233.907 177.71Z"
        fill="#263238" />
    <path
        d="M234.484 177.422C234.484 177.442 234.354 177.365 234.232 177.256C234.11 177.146 234.021 177.044 234.037 177.028C234.053 177.012 234.167 177.085 234.289 177.195C234.411 177.304 234.501 177.386 234.484 177.422Z"
        fill="#263238" />
    <path
        d="M234.846 176.732C234.727 176.776 234.599 176.792 234.472 176.781C234.348 176.797 234.221 176.785 234.102 176.744C234.22 176.7 234.347 176.684 234.472 176.695C234.598 176.678 234.726 176.691 234.846 176.732Z"
        fill="#263238" />
    <path
        d="M234.968 176.261C234.847 176.339 234.706 176.382 234.561 176.383C234.423 176.401 234.283 176.381 234.155 176.326C234.289 176.303 234.425 176.292 234.561 176.293C234.696 176.269 234.832 176.259 234.968 176.261Z"
        fill="#263238" />
    <path
        d="M233.667 177.089C233.515 177.118 233.359 177.118 233.207 177.089C233.043 177.069 232.881 177.034 232.723 176.984C232.626 176.957 232.532 176.919 232.443 176.87C232.389 176.838 232.348 176.788 232.329 176.728C232.321 176.694 232.324 176.659 232.336 176.626C232.349 176.594 232.37 176.566 232.398 176.545C232.511 176.491 232.634 176.462 232.759 176.461C232.884 176.46 233.008 176.486 233.122 176.539C233.235 176.591 233.336 176.668 233.416 176.764C233.496 176.86 233.554 176.972 233.586 177.093C233.594 177.133 233.594 177.175 233.586 177.215C233.539 177.068 233.468 176.931 233.374 176.809C233.266 176.687 233.125 176.6 232.967 176.557C232.787 176.499 232.592 176.514 232.422 176.598C232.353 176.651 232.382 176.736 232.459 176.785C232.542 176.829 232.629 176.866 232.719 176.894C232.872 176.944 233.028 176.984 233.187 177.012C233.492 177.077 233.667 177.077 233.667 177.089Z"
        fill="#263238" />
    <path
        d="M233.549 177.113C233.49 177.019 233.469 176.906 233.492 176.797C233.507 176.677 233.55 176.563 233.618 176.464C233.656 176.396 233.711 176.339 233.777 176.298C233.843 176.257 233.918 176.233 233.996 176.228C234.042 176.239 234.083 176.267 234.109 176.306C234.135 176.345 234.146 176.393 234.139 176.44C234.129 176.512 234.102 176.582 234.061 176.643C234 176.743 233.927 176.837 233.846 176.923C233.775 177.004 233.686 177.066 233.586 177.105C233.586 177.105 233.675 177.024 233.801 176.878C233.874 176.794 233.938 176.703 233.992 176.606C234.053 176.509 234.098 176.334 233.992 176.314C233.886 176.293 233.764 176.419 233.695 176.509C233.631 176.597 233.586 176.698 233.565 176.805C233.549 176.907 233.543 177.01 233.549 177.113Z"
        fill="#263238" />
    <path
        d="M241.239 176.61C241.239 176.61 241.035 176.61 240.714 176.63C240.296 176.68 239.9 176.846 239.571 177.11C239.243 177.373 238.995 177.723 238.856 178.12C238.75 178.425 238.742 178.632 238.725 178.628C238.709 178.624 238.725 178.575 238.725 178.486C238.736 178.355 238.76 178.226 238.799 178.1C238.928 177.684 239.177 177.316 239.514 177.04C239.856 176.77 240.271 176.607 240.706 176.573C240.841 176.557 240.978 176.557 241.113 176.573C241.156 176.58 241.198 176.592 241.239 176.61Z"
        fill="#263238" />
    <path
        d="M237.819 177.982C237.478 178.062 237.128 178.096 236.778 178.084C236.43 178.101 236.081 178.071 235.741 177.994C235.741 177.97 236.204 177.994 236.778 177.994C237.351 177.994 237.815 177.958 237.819 177.982Z"
        fill="#263238" />
    <path
        d="M239.21 177.97C239.21 177.97 239.173 178.068 239.124 178.173C239.076 178.279 239.051 178.376 239.027 178.372C239.002 178.368 238.99 178.262 239.047 178.137C239.104 178.011 239.193 177.95 239.21 177.97Z"
        fill="#263238" />
    <path
        d="M239.734 177.316C239.734 177.316 239.706 177.406 239.632 177.479C239.559 177.552 239.486 177.601 239.466 177.584C239.445 177.568 239.494 177.495 239.567 177.418C239.64 177.341 239.714 177.296 239.734 177.316Z"
        fill="#263238" />
    <path
        d="M240.483 177.016C240.483 177.04 240.385 177.04 240.279 177.077C240.174 177.113 240.1 177.17 240.08 177.154C240.06 177.138 240.121 177.04 240.251 176.996C240.381 176.951 240.491 176.992 240.483 177.016Z"
        fill="#263238" />
    <path
        d="M241.015 176.87C241.015 176.894 240.987 176.931 240.926 176.951C240.865 176.971 240.812 176.975 240.804 176.951C240.796 176.927 240.836 176.89 240.893 176.87C240.95 176.85 241.007 176.85 241.015 176.87Z"
        fill="#263238" />
    <path
        d="M250.869 176.35L250.6 175.753L256.989 172.55L258.115 174.986L257.709 175.193C255.964 176.098 248.786 179.679 247.428 179.858C245.928 180.073 250.869 176.35 250.869 176.35Z"
        fill="#455A64" />
    <path
        d="M258.14 174.811L258.034 174.876L257.721 175.039L256.566 175.623C255.59 176.107 254.232 176.76 252.715 177.45C251.198 178.141 249.807 178.729 248.799 179.147L247.599 179.631L247.274 179.756C247.236 179.774 247.197 179.786 247.156 179.793L247.266 179.74L247.587 179.598L248.774 179.091C249.779 178.66 251.161 178.059 252.678 177.369C254.195 176.679 255.558 176.038 256.542 175.567L257.705 175.01L258.026 174.86L258.14 174.811Z"
        fill="#263238" />
    <path
        d="M249.498 178.94C249.357 178.769 249.198 178.614 249.022 178.478C248.832 178.365 248.628 178.275 248.417 178.21C248.65 178.207 248.879 178.275 249.072 178.406C249.266 178.536 249.414 178.723 249.498 178.94Z"
        fill="#263238" />
    <path
        d="M250.966 177.105C250.966 177.105 250.812 177.057 250.649 176.951C250.486 176.846 250.369 176.744 250.381 176.724C250.393 176.703 250.535 176.772 250.698 176.878C250.861 176.984 250.979 177.085 250.966 177.105Z"
        fill="#263238" />
    <path
        d="M251.365 176.61C251.365 176.63 251.227 176.61 251.068 176.561C250.909 176.513 250.791 176.452 250.796 176.427C250.898 176.418 251.002 176.434 251.096 176.476C251.251 176.513 251.373 176.569 251.365 176.61Z"
        fill="#263238" />
    <path
        d="M251.422 175.831C251.422 175.855 251.287 175.94 251.1 176.03C250.993 176.094 250.872 176.134 250.747 176.147C250.747 176.123 250.881 176.038 251.064 175.948C251.173 175.884 251.295 175.844 251.422 175.831Z"
        fill="#263238" />
    <path
        d="M251.341 175.351C251.341 175.351 251.223 175.514 251.011 175.632C250.891 175.713 250.749 175.755 250.604 175.753C250.721 175.675 250.845 175.609 250.975 175.554C251.174 175.445 251.32 175.331 251.341 175.351Z"
        fill="#263238" />
    <path
        d="M250.507 176.643C250.383 176.727 250.245 176.791 250.1 176.829C249.94 176.876 249.777 176.91 249.612 176.931C249.512 176.943 249.411 176.943 249.311 176.931C249.248 176.926 249.19 176.897 249.149 176.85C249.13 176.821 249.12 176.787 249.12 176.752C249.12 176.718 249.13 176.684 249.149 176.655C249.272 176.505 249.444 176.403 249.635 176.366C249.825 176.329 250.023 176.359 250.194 176.452C250.295 176.504 250.383 176.578 250.454 176.667C250.503 176.732 250.523 176.772 250.519 176.776C250.419 176.665 250.299 176.573 250.165 176.504C250.022 176.437 249.862 176.413 249.706 176.435C249.613 176.445 249.522 176.473 249.44 176.518C249.357 176.562 249.285 176.623 249.226 176.695C249.181 176.772 249.226 176.837 249.336 176.85C249.429 176.858 249.523 176.858 249.616 176.85C249.778 176.833 249.939 176.805 250.096 176.764C250.328 176.699 250.507 176.63 250.507 176.643Z"
        fill="#263238" />
    <path
        d="M250.393 176.711C250.302 176.647 250.239 176.552 250.214 176.444C250.178 176.329 250.17 176.208 250.19 176.09C250.197 176.012 250.223 175.937 250.268 175.873C250.312 175.808 250.372 175.756 250.442 175.721C250.543 175.688 250.779 175.895 250.796 175.973C250.812 176.05 250.678 176.009 250.669 176.074C250.656 176.189 250.629 176.302 250.588 176.411C250.559 176.515 250.502 176.611 250.425 176.687C250.425 176.687 250.474 176.577 250.531 176.395C250.56 176.287 250.581 176.177 250.592 176.066C250.592 175.952 250.592 175.778 250.462 175.806C250.332 175.835 250.295 175.993 250.267 176.107C250.242 176.212 250.242 176.322 250.267 176.427C250.3 176.526 250.343 176.621 250.393 176.711Z"
        fill="#263238" />
    <path
        d="M257.204 173.102C257.204 173.102 257.009 173.171 256.733 173.338C256.371 173.553 256.077 173.866 255.883 174.239C255.695 174.616 255.614 175.037 255.651 175.457C255.675 175.782 255.753 175.969 255.736 175.977C255.71 175.936 255.69 175.893 255.675 175.847C255.635 175.722 255.607 175.595 255.59 175.465C255.532 175.033 255.607 174.593 255.805 174.204C256.003 173.815 256.316 173.496 256.7 173.289C256.815 173.225 256.937 173.174 257.062 173.135C257.108 173.117 257.156 173.106 257.204 173.102Z"
        fill="#263238" />
    <path
        d="M254.647 175.757C254.073 176.156 253.433 176.447 252.756 176.618C252.756 176.594 253.183 176.431 253.703 176.212C254.224 175.993 254.635 175.737 254.647 175.757Z"
        fill="#263238" />
    <path
        d="M255.911 175.177C255.932 175.177 255.911 175.278 255.911 175.396C255.911 175.514 255.911 175.611 255.911 175.619C255.911 175.627 255.83 175.53 255.83 175.396C255.83 175.262 255.891 175.165 255.911 175.177Z"
        fill="#263238" />
    <path
        d="M256.119 174.365C256.139 174.365 256.119 174.458 256.095 174.556C256.07 174.653 256.009 174.726 255.989 174.718C255.968 174.71 255.989 174.625 256.013 174.527C256.038 174.43 256.095 174.357 256.119 174.365Z"
        fill="#263238" />
    <path
        d="M256.68 173.768C256.68 173.792 256.599 173.829 256.517 173.906C256.436 173.983 256.391 174.064 256.371 174.056C256.351 174.048 256.371 173.934 256.46 173.841C256.55 173.748 256.676 173.768 256.68 173.768Z"
        fill="#263238" />
    <path
        d="M257.107 173.435C257.107 173.435 257.107 173.5 257.058 173.545C257.009 173.589 256.965 173.614 256.948 173.597C256.932 173.581 256.948 173.533 256.997 173.488C257.046 173.443 257.091 173.419 257.107 173.435Z"
        fill="#263238" />
    <path
        d="M249.108 90.7978L247.921 76.3036L254.021 76.4133C254.021 76.4133 254.301 74.2736 253.402 69.5884C252.849 66.7139 250.934 64.9519 248.783 63.9044V63.8638L248.596 63.8151C246.825 63.0213 244.933 62.5287 243 62.3575L235.497 62.4428C235.497 62.4428 229.767 61.712 226.607 65.8085C225.387 67.3798 221.601 78.1347 221.601 78.1347L230.609 82.4627L229.767 76.4985C229.767 76.4985 229.938 80.8224 230.491 82.1825C230.796 82.9458 231.711 85.3168 231.711 85.3168L231.593 92.4706L249.108 90.7978Z"
        fill="#22A770" />
    <path d="M244.972 74.2006L243.858 78.9345H254.362L253.671 70.9932L244.972 74.2006Z"
        fill="#22A770" />
    <path
        d="M254.362 78.9346C253.903 78.8502 253.438 78.804 252.971 78.7966C252.109 78.7478 250.938 78.7032 249.604 78.7113C248.27 78.7194 247.095 78.7763 246.233 78.8412C245.767 78.8574 245.303 78.9145 244.846 79.0117C245.312 79.0488 245.78 79.0488 246.245 79.0117C247.103 78.9833 248.278 78.9508 249.604 78.9468C250.93 78.9427 252.105 78.9468 252.967 78.9671C253.432 78.9931 253.899 78.9822 254.362 78.9346Z"
        fill="#263238" />
    <path
        d="M244.517 70.9567C244.467 71.3607 244.456 71.7686 244.484 72.1747C244.484 72.9176 244.517 73.9408 244.561 75.0735C244.606 76.2062 244.659 77.2334 244.708 77.9723C244.71 78.3817 244.753 78.7898 244.838 79.1903C244.888 78.7863 244.899 78.3784 244.871 77.9723C244.871 77.2294 244.838 76.2022 244.793 75.0694C244.749 73.9367 244.696 72.9136 244.647 72.1706C244.645 71.7626 244.602 71.3558 244.517 70.9567Z"
        fill="#263238" />
    <g opacity="0.3">
        <path
            d="M234.96 75.0573C234.96 75.0573 237.294 92.3407 243.858 91.8819C243.858 91.8819 246.814 91.8494 247.762 89.8884V89.117L234.96 75.0573Z"
            fill="black" />
    </g>
    <g opacity="0.3">
        <path
            d="M244.517 71.9757L243.26 80.4489L244.074 81.9349L245.416 79.0279L244.846 79.0117L244.517 71.9757Z"
            fill="black" />
    </g>
    <path
        d="M231.674 85.325C231.596 85.1984 231.536 85.0618 231.495 84.919C231.394 84.6551 231.259 84.2693 231.089 83.7862C230.681 82.5273 230.346 81.2464 230.084 79.9495C229.823 78.6519 229.657 77.3371 229.588 76.0154C229.564 75.5079 229.556 75.0978 229.564 74.7974C229.553 74.6506 229.563 74.5031 229.592 74.3589C229.625 74.3589 229.649 74.9841 229.734 75.9829C229.849 77.2926 230.035 78.5951 230.292 79.8845C230.593 81.3949 230.954 82.7468 231.231 83.7172C231.361 84.1678 231.471 84.5535 231.56 84.8702C231.616 85.0168 231.654 85.1694 231.674 85.325Z"
        fill="#263238" />
    <path
        d="M234.326 90.2904C234.269 90.2904 234.106 89.9372 233.964 89.4784C233.841 89.1973 233.787 88.8912 233.805 88.5852C233.985 88.8333 234.108 89.1172 234.167 89.4175C234.284 89.6932 234.338 89.9913 234.326 90.2904Z"
        fill="#263238" />
    <path
        d="M235.233 90.2255C234.925 89.411 234.912 88.515 235.196 87.692C235.228 88.1137 235.228 88.5371 235.196 88.9587C235.24 89.3794 235.253 89.8029 235.233 90.2255Z"
        fill="#263238" />
    <path
        d="M230.792 82.6616C230.763 82.7103 228.669 81.7197 226.111 80.4449C223.553 79.17 221.499 78.0901 221.524 78.0373C221.548 77.9845 223.646 78.9792 226.204 80.254C228.762 81.5289 230.816 82.6088 230.792 82.6616Z"
        fill="#263238" />
    <path
        d="M234.484 63.8435C234.529 61.7892 234.541 59.6292 234.541 59.6292C234.541 59.6292 231.902 59.1217 231.443 55.6545C231.003 52.3497 232.231 44.591 232.231 44.591C236.087 43.1375 240.092 44.457 242.732 47.5751L242.077 64.2495C242 66.1861 240.271 67.664 238.197 67.5665C236.099 67.465 234.44 65.8004 234.484 63.8435Z"
        fill="#B78876" />
    <path
        d="M232.028 50.7906C232.024 50.9044 232.065 51.0153 232.14 51.1006C232.216 51.1859 232.321 51.2391 232.435 51.2494C232.492 51.255 232.551 51.2487 232.606 51.2311C232.661 51.2135 232.712 51.1848 232.756 51.1468C232.8 51.1088 232.835 51.0623 232.86 51.0101C232.886 50.958 232.9 50.9013 232.902 50.8434C232.906 50.73 232.866 50.6196 232.79 50.535C232.714 50.4504 232.609 50.398 232.496 50.3887C232.438 50.3799 232.379 50.3837 232.322 50.3999C232.266 50.4161 232.214 50.4442 232.169 50.4824C232.125 50.5206 232.089 50.5679 232.065 50.6211C232.041 50.6743 232.028 50.7321 232.028 50.7906Z"
        fill="#263238" />
    <path
        d="M231.865 50.21C231.918 50.2669 232.272 50.0273 232.74 50.0436C233.207 50.0598 233.553 50.3034 233.61 50.2466C233.667 50.1897 233.586 50.1167 233.435 49.9989C233.231 49.8516 232.987 49.7708 232.736 49.7675C232.488 49.7581 232.244 49.8293 232.04 49.9705C231.89 50.0801 231.837 50.1816 231.865 50.21Z"
        fill="#263238" />
    <path
        d="M236.871 51.091C236.867 51.2051 236.907 51.3165 236.982 51.402C237.058 51.4875 237.164 51.5405 237.278 51.5498C237.336 51.5587 237.396 51.5547 237.453 51.5383C237.509 51.5219 237.562 51.4934 237.606 51.4548C237.65 51.4162 237.686 51.3684 237.71 51.3147C237.734 51.261 237.746 51.2027 237.746 51.1438C237.75 51.0302 237.71 50.9192 237.635 50.8344C237.559 50.7495 237.453 50.6974 237.339 50.6891C237.281 50.6803 237.222 50.6842 237.166 50.7003C237.109 50.7165 237.057 50.7446 237.013 50.7828C236.968 50.821 236.933 50.8683 236.908 50.9215C236.884 50.9747 236.871 51.0325 236.871 51.091Z"
        fill="#263238" />
    <path
        d="M236.839 50.5105C236.892 50.5714 237.245 50.3319 237.713 50.3441C238.181 50.3562 238.526 50.6039 238.587 50.5471C238.648 50.4902 238.559 50.4171 238.408 50.3035C238.208 50.1523 237.964 50.0697 237.713 50.068C237.464 50.0605 237.22 50.1316 237.014 50.271C236.867 50.3806 236.814 50.4821 236.839 50.5105Z"
        fill="#263238" />
    <path
        d="M235.017 53.998C234.767 53.9123 234.508 53.8591 234.244 53.8397C234.122 53.8397 234.008 53.795 233.992 53.7138C233.982 53.5869 234.014 53.4602 234.082 53.3525L234.464 52.439C234.82 51.6626 235.112 50.8588 235.338 50.0355C234.922 50.7815 234.566 51.5594 234.273 52.3618C234.147 52.6826 234.021 52.9911 233.903 53.2835C233.824 53.4285 233.798 53.5965 233.83 53.7585C233.846 53.8025 233.871 53.8422 233.905 53.8746C233.939 53.907 233.98 53.9312 234.025 53.9452C234.092 53.9647 234.162 53.9757 234.232 53.9777C234.492 54.0176 234.756 54.0245 235.017 53.998Z"
        fill="#263238" />
    <path
        d="M234.541 59.6292C236.168 59.6942 237.781 59.3078 239.201 58.5127C239.201 58.5127 238.018 60.8553 234.565 60.4453L234.541 59.6292Z"
        fill="#A36957" />
    <path
        d="M238.368 49.126C238.27 49.2762 237.904 49.2113 237.498 49.126C237.091 49.0408 236.733 48.9717 236.684 48.7972C236.636 48.6226 237.063 48.3912 237.608 48.5008C238.153 48.6104 238.466 48.9961 238.368 49.126Z"
        fill="#263238" />
    <path
        d="M233.622 48.4358C233.585 48.6104 233.195 48.6754 232.748 48.6957C232.3 48.716 231.906 48.6957 231.853 48.517C231.8 48.3384 232.178 48.0867 232.719 48.0623C233.26 48.038 233.659 48.2694 233.622 48.4358Z"
        fill="#263238" />
    <path
        d="M235.025 55.1389C234.974 55.1267 234.92 55.1321 234.872 55.1542C234.824 55.1763 234.785 55.2138 234.761 55.2607C234.737 55.3021 234.726 55.3488 234.726 55.3962C234.727 55.4436 234.74 55.4901 234.764 55.531C234.788 55.5719 234.822 55.6058 234.863 55.6294C234.904 55.6529 234.951 55.6653 234.999 55.6653C235.046 55.6653 235.093 55.6529 235.134 55.6294C235.175 55.6058 235.209 55.5719 235.234 55.531C235.258 55.4901 235.27 55.4436 235.271 55.3962C235.271 55.3488 235.26 55.3021 235.236 55.2607C235.207 55.2062 235.16 55.1632 235.103 55.1388C235.046 55.1145 234.983 55.1102 234.923 55.1267"
        fill="#A36957" />
    <path
        d="M235.135 55.1876C235.135 55.1673 235.057 55.0496 234.85 55.0943C234.788 55.1104 234.731 55.1425 234.686 55.1874C234.64 55.2323 234.607 55.2884 234.59 55.35C234.568 55.4278 234.57 55.5102 234.595 55.5869C234.621 55.6635 234.668 55.7309 234.732 55.7804C234.8 55.8267 234.88 55.8514 234.962 55.8514C235.044 55.8514 235.124 55.8267 235.192 55.7804C235.246 55.744 235.288 55.693 235.314 55.6333C235.34 55.5736 235.348 55.5077 235.338 55.4434C235.297 55.2282 235.139 55.1958 235.131 55.2242C235.123 55.2526 235.188 55.3257 235.175 55.4515C235.173 55.4826 235.162 55.5126 235.145 55.5388C235.128 55.565 235.105 55.5866 235.078 55.6018C235.046 55.6199 235.01 55.6295 234.974 55.6295C234.938 55.6295 234.902 55.6199 234.87 55.6018C234.842 55.5777 234.82 55.5468 234.808 55.5119C234.795 55.4771 234.791 55.4395 234.797 55.4028C234.802 55.3707 234.814 55.3403 234.833 55.3141C234.853 55.2879 234.878 55.2668 234.907 55.2526C235.021 55.1836 235.123 55.2161 235.135 55.1876Z"
        fill="#263238" />
    <path
        d="M241.154 51.6473C240.747 52.5973 239.738 53.3322 239.877 54.3594C239.966 55.0212 240.393 55.6383 240.312 56.3041C240.206 57.1161 239.34 57.717 239.214 58.5493C239.063 59.5684 240.06 60.3601 240.454 61.3101C241.036 62.6986 240.296 64.2577 240.275 65.7761C240.299 66.9289 240.741 68.034 241.519 68.8865C242.296 69.7391 243.357 70.2813 244.505 70.4126C245.432 70.4898 246.477 70.2096 246.945 69.4139C247.351 68.7561 247.262 67.9198 247.498 67.193C247.855 66.105 248.892 65.3092 249.124 64.1886C249.531 62.1586 247.05 60.4534 247.213 58.3747C247.282 57.4856 247.831 56.7142 248.063 55.8535C248.21 55.2878 248.222 54.6953 248.096 54.1244C247.97 53.5535 247.711 53.0205 247.339 52.5689C246.725 51.8422 245.838 51.3509 245.306 50.5714C244.716 49.6741 244.696 48.5414 244.492 47.4817C244.219 46.1938 243.624 44.9959 242.761 44.0001C241.898 43.0044 240.797 42.2432 239.56 41.7878C238.322 41.3324 236.99 41.1976 235.686 41.396C234.382 41.5944 233.15 42.1196 232.105 42.9224C232.105 42.9224 231.516 45.5979 234.269 46.0486C237.022 46.4992 238.295 45.9795 238.604 47.0798C238.531 47.5331 238.567 47.9971 238.708 48.4339C238.849 48.8707 239.092 49.2679 239.417 49.5929C240.54 50.8028 241.609 50.543 241.154 51.6473Z"
        fill="#263238" />
    <path
        d="M245.525 70.2055C245.44 70.2084 245.356 70.2002 245.273 70.1812C245.034 70.139 244.8 70.0751 244.573 69.9904C243.734 69.6689 242.997 69.1259 242.443 68.4191C242.054 67.9315 241.748 67.3827 241.54 66.7951C241.302 66.126 241.177 65.4222 241.17 64.7124C241.161 63.9299 241.26 63.15 241.462 62.3941C241.573 61.9949 241.709 61.603 241.869 61.2208C242.037 60.8403 242.185 60.4513 242.312 60.0555C242.424 59.6655 242.424 59.2519 242.312 58.8619C242.193 58.4779 242.04 58.1056 241.853 57.7495C241.664 57.3963 241.505 57.0283 241.377 56.6492C241.252 56.2739 241.223 55.8734 241.292 55.484C241.454 54.7207 241.918 54.1523 242.194 53.5717C242.458 53.0343 242.584 52.44 242.56 51.8422C242.523 50.9672 242.206 50.1274 241.654 49.4468C241.44 49.2083 241.21 48.9845 240.966 48.7769C241.251 48.9368 241.506 49.1457 241.719 49.394C242.311 50.0736 242.66 50.9306 242.711 51.83C242.745 52.4539 242.622 53.0763 242.353 53.6407C242.072 54.2416 241.621 54.8141 241.483 55.5124C241.345 56.2107 241.674 56.9456 242.036 57.652C242.233 58.0183 242.394 58.4032 242.516 58.801C242.636 59.2258 242.636 59.6754 242.516 60.1002C242.38 60.5098 242.224 60.9122 242.048 61.306C241.888 61.68 241.752 62.0638 241.641 62.455C241.44 63.1917 241.34 63.9526 241.345 64.7164C241.332 66.0172 241.752 67.2854 242.54 68.3217C243.067 69.0196 243.768 69.567 244.573 69.9092C245.179 70.1446 245.529 70.1812 245.525 70.2055Z"
        fill="#455A64" />
    <path
        d="M245.118 49.7188C244.92 49.77 244.717 49.7999 244.512 49.8081C243.954 49.8677 243.391 49.8527 242.837 49.7634C242.417 49.7013 242.014 49.5563 241.651 49.3367C241.287 49.1171 240.972 48.8274 240.722 48.4845C240.49 48.0508 240.304 47.5935 240.169 47.1204C239.996 46.6478 239.669 46.2464 239.242 45.9795C238.351 45.4152 237.306 45.3461 236.395 45.2365C235.555 45.1947 234.739 44.9404 234.024 44.4976C233.546 44.1809 233.2 43.6999 233.053 43.1456C233.017 42.9954 233.007 42.8403 233.024 42.6868C233.024 42.5813 233.048 42.5285 233.057 42.5285C233.061 42.7296 233.087 42.9296 233.134 43.1253C233.302 43.6435 233.648 44.0862 234.11 44.3758C234.812 44.7845 235.604 45.0133 236.416 45.0416C237.327 45.1472 238.408 45.2 239.36 45.8009C239.826 46.0928 240.18 46.5314 240.368 47.0473C240.496 47.5084 240.672 47.9548 240.893 48.379C241.367 49.0277 242.076 49.465 242.869 49.597C243.406 49.6965 243.951 49.7333 244.496 49.7066C244.703 49.6949 244.912 49.699 245.118 49.7188Z"
        fill="#455A64" />
    <path
        d="M244.11 46.4139C243.957 46.4651 243.796 46.4885 243.634 46.483C242.876 46.4881 242.146 46.1966 241.601 45.671C241.352 45.4219 241.14 45.139 240.971 44.8305C240.605 44.2134 240.251 43.4542 239.49 43.1375C238.758 42.8921 237.977 42.8239 237.213 42.9386C236.568 43.029 235.914 43.029 235.269 42.9386C234.821 42.8764 234.398 42.6909 234.049 42.4027C233.959 42.3242 233.88 42.2341 233.813 42.1347C233.764 42.0643 233.744 42.0278 233.752 42.0251C233.752 42.0251 233.866 42.155 234.102 42.3377C234.45 42.5846 234.854 42.7409 235.277 42.7924C235.91 42.8637 236.55 42.8528 237.18 42.7599C237.978 42.6299 238.796 42.6997 239.559 42.9629C239.952 43.1391 240.288 43.4201 240.531 43.7749C240.746 44.0915 240.943 44.4194 241.121 44.7575C241.281 45.0525 241.48 45.3255 241.711 45.5695C241.915 45.7757 242.149 45.9496 242.406 46.0851C242.784 46.2823 243.2 46.3971 243.626 46.4221C243.939 46.418 244.106 46.3936 244.11 46.4139Z"
        fill="#455A64" />
    <path
        d="M246.737 69.3286C246.716 69.3286 246.847 69.0607 246.997 68.5572C247.201 67.8505 247.291 67.116 247.265 66.3811C247.236 65.2931 246.938 64.2292 246.399 63.2833C246.102 62.7514 245.651 62.2764 245.281 61.6918C245.085 61.3939 244.947 61.062 244.874 60.7133C244.81 60.3462 244.841 59.9689 244.964 59.6171C245.191 58.9147 245.598 58.326 245.688 57.6805C245.777 57.0349 245.468 56.4625 245.159 55.9225C245 55.6597 244.854 55.3887 244.724 55.1105C244.605 54.8407 244.527 54.5547 244.492 54.262C244.454 53.7461 244.47 53.2276 244.541 52.7151C244.671 51.9907 244.603 51.2447 244.346 50.5552C244.23 50.3136 244.067 50.0981 243.866 49.9218C243.866 49.9218 243.886 49.9218 243.915 49.9462C243.963 49.9701 244.007 50.0016 244.045 50.0396C244.204 50.1718 244.333 50.3366 244.423 50.5227C244.717 51.2181 244.809 51.9822 244.687 52.7273C244.631 53.2302 244.624 53.7374 244.667 54.2417C244.767 54.8089 244.992 55.3469 245.326 55.8169C245.499 56.0913 245.647 56.3807 245.769 56.6817C245.897 57.0066 245.939 57.359 245.891 57.7048C245.793 58.4153 245.374 59.0162 245.163 59.678C245.052 59.9973 245.023 60.3392 245.078 60.6727C245.149 60.9953 245.278 61.3021 245.46 61.5781C245.806 62.1424 246.273 62.6256 246.57 63.1818C247.115 64.1596 247.406 65.2581 247.416 66.377C247.429 67.1259 247.313 67.8715 247.074 68.5816C247.009 68.7737 246.93 68.961 246.838 69.1419C246.814 69.2086 246.779 69.2715 246.737 69.3286Z"
        fill="#455A64" />
    <path
        d="M230.174 144.979C230.174 144.979 227.433 119.06 227.274 109.482C227.116 99.9045 231.589 90.4528 231.589 90.4528L249.108 89.7261C249.108 89.7261 252.573 99.4417 252.634 103.53C252.756 111.463 250.523 119.295 250.779 125.588L251.365 144.995"
        fill="#263238" />
    <path
        d="M251.954 113.112C251.863 113.191 251.767 113.264 251.666 113.331L251.507 113.44L251.336 113.607C251.186 113.737 251.049 113.883 250.93 114.041C250.364 114.732 249.954 115.97 249.559 117.509C249.358 118.362 249.06 119.19 248.673 119.977C248.555 120.193 248.419 120.398 248.266 120.59C248.193 120.688 248.124 120.793 248.038 120.886L247.77 121.154C247.385 121.513 246.939 121.799 246.452 121.999C245.472 122.429 244.362 122.632 243.353 123.14C242.32 123.695 241.522 124.603 241.105 125.698C240.608 126.798 240.291 127.951 239.885 129.031C239.478 130.111 238.929 131.142 238.055 131.8C237.219 132.38 236.226 132.693 235.208 132.697C234.264 132.754 233.39 132.725 232.605 132.843C231.899 132.916 231.224 133.171 230.645 133.582C230.223 133.912 229.906 134.358 229.734 134.865C229.625 135.185 229.601 135.528 229.665 135.86C229.714 136.087 229.775 136.197 229.763 136.201C229.697 136.099 229.65 135.986 229.624 135.868C229.539 135.529 229.55 135.173 229.657 134.841C229.818 134.308 230.137 133.837 230.572 133.489C231.165 133.042 231.867 132.762 232.605 132.677C233.419 132.547 234.285 132.563 235.216 132.502C236.204 132.496 237.167 132.19 237.977 131.625C238.799 130.908 239.406 129.978 239.73 128.937C240.137 127.87 240.434 126.713 240.95 125.592C241.388 124.452 242.222 123.508 243.301 122.933C244.35 122.413 245.46 122.214 246.416 121.8C246.883 121.607 247.313 121.332 247.684 120.988L247.941 120.732C248.022 120.643 248.091 120.541 248.164 120.448C248.308 120.263 248.434 120.066 248.542 119.859C248.932 119.083 249.234 118.266 249.441 117.423C249.848 115.889 250.291 114.634 250.889 113.94C251.008 113.782 251.144 113.637 251.296 113.509C251.361 113.453 251.418 113.396 251.475 113.351L251.641 113.246C251.743 113.195 251.847 113.15 251.954 113.112Z"
        fill="#FAFAFA" />
    <path
        d="M252.06 101.118C252.079 101.232 252.087 101.348 252.085 101.464C252.083 101.799 252.042 102.133 251.963 102.458C251.613 103.646 250.925 104.706 249.982 105.511C249.36 106.082 248.679 106.584 247.949 107.009C247.164 107.472 246.298 107.915 245.407 108.418C244.472 108.919 243.601 109.531 242.813 110.241C242.005 111.042 241.339 111.974 240.844 112.998C240.346 114.036 239.776 115.038 239.14 115.998C238.817 116.446 238.443 116.854 238.026 117.216C237.615 117.566 237.163 117.864 236.68 118.105C235.806 118.534 234.896 118.883 233.96 119.149C233.089 119.417 232.276 119.656 231.568 119.961C230.926 120.216 230.315 120.543 229.747 120.935C229.319 121.231 228.934 121.585 228.604 121.987C228.327 122.335 228.096 122.717 227.917 123.124C227.945 123.011 227.984 122.901 228.03 122.795C228.164 122.488 228.334 122.199 228.539 121.934C228.863 121.516 229.247 121.146 229.677 120.838C230.248 120.431 230.864 120.091 231.511 119.823C232.295 119.504 233.094 119.226 233.907 118.991C234.83 118.719 235.728 118.368 236.591 117.943C237.048 117.705 237.478 117.416 237.872 117.082C238.273 116.726 238.633 116.325 238.945 115.889C239.573 114.933 240.136 113.938 240.633 112.909C241.143 111.862 241.831 110.911 242.666 110.099C243.468 109.378 244.356 108.759 245.31 108.256C246.204 107.757 247.07 107.322 247.855 106.863C248.583 106.452 249.265 105.965 249.889 105.41C250.823 104.629 251.517 103.6 251.89 102.442C251.994 102.008 252.051 101.564 252.06 101.118Z"
        fill="#FAFAFA" />
    <path
        d="M227.364 110.838C227.347 110.813 227.335 110.786 227.327 110.757C227.297 110.679 227.271 110.599 227.25 110.517C227.18 110.194 227.194 109.859 227.29 109.543C227.518 108.731 228.417 107.687 229.865 107.172C230.588 106.924 231.406 106.766 232.26 106.555C232.969 106.437 233.64 106.153 234.216 105.724C234.793 105.295 235.258 104.735 235.574 104.09C235.805 103.617 236.008 103.13 236.18 102.633C236.498 101.552 236.93 100.508 237.469 99.5187C238.087 98.5462 239.024 97.8184 240.121 97.4603C241.118 97.1373 242.136 96.8796 243.167 96.6889C244.087 96.5126 244.978 96.2092 245.814 95.7876C246.522 95.3836 247.133 94.8292 247.603 94.1636C248.298 93.2026 248.694 92.059 248.742 90.875C248.744 90.4405 248.715 90.0064 248.657 89.5758C248.78 89.9976 248.836 90.4359 248.823 90.875C248.808 92.0846 248.425 93.261 247.725 94.2489C247.249 94.9364 246.625 95.5093 245.899 95.9256C245.052 96.363 244.147 96.6787 243.211 96.8635C242.19 97.0571 241.182 97.3161 240.194 97.639C239.141 97.9833 238.241 98.6822 237.648 99.6162C237.118 100.592 236.691 101.621 236.375 102.686C236.2 103.192 235.992 103.687 235.753 104.167C235.512 104.629 235.205 105.053 234.842 105.426C234.128 106.076 233.249 106.519 232.301 106.705C231.438 106.924 230.625 107.062 229.913 107.298C228.502 107.777 227.608 108.763 227.368 109.551C227.269 109.855 227.243 110.177 227.29 110.493C227.325 110.606 227.349 110.721 227.364 110.838Z"
        fill="#FAFAFA" />
    <path
        d="M250.556 132.762C250.572 132.846 250.582 132.932 250.584 133.018C250.592 133.264 250.566 133.51 250.507 133.749C250.251 134.629 249.711 135.4 248.97 135.941C248.475 136.335 247.927 136.657 247.343 136.899C246.721 137.163 246.034 137.374 245.31 137.598C244.558 137.817 243.823 138.088 243.11 138.41C242.369 138.763 241.704 139.258 241.154 139.867C240.56 140.484 240.048 141.162 239.478 141.763C238.934 142.345 238.301 142.838 237.603 143.225C236.416 143.871 235.088 144.217 233.736 144.232C232.83 144.241 231.93 144.092 231.076 143.789C230.845 143.709 230.619 143.613 230.401 143.501C230.322 143.468 230.247 143.426 230.178 143.375C230.26 143.397 230.34 143.426 230.418 143.46C230.641 143.556 230.869 143.64 231.101 143.712C231.953 143.979 232.843 144.103 233.736 144.081C235.058 144.047 236.353 143.695 237.51 143.054C238.186 142.672 238.799 142.189 239.328 141.621C239.885 141.028 240.393 140.354 240.999 139.721C241.582 139.089 242.284 138.579 243.065 138.219C243.789 137.896 244.535 137.625 245.298 137.407C246.013 137.187 246.697 137.001 247.331 136.733C247.898 136.501 248.432 136.194 248.917 135.819C249.646 135.305 250.189 134.571 250.466 133.724C250.526 133.407 250.556 133.085 250.556 132.762Z"
        fill="#FAFAFA" />
    <path
        d="M248.559 78.9508L245.167 79.032C245.037 79.7148 244.777 80.3665 244.403 80.9524C241.556 76.0398 239.372 69.4626 238.827 66.8196C238.909 66.5557 239.002 66.2633 239.12 65.9385C239.205 65.4452 239.19 64.94 239.076 64.4526C238.978 63.8639 238.815 63.0722 238.766 62.7068C238.616 61.5862 238.433 61.4116 238.043 61.5375C237.514 61.7121 238.262 64.6759 237.827 64.7408C237.591 64.7733 237.307 63.7583 237.225 62.926C237.144 62.0937 236.762 59.5278 236.489 59.3573C236.082 59.1055 235.729 59.5034 235.834 60.3317C235.94 61.1599 236.066 63.6771 235.627 63.7136C235.188 63.7502 234.814 59.4953 234.814 59.4953C234.814 59.4953 234.883 58.5696 234.37 58.5899C233.451 58.6305 234.171 63.1128 234.248 63.5391C234.305 63.8314 233.842 63.8882 233.785 63.5675C233.728 63.2468 233.516 59.3167 232.565 59.3491C231.841 59.3491 233.122 63.0397 232.715 63.8923C232.309 64.7449 232.032 61.0016 231.345 61.0503C231.089 61.0706 230.897 61.1193 231.369 63.2346C231.821 64.9152 232.364 66.5701 232.996 68.1918C234.086 74.0585 238.868 92.8279 246.363 89.3931C250.56 87.4687 252.26 78.9508 252.26 78.9508H248.559Z"
        fill="#B78876" />
    <path
        d="M234.102 63.8232C234.134 63.8313 234.168 63.8313 234.2 63.8232C234.249 63.8083 234.291 63.7764 234.318 63.7332C234.346 63.69 234.357 63.6385 234.35 63.5878C234.35 63.336 234.301 62.9706 234.244 62.4956C234.149 61.9231 234.087 61.3457 234.057 60.7661C234.057 60.425 234.057 60.0596 234.078 59.6739C234.084 59.4778 234.104 59.2824 234.139 59.0893C234.171 58.9066 234.293 58.6833 234.435 58.7198H234.46C234.602 58.7198 234.716 58.8254 234.761 58.9959C234.811 59.1726 234.83 59.3567 234.818 59.5399C234.902 60.677 235.047 61.8087 235.253 62.93C235.285 63.0803 235.318 63.2345 235.367 63.3888C235.388 63.4678 235.416 63.5451 235.448 63.6202C235.469 63.6621 235.492 63.7027 235.517 63.742C235.535 63.7717 235.56 63.7967 235.59 63.815C235.62 63.8334 235.653 63.8445 235.688 63.8476C235.747 63.8411 235.803 63.8172 235.849 63.7789C235.894 63.7406 235.928 63.6896 235.944 63.6324C235.979 63.553 236.005 63.4699 236.021 63.3848C236.053 63.2211 236.075 63.0557 236.087 62.8894C236.124 62.2129 236.114 61.5347 236.058 60.8594C236.007 60.5223 235.993 60.1805 236.017 59.8404C236.032 59.6935 236.104 59.558 236.217 59.4628C236.243 59.4473 236.272 59.4375 236.302 59.434C236.332 59.4305 236.363 59.4334 236.392 59.4425C236.426 59.4508 236.459 59.4645 236.489 59.4831C236.51 59.4985 236.525 59.5197 236.534 59.544C236.662 59.8732 236.756 60.2147 236.814 60.5631C236.888 60.9203 236.949 61.2898 237.006 61.6593C237.063 62.0287 237.115 62.4022 237.16 62.7798C237.195 63.1695 237.258 63.5561 237.347 63.9369C237.395 64.1316 237.456 64.3229 237.53 64.5094C237.572 64.6138 237.629 64.7111 237.701 64.7976C237.728 64.8336 237.766 64.8611 237.808 64.8769C237.85 64.8927 237.897 64.8962 237.941 64.887C237.982 64.8734 238.019 64.8495 238.048 64.8175C238.078 64.7854 238.098 64.7465 238.108 64.7043C238.156 64.4968 238.171 64.2831 238.152 64.0709C238.152 63.8679 238.128 63.6649 238.108 63.47C238.079 63.129 238.047 62.792 238.034 62.4591C238.024 62.2955 238.024 62.1314 238.034 61.9678C238.043 61.8954 238.06 61.8244 238.087 61.7567C238.096 61.7344 238.108 61.7138 238.124 61.6958H238.177C238.445 61.5862 238.535 61.9597 238.608 62.2601C238.681 62.5606 238.71 62.9016 238.775 63.2224C238.88 63.8598 239.019 64.4972 239.088 65.1062C239.135 65.3978 239.124 65.6958 239.055 65.9832C238.958 66.2755 238.86 66.5637 238.766 66.852V66.8804V66.9048C239.243 68.8994 239.85 70.8605 240.584 72.7755C241.227 74.5092 241.873 76.0235 242.439 77.2415C243.004 78.4595 243.516 79.4136 243.866 80.0551L244.273 80.7819C244.317 80.8685 244.37 80.9501 244.431 81.0255C244.397 80.9353 244.355 80.8483 244.305 80.7656L243.899 80.0226C243.565 79.369 243.085 78.3986 242.532 77.1806C241.979 75.9626 241.353 74.4483 240.727 72.7146C240.01 70.8025 239.415 68.8471 238.945 66.8601V66.917C239.039 66.6328 239.132 66.3445 239.23 66.0562C239.315 65.7399 239.331 65.4092 239.279 65.0859C239.206 64.4485 239.071 63.8314 238.966 63.1899C238.905 62.8732 238.864 62.5484 238.799 62.2155C238.795 62.0445 238.766 61.8749 238.714 61.712C238.667 61.613 238.588 61.5328 238.49 61.4847C238.386 61.4506 238.273 61.4506 238.169 61.4847H238.104C238.069 61.4957 238.037 61.5137 238.01 61.5375C237.965 61.5757 237.93 61.6245 237.908 61.6796C237.871 61.7674 237.848 61.8606 237.839 61.9556C237.827 62.1314 237.827 62.3077 237.839 62.4834C237.839 62.8245 237.888 63.1655 237.917 63.5066C237.917 63.7055 237.949 63.9126 237.957 64.0953C237.973 64.2784 237.964 64.4629 237.929 64.6434C237.929 64.684 237.896 64.6758 237.929 64.6961L237.904 64.6718C237.853 64.6055 237.811 64.5315 237.782 64.4525C237.711 64.2769 237.653 64.0965 237.607 63.9126C237.518 63.5428 237.457 63.1669 237.424 62.7879C237.381 62.4063 237.328 62.0287 237.266 61.6552C237.209 61.2817 237.144 60.9163 237.071 60.5509C237.009 60.179 236.906 59.8153 236.762 59.4669C236.734 59.4087 236.69 59.3594 236.636 59.3248C236.588 59.2973 236.538 59.2755 236.485 59.2598C236.427 59.2446 236.367 59.2411 236.307 59.2495C236.248 59.2578 236.191 59.2779 236.139 59.3085C236.056 59.3711 235.986 59.4503 235.934 59.5411C235.882 59.6319 235.85 59.7324 235.838 59.8363C235.812 60.0208 235.812 60.2081 235.838 60.3925C235.838 60.5671 235.879 60.7376 235.891 60.9082C235.948 61.5725 235.96 62.2398 235.928 62.9057C235.918 63.0639 235.898 63.2212 235.867 63.3766C235.855 63.4492 235.835 63.5201 235.806 63.5878C235.795 63.6145 235.78 63.6393 235.761 63.6608C235.761 63.6974 235.733 63.6608 235.737 63.7096C235.737 63.669 235.737 63.7096 235.737 63.6568C235.719 63.6294 235.703 63.6009 235.688 63.5715C235.66 63.5066 235.635 63.4335 235.611 63.3645C235.566 63.2183 235.533 63.0681 235.501 62.9219C235.289 61.8102 235.135 60.6881 235.041 59.5602C235.054 59.3561 235.03 59.1514 234.972 58.9553C234.945 58.853 234.89 58.7602 234.814 58.6873C234.774 58.649 234.727 58.6191 234.675 58.5995C234.623 58.58 234.568 58.5712 234.513 58.5737H234.537C234.468 58.5636 234.398 58.574 234.335 58.6037C234.272 58.6333 234.219 58.6807 234.183 58.7401C234.123 58.837 234.081 58.9445 234.061 59.0568C234.027 59.2581 234.008 59.4617 234.004 59.6658C234.004 60.0718 234.004 60.425 234.004 60.7701C234.043 61.3534 234.118 61.9337 234.228 62.5078C234.297 62.9788 234.35 63.3442 234.374 63.5918C234.382 63.6352 234.375 63.6799 234.353 63.7184C234.332 63.7569 234.298 63.7868 234.257 63.8029C234.135 63.8151 234.098 63.8192 234.102 63.8232Z"
        fill="#A36957" />
    <path
        d="M207.616 84.5414C206.822 84.5245 206.03 84.616 205.261 84.8134C203.159 85.3656 199.535 87.558 199.385 90.266H202.02C202.02 90.266 200.544 93.4003 200.975 93.108C202.101 92.3529 204.338 90.0833 204.338 90.0833L207.616 84.5414Z"
        fill="#B78876" />
    <path
        d="M243.536 37.352C243.475 37.352 243.239 35.184 243.004 32.48C242.768 29.7761 242.621 27.608 242.678 27.608C242.735 27.608 242.975 29.7761 243.211 32.48C243.447 35.184 243.593 37.352 243.536 37.352Z"
        fill="#263238" />
    <path
        d="M255.09 27.7745C255.135 27.807 253.357 30.3851 251.117 33.5316C248.876 36.6781 247.018 39.2156 246.969 39.1668C246.92 39.1181 248.701 36.5563 250.942 33.4098C253.183 30.2633 255.041 27.742 255.09 27.7745Z"
        fill="#263238" />
    <path
        d="M259.889 39.4592C259.889 39.516 257.823 39.991 255.253 40.5188C252.682 41.0466 250.584 41.4283 250.572 41.3714C250.56 41.3146 252.634 40.8396 255.208 40.3118C257.782 39.784 259.86 39.4023 259.889 39.4592Z"
        fill="#263238" />
    <path
        d="M121.593 95.2233L107.197 169.034L105.327 178.697L201.3 178.234C205.611 178.214 209.433 174.393 210.812 168.717L227.835 99.0356C228.888 94.7279 226.578 90.2457 223.309 90.2498L126.148 90.3513C124.033 90.3472 122.138 92.3447 121.593 95.2233Z"
        fill="#22A770" />
    <g opacity="0.5">
        <path
            d="M121.593 95.2233L107.197 169.034L105.327 178.697L201.3 178.234C205.611 178.214 209.433 174.393 210.812 168.717L227.835 99.0356C228.888 94.7279 226.578 90.2457 223.309 90.2498L126.148 90.3513C124.033 90.3472 122.138 92.3447 121.593 95.2233Z"
            fill="black" />
    </g>
    <path
        d="M192.105 164.024L181.939 82.2515C181.532 78.902 178.852 76.4011 175.692 76.4133L153.407 76.4823C152.579 76.4916 151.761 76.6692 151.004 77.0042C150.247 77.3393 149.566 77.8247 149.003 78.4311L138.429 89.6651L76.4534 89.998C72.6673 90.0183 69.7555 93.5992 70.2557 97.6186L79.6945 173.196C80.1012 176.541 82.7811 179.038 85.9327 179.034L193.964 178.819C205.993 179.066 207.144 175.522 207.144 175.522C193.333 178.571 192.105 164.044 192.105 164.024Z"
        fill="#22A770" />
    <g opacity="0.5">
        <path d="M145.522 147.67L141.878 151.576L113.818 126.372L117.462 122.466L145.522 147.67Z"
            fill="white" />
        <path d="M140.353 121.601L144.379 125.219L118.991 152.441L114.96 148.823L140.353 121.601Z"
            fill="white" />
    </g>
    <path
        d="M207.531 42.1347C207.399 42.0793 207.286 41.9877 207.204 41.8705C207.123 41.7533 207.077 41.6154 207.071 41.4729L206.908 37.7052C206.903 37.5882 206.924 37.4714 206.972 37.3641C207.019 37.2568 207.09 37.162 207.181 37.0872C207.271 37.0123 207.378 36.9595 207.492 36.9329C207.606 36.9063 207.725 36.9066 207.84 36.9338C208.154 37.0017 208.48 37.0046 208.796 36.9425C209.112 36.8803 209.412 36.7544 209.678 36.5725C209.922 36.4179 210.133 36.215 210.296 35.9762C210.458 35.7374 210.571 35.4678 210.625 35.184C210.662 34.8966 210.641 34.6048 210.563 34.3259C210.484 34.0469 210.351 33.7865 210.17 33.56C209.979 33.3023 209.74 33.0847 209.465 32.9196C209.19 32.7545 208.885 32.6451 208.568 32.5978C207.928 32.5622 207.294 32.7433 206.77 33.1117C206.246 33.4802 205.862 34.0143 205.68 34.6278C205.619 34.8136 205.489 34.969 205.317 35.0614C205.144 35.1538 204.942 35.1761 204.754 35.1238C204.565 35.0715 204.404 34.9485 204.304 34.7804C204.204 34.6124 204.172 34.4123 204.216 34.2218C204.493 33.2569 205.094 32.4165 205.918 31.842C206.742 31.2675 207.74 30.9939 208.742 31.0671C209.264 31.1366 209.767 31.31 210.22 31.5771C210.674 31.8442 211.069 32.1996 211.382 32.6221C211.686 33.0137 211.909 33.4623 212.037 33.9414C212.165 34.4205 212.195 34.9204 212.126 35.4113C212.033 35.9016 211.841 36.3678 211.562 36.7812C211.282 37.1945 210.92 37.5463 210.499 37.8149C209.889 38.2249 209.176 38.4569 208.441 38.4848L208.568 41.3917C208.572 41.5194 208.545 41.6463 208.487 41.7605C208.43 41.8747 208.344 41.9726 208.239 42.0451C208.133 42.1175 208.011 42.1623 207.884 42.1751C207.757 42.1879 207.628 42.1684 207.51 42.1185L207.531 42.1347Z"
        fill="#22A770" />
    <path
        d="M208.645 43.6775C208.653 43.8001 208.625 43.9225 208.564 44.0291C208.503 44.1358 208.412 44.222 208.301 44.2768C208.191 44.3316 208.067 44.3525 207.945 44.3368C207.823 44.3212 207.708 44.2698 207.615 44.1891C207.523 44.1083 207.456 44.0019 207.424 43.8833C207.391 43.7647 207.395 43.6392 207.434 43.5227C207.474 43.4062 207.547 43.304 207.644 43.2289C207.741 43.1538 207.859 43.1093 207.982 43.101C208.063 43.0949 208.145 43.105 208.223 43.1308C208.301 43.1566 208.372 43.1974 208.434 43.251C208.496 43.3047 208.546 43.37 208.582 43.4432C208.618 43.5164 208.64 43.596 208.645 43.6775Z"
        fill="#22A770" />
    <path
        d="M194.464 36.8202C194.482 36.7398 194.494 36.6585 194.501 36.5766C194.501 36.3979 194.545 36.1706 194.578 35.8498C194.618 35.456 194.685 35.0654 194.777 34.6805C194.83 34.4532 194.859 34.2015 194.94 33.9457C195.021 33.6899 195.103 33.4138 195.192 33.1337C195.663 31.7457 196.349 30.4401 197.225 29.2645C198.374 27.7423 199.83 26.478 201.499 25.5537C202.45 25.0188 203.462 24.6016 204.513 24.3113C205.647 24.011 206.816 23.8582 207.99 23.8566C208.608 23.8467 209.226 23.8792 209.84 23.954C210.153 23.9865 210.462 24.0677 210.776 24.1205C211.092 24.1746 211.405 24.2506 211.711 24.3478C212.993 24.7054 214.212 25.2573 215.326 25.984C217.804 27.5882 219.691 29.9539 220.702 32.7236C221.247 34.2072 221.522 35.7759 221.516 37.3561C221.532 38.9839 221.244 40.6005 220.666 42.1225L220.483 42.5854L220.458 42.6463L220.483 42.7072C221.503 45.0498 222.516 47.3518 223.472 49.5807L223.642 49.3859L217.542 47.0514L217.469 47.0229L217.408 47.0798C215.795 48.6407 213.819 49.7789 211.658 50.3927C209.811 50.9003 207.878 51.0111 205.985 50.7179C204.093 50.4246 202.284 49.734 200.678 48.6916C199.363 47.8306 198.204 46.7529 197.25 45.5045C195.868 43.6823 194.972 41.5392 194.647 39.2765C194.598 38.8705 194.558 38.5294 194.521 38.2209C194.484 37.9123 194.521 37.6606 194.501 37.4454C194.48 37.2302 194.501 37.0881 194.501 36.9704C194.521 36.9673 194.539 36.9567 194.552 36.9407C194.565 36.9247 194.571 36.9044 194.57 36.884C194.568 36.8636 194.559 36.8445 194.544 36.8306C194.529 36.8166 194.509 36.8089 194.489 36.8089C194.468 36.8089 194.448 36.8166 194.433 36.8306C194.418 36.8445 194.409 36.8636 194.407 36.884C194.406 36.9044 194.412 36.9247 194.425 36.9407C194.438 36.9567 194.456 36.9673 194.476 36.9704C194.476 37.0881 194.476 37.2465 194.476 37.4454C194.476 37.6443 194.476 37.9204 194.476 38.229C194.476 38.5375 194.545 38.8908 194.586 39.2927C194.72 40.2692 194.953 41.2296 195.282 42.1591C195.747 43.3864 196.373 44.5469 197.144 45.6101C198.102 46.8807 199.269 47.9791 200.597 48.8581C202.222 49.9265 204.057 50.6376 205.978 50.9442C207.9 51.2508 209.865 51.1459 211.743 50.6363C213.931 50.0162 215.931 48.8671 217.567 47.2909L217.433 47.3193L223.533 49.666L223.838 49.7837L223.704 49.4711C222.736 47.2422 221.735 44.9442 220.719 42.5975V42.7153L220.906 42.2403C221.499 40.6851 221.794 39.0324 221.776 37.3683C221.789 35.7546 221.513 34.1515 220.963 32.6343C219.929 29.8094 218 27.3987 215.469 25.7688C214.326 25.0251 213.075 24.4635 211.76 24.1042C211.449 24.0059 211.13 23.9313 210.808 23.8809C210.491 23.8241 210.178 23.7429 209.861 23.7145C209.239 23.6374 208.612 23.6021 207.986 23.6089C206.793 23.614 205.607 23.775 204.456 24.088C203.391 24.39 202.365 24.818 201.402 25.3628C199.716 26.3098 198.251 27.6038 197.103 29.1589C196.23 30.354 195.553 31.6807 195.099 33.089C195.013 33.3813 194.932 33.6615 194.859 33.901C194.794 34.1458 194.742 34.3938 194.704 34.644C194.617 35.0315 194.56 35.4251 194.533 35.8214C194.509 36.134 194.493 36.3736 194.48 36.5522C194.463 36.6404 194.458 36.7305 194.464 36.8202Z"
        fill="#263238" />
</svg>
