<svg fill="none" height="24" viewBox="0 0 24 24" width="24" xmlns="http://www.w3.org/2000/svg">
    <g clip-path="url(#clip0_148_3445)">
        <path
            d="M10.2129 21.333C10.2714 21.7556 10.4808 22.1428 10.8024 22.423C11.1241 22.7032 11.5363 22.8576 11.9629 22.8576C12.3895 22.8576 12.8017 22.7032 13.1234 22.423C13.445 22.1428 13.6544 21.7556 13.7129 21.333H10.2129Z"
            fill="black" />
        <path d="M12 6.44V9.77" stroke="#292D32" stroke-linecap="round" stroke-miterlimit="10"
            stroke-width="1.5" />
        <path
            d="M12.0199 2C8.3399 2 5.3599 4.98 5.3599 8.66V10.76C5.3599 11.44 5.0799 12.46 4.7299 13.04L3.4599 15.16C2.6799 16.47 3.2199 17.93 4.6599 18.41C9.4399 20 14.6099 20 19.3899 18.41C20.7399 17.96 21.3199 16.38 20.5899 15.16L19.3199 13.04C18.9699 12.46 18.6899 11.43 18.6899 10.76V8.66C18.6799 5 15.6799 2 12.0199 2Z"
            stroke="#292D32" stroke-linecap="round" stroke-miterlimit="10" stroke-width="1.5" />
        <path
            d="M15.3299 18.82C15.3299 20.65 13.8299 22.15 11.9999 22.15C11.0899 22.15 10.2499 21.77 9.64992 21.17C9.04992 20.57 8.66992 19.73 8.66992 18.82"
            stroke="#292D32" stroke-miterlimit="10" stroke-width="1.5" />
    </g>
    <defs>
        <clipPath id="clip0_148_3445">
            <rect fill="white" height="24" width="24" />
        </clipPath>
    </defs>
</svg>
