<svg fill="none" height="319" viewBox="0 0 319 319" width="319" xmlns="http://www.w3.org/2000/svg">
    <path d="M59.9609 178.986L16.5521 187.11L23.0469 221.815L66.4556 213.691L59.9609 178.986Z"
        fill="#F5F5F5" />
    <path
        d="M59.972 178.997L59.7615 179.048L59.1235 179.17L56.7693 179.629L47.8819 181.332L16.588 187.266L16.7092 187.087C18.6232 197.416 20.869 209.258 23.2232 221.788L23.0254 221.648L66.4094 213.558L66.301 213.724C64.387 203.273 62.7792 194.616 61.6627 188.548C61.114 185.518 60.6802 183.138 60.3867 181.53C60.24 180.72 60.1315 180.101 60.055 179.667C59.9784 179.233 59.9465 179.029 59.9465 179.029C59.9465 179.029 59.9975 179.233 60.0741 179.667L60.4378 181.498C60.7504 183.125 61.2034 185.492 61.7839 188.516C62.9387 194.596 64.5848 203.28 66.5753 213.756L66.6072 213.889L66.4669 213.921L23.0573 222.024L22.8915 222.056L22.8596 221.884C20.5245 209.353 18.3106 197.512 16.3839 187.176V187.03L16.537 186.998L47.9521 181.192L56.8139 179.571L59.1554 179.15L59.7487 179.048L59.972 178.997Z"
        fill="#E0E0E0" />
    <path d="M58.8152 181.46L18.4542 189.013L24.131 219.346L64.4919 211.793L58.8152 181.46Z"
        fill="#EBEBEB" />
    <path
        d="M24.1164 219.357L34.6881 197.863L45.6234 208.026L50.3701 200.613L64.4763 211.81L24.1164 219.357Z"
        fill="#E0E0E0" />
    <path
        d="M46.6952 193.231C46.8129 193.86 46.7415 194.509 46.4901 195.097C46.2387 195.686 45.8186 196.186 45.2828 196.536C44.747 196.885 44.1197 197.068 43.4801 197.061C42.8405 197.054 42.2173 196.857 41.6894 196.496C41.1615 196.135 40.7525 195.625 40.5141 195.032C40.2757 194.438 40.2187 193.787 40.3503 193.161C40.4818 192.535 40.7959 191.962 41.253 191.515C41.7101 191.067 42.2896 190.765 42.9183 190.647C43.3359 190.569 43.765 190.573 44.1809 190.661C44.5968 190.748 44.9914 190.916 45.3422 191.156C45.693 191.396 45.993 191.703 46.2251 192.059C46.4573 192.415 46.6171 192.813 46.6952 193.231Z"
        fill="#E0E0E0" />
    <path d="M124.999 33.5889L102.775 156.367L193.68 172.822L215.904 50.0437L124.999 33.5889Z"
        fill="#FAFAFA" />
    <path
        d="M193.678 172.828C193.678 172.828 193.71 172.624 193.773 172.241L194.08 170.512C194.348 168.993 194.75 166.748 195.266 163.832C196.319 157.988 197.85 149.452 199.79 138.644L215.74 50.0256L215.867 50.2042L124.984 33.763L125.182 33.6226C116.888 79.4246 109.187 121.852 102.922 156.393L102.814 156.233L168.866 168.266L187.196 171.622L192.019 172.515C193.11 172.713 193.678 172.828 193.678 172.828L192.044 172.547L187.24 171.692L168.911 168.432L102.75 156.527H102.616V156.393C108.862 121.839 116.537 79.4119 124.818 33.6098V33.444H124.991L215.931 49.898L216.084 49.9299V50.0766C209.468 86.4426 203.879 117.15 199.949 138.759L195.356 163.896C194.82 166.799 194.411 169 194.131 170.544C193.99 171.29 193.888 171.858 193.818 172.247L193.678 172.828Z"
        fill="#E0E0E0" />
    <path d="M171.275 53.5504L132.678 46.564L126.591 80.1889L165.188 87.1753L171.275 53.5504Z"
        fill="#E0E0E0" />
    <path d="M202.059 59.1227L177.349 54.6499L176.555 59.0383L201.265 63.511L202.059 59.1227Z"
        fill="#E0E0E0" />
    <path d="M196.362 99.8952L125.835 87.1291L125.04 91.5174L195.567 104.283L196.362 99.8952Z"
        fill="#E0E0E0" />
    <path d="M194.969 107.619L124.443 94.8529L123.648 99.2412L194.175 112.007L194.969 107.619Z"
        fill="#E0E0E0" />
    <path d="M193.572 115.343L123.045 102.577L122.251 106.965L192.778 119.731L193.572 115.343Z"
        fill="#E0E0E0" />
    <path d="M192.167 123.066L121.641 110.3L120.846 114.688L191.373 127.454L192.167 123.066Z"
        fill="#E0E0E0" />
    <path d="M190.77 130.783L120.243 118.017L119.449 122.405L189.976 135.171L190.77 130.783Z"
        fill="#E0E0E0" />
    <path d="M185.978 157.266L115.451 144.5L114.656 148.888L185.183 161.654L185.978 157.266Z"
        fill="#E0E0E0" />
    <path d="M157.567 132.752L118.85 125.744L118.056 130.133L156.772 137.141L157.567 132.752Z"
        fill="#E0E0E0" />
    <path d="M200.777 66.2262L176.067 61.7534L175.272 66.1418L199.982 70.6145L200.777 66.2262Z"
        fill="#E0E0E0" />
    <path d="M198.555 73.4192L173.945 68.8991L173.143 73.2696L197.752 77.7897L198.555 73.4192Z"
        fill="#E0E0E0" />
    <path d="M188.731 78.7064L173.494 75.9484L172.7 80.3367L187.936 83.0947L188.731 78.7064Z"
        fill="#E0E0E0" />
    <path
        d="M234.784 33.0229L226.943 33.3419L226.094 35.5366C225.852 36.1083 225.722 36.7213 225.712 37.3421C225.704 37.6166 225.772 37.8879 225.91 38.1257C226.047 38.3634 226.248 38.5582 226.49 38.6883C227.199 38.9143 227.941 39.0158 228.685 38.9882V39.6262L221.386 39.8941V39.2561C222.128 39.1277 222.803 38.7495 223.3 38.1843C224.055 37.1382 224.651 35.9857 225.067 34.7646L232.232 16.7603H232.545L241.279 34.6243C242.129 36.3256 242.802 37.3889 243.295 37.8143C243.752 38.1658 244.314 38.3524 244.89 38.3438V38.9435L234.152 39.3774V38.7713H234.599C235.228 38.8006 235.852 38.6501 236.398 38.3374C236.514 38.2488 236.606 38.1319 236.664 37.9978C236.722 37.8638 236.745 37.7171 236.73 37.5718C236.72 37.367 236.679 37.1648 236.609 36.9721C236.609 36.8764 236.398 36.4681 236.066 35.7663L234.784 33.0229ZM234.178 31.8362L230.567 24.3206L227.466 32.1042L234.178 31.8362Z"
        fill="#E0E0E0" />
    <path d="M249.632 79.3806L213.771 91.3584L223.348 120.03L259.208 108.052L249.632 79.3806Z"
        fill="#F5F5F5" />
    <path d="M248.941 81.6141L215.604 92.7491L223.974 117.808L257.311 106.673L248.941 81.6141Z"
        fill="#EBEBEB" />
    <path
        d="M223.976 117.819L230.42 98.3541L240.883 105.691L244.035 98.8453L257.312 106.686L223.976 117.819Z"
        fill="#E0E0E0" />
    <path
        d="M240.054 93.014C240.228 93.5334 240.243 94.0927 240.099 94.6211C239.955 95.1495 239.657 95.6233 239.244 95.9825C238.831 96.3418 238.32 96.5703 237.777 96.6393C237.233 96.7082 236.682 96.6144 236.191 96.3699C235.701 96.1253 235.295 95.7408 235.023 95.2652C234.752 94.7895 234.627 94.244 234.666 93.6977C234.704 93.1513 234.904 92.6286 235.24 92.1958C235.575 91.7629 236.032 91.4393 236.551 91.2659C236.896 91.1499 237.26 91.1032 237.623 91.1283C237.986 91.1535 238.34 91.2501 238.666 91.4125C238.991 91.5749 239.281 91.8 239.519 92.0748C239.758 92.3497 239.939 92.6688 240.054 93.014Z"
        fill="#E0E0E0" />
    <path d="M250.627 46.0371L241.849 90.8602L297.911 101.839L306.689 57.0157L250.627 46.0371Z"
        fill="#F5F5F5" />
    <path
        d="M306.699 57.0181L306.425 56.9734L305.634 56.833L302.584 56.2525L291.1 54.045L250.606 46.1912L250.785 46.07C248.176 59.4106 245.19 74.7034 242.025 90.8895L241.891 90.6853L297.946 101.704L297.78 101.812C300.453 88.3247 302.667 77.1406 304.218 69.3251C305.002 65.4141 305.615 62.3454 306.036 60.2463C306.246 59.2 306.406 58.4025 306.521 57.8475C306.636 57.2924 306.699 57.0181 306.699 57.0181C306.699 57.0181 306.655 57.2924 306.553 57.8283C306.451 58.3642 306.304 59.1681 306.106 60.2017C305.704 62.2943 305.117 65.3567 304.371 69.2613C302.852 77.1087 300.677 88.3311 298.061 101.869L298.029 102.01H297.895L241.802 91.0298L241.636 90.9979L241.668 90.8321C244.858 74.6524 247.85 59.3595 250.466 46.0189L250.498 45.8658L250.645 45.8977L291.228 53.911L302.661 56.195L305.679 56.833L306.444 56.9925L306.699 57.0181Z"
        fill="#E0E0E0" />
    <path d="M252.014 49.2388L244.342 88.4143L296.465 98.6217L304.137 59.4461L252.014 49.2388Z"
        fill="#EBEBEB" />
    <path
        d="M244.341 88.4204L267.316 67.6344L275.61 85.0773L284.854 78.4293L296.466 98.6284L244.341 88.4204Z"
        fill="#E0E0E0" />
    <path
        d="M283.967 67.7939C283.809 68.6066 283.414 69.3542 282.831 69.9422C282.248 70.5301 281.504 70.9318 280.692 71.0966C279.881 71.2614 279.039 71.1818 278.272 70.868C277.506 70.5541 276.85 70.02 276.388 69.3333C275.925 68.6466 275.677 67.8381 275.674 67.0101C275.671 66.1822 275.914 65.3719 276.371 64.6819C276.829 63.9919 277.481 63.4531 278.245 63.1337C279.009 62.8143 279.85 62.7287 280.663 62.8877C281.202 62.9923 281.715 63.2023 282.174 63.5057C282.632 63.809 283.026 64.1997 283.333 64.6554C283.639 65.1111 283.854 65.6229 283.963 66.1614C284.071 66.6999 284.073 67.2547 283.967 67.7939Z"
        fill="#E0E0E0" />
    <path
        d="M34.9241 21.188L37.8207 54.9892L50.9316 58.5429L76.3622 55.5889L72.7831 17.5386L34.9241 21.188Z"
        fill="#F5F5F5" />
    <path
        d="M41.8209 51.9523L37.827 54.9892C39.3451 56.3054 41.1201 57.2917 43.0395 57.8857C45.6054 58.5996 48.2842 58.8162 50.9315 58.5237C50.9315 58.5237 44.8769 57.4966 41.8209 51.9523Z"
        fill="#EBEBEB" />
    <path
        d="M69.7206 29.986C69.7206 30.0498 63.2896 30.7197 55.3465 31.4917C47.4034 32.2637 40.9468 32.8379 40.9404 32.7677C40.9341 32.6975 47.3715 32.0148 55.321 31.262C63.2704 30.5092 69.7142 29.9031 69.7206 29.986Z"
        fill="#E0E0E0" />
    <path
        d="M70.0971 35.1666C70.0971 35.2304 63.666 35.9066 55.7229 36.6786C47.7798 37.4506 41.3233 38.0184 41.3169 37.9546C41.3105 37.8908 47.7479 37.2145 55.6974 36.4426C63.6469 35.6706 70.0907 35.09 70.0971 35.1666Z"
        fill="#E0E0E0" />
    <path
        d="M70.7031 39.7538C70.7031 39.8176 64.2721 40.4939 56.329 41.2595C48.3859 42.0251 41.9357 42.6056 41.9293 42.5355C41.9229 42.4653 48.354 41.8018 56.3035 41.0298C64.2529 40.2578 70.6967 39.69 70.7031 39.7538Z"
        fill="#E0E0E0" />
    <path
        d="M71.1051 44.1879C71.1051 44.2453 64.6741 44.9216 56.7246 45.6936C48.7751 46.4655 42.3313 47.0397 42.325 46.9696C42.3186 46.8994 48.756 46.2295 56.7055 45.4639C64.655 44.6983 71.0988 44.1241 71.1051 44.1879Z"
        fill="#E0E0E0" />
    <path
        d="M309.041 293.416C309.041 293.506 241.796 293.582 158.868 293.582C75.9411 293.582 8.68317 293.506 8.68317 293.416C8.68317 293.327 75.9092 293.244 158.868 293.244C241.827 293.244 309.041 293.321 309.041 293.416Z"
        fill="#263238" />
    <path
        d="M26.7577 79.9733L53.6558 233.999L167.079 216.193L172.337 203.49L141.649 61.0694L35.3324 67.4111L26.7577 79.9733Z"
        fill="#E0E0E0" />
    <path d="M53.6558 233.999L61.7137 221.654L34.8156 67.6216L26.7577 79.9733L53.6558 233.999Z"
        fill="black" opacity="0.3" />
    <path d="M34.8157 67.6216L61.7138 221.654L172.337 203.49L144.386 51.997L34.8157 67.6216Z"
        fill="#FAFAFA" />
    <path
        d="M34.8157 67.628L144.367 51.8694H144.501V51.997C152.342 94.3028 162.052 146.74 172.502 203.458L172.534 203.63L172.362 203.662L170.537 203.962L61.7393 221.826H61.5862V221.673C45.7638 130.701 35.0517 68.9806 34.8157 67.628C35.0517 68.9869 45.8914 130.682 61.8669 221.628L61.6882 221.507L170.48 203.643L172.305 203.343L172.164 203.541C161.714 146.817 152.055 94.3793 144.252 52.0417L144.405 52.1501L34.8157 67.628Z"
        fill="#263238" />
    <path
        d="M123.51 140.568C124.882 130.246 117.626 120.767 107.305 119.395C96.9836 118.024 87.5045 125.279 86.1328 135.6C84.7611 145.922 92.0163 155.401 102.338 156.772C112.659 158.144 122.138 150.889 123.51 140.568Z"
        fill="#22A770" />
    <path
        d="M96.1721 143.027L95.3171 137.597L114.119 134.618L114.923 139.722C114.923 139.722 113.774 144.111 106.17 145.311C98.5646 146.51 96.1721 143.027 96.1721 143.027Z"
        fill="white" />
    <path d="M92.3505 137.629L105.768 140.015L117.405 133.47L103.968 131.345L92.3505 137.629Z"
        fill="white" />
    <path
        d="M129.89 84.9643L63.2234 95.4994C62.4055 95.6287 61.8472 96.3965 61.9765 97.2144L62.2015 98.6386C62.3308 99.4565 63.0986 100.015 63.9165 99.8855L130.583 89.3504C131.401 89.2211 131.959 88.4533 131.83 87.6354L131.605 86.2112C131.476 85.3933 130.708 84.8351 129.89 84.9643Z"
        fill="#E0E0E0" />
    <path
        d="M119.343 96.0537L77.0643 102.735C76.2464 102.864 75.6882 103.632 75.8174 104.45L76.0425 105.874C76.1717 106.692 76.9395 107.25 77.7574 107.121L120.036 100.44C120.854 100.311 121.412 99.5427 121.283 98.7248L121.058 97.3006C120.929 96.4827 120.161 95.9245 119.343 96.0537Z"
        fill="#E0E0E0" />
    <path
        d="M134.572 190.561L92.2928 197.242C91.4749 197.371 90.9167 198.139 91.0459 198.957L91.271 200.381C91.4002 201.199 92.168 201.757 92.9859 201.628L135.265 194.947C136.083 194.817 136.641 194.05 136.512 193.232L136.287 191.808C136.157 190.99 135.389 190.431 134.572 190.561Z"
        fill="#E0E0E0" />
    <path
        d="M166.639 207.771L166.103 207.873L164.521 208.147L158.403 209.168L135.683 212.894L58.932 225.367L58.7662 225.399V225.233C57.6943 219.14 56.5651 212.76 55.4167 206.259C49.2408 171.329 43.6775 139.722 39.6517 116.824C37.6547 105.378 36.0406 96.1211 34.9177 89.7156C34.369 86.5256 33.9416 84.031 33.6417 82.3403C33.5014 81.4981 33.3929 80.8601 33.3163 80.4263C33.2398 79.9924 33.2206 79.7883 33.2206 79.7883C33.2206 79.7883 33.2717 80.0116 33.3546 80.4263C33.4376 80.841 33.5524 81.5045 33.7055 82.3403C34.0118 84.031 34.4584 86.5128 35.0389 89.7028C36.181 96.0828 37.8334 105.359 39.875 116.792C43.9263 139.684 49.5279 171.29 55.7101 206.214C56.8585 212.709 57.9814 219.096 59.0596 225.188L58.8619 225.048L135.639 212.684L158.371 209.06L164.495 208.096L166.084 207.854L166.639 207.771Z"
        fill="#263238" />
    <path
        d="M158.224 213.564L157.72 213.666L156.227 213.928L150.447 214.91L128.959 218.496L56.0356 230.567H55.8697V230.407L51.678 207.65C45.432 173.198 39.7793 142.032 35.6834 119.459C33.6545 108.179 32.0085 99.0431 30.8728 92.7269C30.3178 89.5752 29.8776 87.1253 29.5968 85.4537C29.4565 84.6307 29.3416 83.9991 29.2715 83.5397C29.2013 83.0804 29.1694 82.9017 29.1694 82.9017C29.1694 82.9017 29.2204 83.1123 29.3034 83.5397L29.667 85.4537C29.9733 87.1189 30.4326 89.5624 31.0196 92.7078L35.9322 119.421C40.0537 141.993 45.7446 173.16 52.0289 207.592C53.4453 215.395 54.8361 223.032 56.1695 230.375L55.9781 230.241L128.908 218.285L150.409 214.795L156.195 213.87L157.694 213.641L158.224 213.564Z"
        fill="#263238" />
    <path d="M37.4889 132.851L34.9943 136.373L41.0489 172.668L44.6536 173.893L37.4889 132.851Z"
        fill="#263238" />
    <path d="M54.765 129.828L37.4944 132.846L44.6644 173.885L61.935 170.868L54.765 129.828Z"
        fill="#263238" />
    <path
        d="M55.3156 128.237L54.1906 128.433C53.5484 128.545 53.1187 129.157 53.2308 129.799L60.4857 171.368C60.5978 172.01 61.2092 172.44 61.8514 172.327L62.9764 172.131C63.6185 172.019 64.0482 171.408 63.9362 170.765L56.6812 129.196C56.5691 128.554 55.9577 128.125 55.3156 128.237Z"
        fill="#263238" />
    <path
        d="M34.503 162.543C32.5893 162.536 30.743 161.836 29.3052 160.573C27.8675 159.309 26.9354 157.569 26.6812 155.672C26.4618 154.051 26.7499 152.403 27.506 150.953C28.2621 149.503 29.4489 148.323 30.9032 147.575C32.3575 146.827 34.0078 146.548 35.627 146.777C37.2462 147.006 38.7548 147.731 39.9452 148.852L50.7274 142.727C50.9338 142.61 51.1652 142.544 51.4023 142.535C51.6394 142.527 51.8751 142.575 52.0896 142.676C52.3042 142.777 52.4912 142.929 52.6349 143.118C52.7787 143.306 52.875 143.527 52.9157 143.761L55.4677 158.364C55.5097 158.597 55.4953 158.836 55.4256 159.061C55.3559 159.287 55.2331 159.493 55.0673 159.661C54.9016 159.829 54.6979 159.955 54.4734 160.028C54.2488 160.101 54.01 160.119 53.777 160.081L41.604 158.167C40.9449 159.486 39.9315 160.595 38.6772 161.37C37.423 162.146 35.9776 162.556 34.503 162.556V162.543ZM34.503 147.99C34.1827 147.988 33.8627 148.012 33.546 148.061C31.8297 148.34 30.2872 149.27 29.2401 150.658C28.1929 152.047 27.7219 153.786 27.9253 155.512C28.1185 156.957 28.7818 158.297 29.8127 159.327C30.8436 160.357 32.1848 161.018 33.6292 161.21C35.0737 161.402 36.541 161.112 37.8047 160.387C39.0685 159.662 40.0583 158.541 40.6215 157.197L40.8129 156.737L53.9812 158.862C54.0124 158.869 54.0449 158.867 54.0751 158.857C54.1054 158.847 54.1325 158.829 54.1534 158.805C54.1761 158.783 54.1931 158.755 54.2031 158.725C54.2131 158.695 54.2157 158.664 54.2109 158.632L51.6589 144.022C51.6527 143.99 51.6391 143.96 51.6192 143.935C51.5992 143.909 51.5734 143.889 51.544 143.875C51.5154 143.861 51.4837 143.853 51.4515 143.853C51.4194 143.853 51.3877 143.861 51.359 143.875L39.7155 150.46L39.371 150.096C38.7473 149.437 37.9954 148.913 37.1615 148.555C36.3277 148.197 35.4295 148.014 34.5222 148.016L34.503 147.99Z"
        fill="#455A64" />
    <path
        d="M60.4058 170.825C60.3635 170.691 60.3336 170.555 60.3165 170.416C60.2591 170.11 60.1889 169.721 60.0932 169.242C59.9018 168.177 59.6339 166.69 59.3021 164.904C58.6641 161.21 57.7454 156.17 56.7501 150.6C55.7548 145.03 54.9063 139.977 54.2683 136.27C53.9684 134.471 53.726 132.997 53.5537 131.926C53.4772 131.441 53.4197 131.045 53.3751 130.739C53.3452 130.603 53.3323 130.464 53.3368 130.324C53.3802 130.456 53.4143 130.59 53.4389 130.726C53.5027 131.032 53.5856 131.422 53.6813 131.9C53.8855 132.966 54.1662 134.452 54.5043 136.232C55.187 139.888 56.0993 144.947 57.0563 150.536C58.0133 156.125 58.9065 161.197 59.5063 164.866C59.8125 166.703 60.0422 168.19 60.1953 169.217C60.2655 169.734 60.3293 170.129 60.3548 170.41C60.3888 170.545 60.406 170.685 60.4058 170.825Z"
        fill="#455A64" />
    <path
        d="M44.3091 174.034C44.2713 173.897 44.2414 173.759 44.2198 173.619C44.1624 173.319 44.0922 172.93 44.0029 172.445C43.8051 171.38 43.5371 169.893 43.2054 168.113C42.5674 164.413 41.6487 159.372 40.6534 153.803C39.6581 148.233 38.8159 143.18 38.1716 139.48C37.8717 137.674 37.6293 136.2 37.457 135.135C37.3804 134.644 37.323 134.254 37.2784 133.948C37.2484 133.81 37.2356 133.668 37.2401 133.527C37.2884 133.66 37.3247 133.796 37.3485 133.935C37.406 134.242 37.4889 134.631 37.5846 135.109C37.7888 136.175 38.0695 137.661 38.4076 139.435C39.0903 143.097 40.0026 148.15 40.9596 153.745C41.9166 159.34 42.8098 164.4 43.4159 168.068C43.7158 169.906 43.9518 171.392 44.0986 172.426C44.1688 172.943 44.2326 173.338 44.2581 173.613C44.2921 173.75 44.3093 173.892 44.3091 174.034Z"
        fill="#455A64" />
    <path
        d="M117.392 133.47C117.114 133.682 116.82 133.872 116.512 134.037L114.049 135.486C111.956 136.698 109.053 138.35 105.838 140.162L105.78 140.194H105.723H105.589C101.921 139.556 98.571 138.918 96.2104 138.478L93.3713 137.923C93.0199 137.869 92.674 137.783 92.3378 137.668C92.6932 137.684 93.047 137.724 93.3969 137.789L96.2487 138.242C98.6604 138.637 101.991 139.212 105.653 139.862H105.78H105.666C108.887 138.057 111.81 136.436 113.96 135.275L116.48 133.923C116.769 133.744 117.075 133.592 117.392 133.47Z"
        fill="#263238" />
    <path
        d="M77.2039 82.3923L76.906 80.5493L85.5892 79.146L85.8871 80.989L82.6502 81.5121L84.0611 90.2417L81.8516 90.5988L80.4407 81.8692L77.2039 82.3923ZM88.7279 89.4875L87.0192 78.9149L89.2545 78.5536L89.9595 82.9159L94.4973 82.1825L93.7923 77.8202L96.0225 77.4598L97.7312 88.0324L95.501 88.3929L94.7952 84.0255L90.2574 84.7588L90.9632 89.1262L88.7279 89.4875ZM99.5741 87.7346L97.8654 77.162L104.99 76.0106L105.287 77.8536L100.399 78.6437L100.806 81.1629L105.328 80.4321L105.626 82.275L101.104 83.0059L101.512 85.5303L106.421 84.7369L106.719 86.5799L99.5741 87.7346ZM86.4074 100.367C86.2988 99.9576 86.0693 99.6628 85.7188 99.4828C85.3684 99.3028 84.9247 99.2562 84.3878 99.343C84.023 99.402 83.7233 99.5034 83.4888 99.6472C83.2537 99.7876 83.0835 99.9582 82.9782 100.159C82.8763 100.359 82.8437 100.573 82.8804 100.8C82.9041 100.99 82.9704 101.149 83.0793 101.276C83.1915 101.403 83.3335 101.505 83.505 101.583C83.676 101.658 83.8692 101.717 84.0845 101.76C84.2992 101.799 84.526 101.826 84.765 101.841L85.7516 101.914C86.2294 101.943 86.675 102.012 87.0883 102.122C87.5015 102.232 87.8696 102.389 88.1924 102.595C88.5152 102.801 88.7816 103.061 88.9915 103.377C89.2049 103.692 89.3489 104.07 89.4236 104.51C89.5247 105.157 89.4501 105.745 89.2 106.273C88.9526 106.797 88.5438 107.239 87.9735 107.599C87.406 107.956 86.6921 108.204 85.8317 108.343C84.9782 108.481 84.2137 108.47 83.5381 108.311C82.8661 108.151 82.3113 107.843 81.874 107.388C81.4395 106.928 81.1522 106.32 81.0121 105.562L83.1751 105.212C83.2565 105.563 83.4058 105.843 83.6232 106.051C83.8434 106.256 84.1147 106.394 84.437 106.465C84.7622 106.533 85.1176 106.535 85.503 106.473C85.8816 106.412 86.2014 106.304 86.4624 106.148C86.7268 105.993 86.9206 105.804 87.0437 105.583C87.1669 105.362 87.2079 105.124 87.1667 104.869C87.1284 104.632 87.0256 104.443 86.8583 104.305C86.6945 104.165 86.4692 104.06 86.1824 103.99C85.899 103.919 85.5571 103.869 85.1566 103.838L83.9587 103.735C83.0323 103.662 82.2737 103.437 81.6829 103.059C81.0921 102.681 80.7353 102.102 80.6125 101.32C80.5056 100.68 80.5856 100.093 80.8524 99.5595C81.1227 99.0249 81.539 98.5744 82.1014 98.2081C82.6637 97.8418 83.3303 97.5963 84.1013 97.4717C84.8859 97.3449 85.5925 97.3684 86.221 97.5423C86.8529 97.7156 87.371 98.0151 87.7752 98.4406C88.1795 98.8662 88.4377 99.393 88.5498 100.021L86.4074 100.367ZM91.9418 96.3529L93.6505 106.925L91.4152 107.287L89.7065 96.7141L91.9418 96.3529ZM100.008 98.1694C99.8992 97.7596 99.6696 97.4647 99.3192 97.2848C98.9687 97.1048 98.5251 97.0582 97.9882 97.145C97.6234 97.2039 97.3237 97.3053 97.0891 97.4492C96.854 97.5896 96.6838 97.7601 96.5785 97.9608C96.4767 98.1609 96.4441 98.3745 96.4808 98.6016C96.5045 98.792 96.5708 98.9508 96.6796 99.078C96.7919 99.2047 96.9338 99.3071 97.1054 99.3853C97.2764 99.4601 97.4695 99.519 97.6848 99.5619C97.8996 99.6013 98.1264 99.6282 98.3653 99.6426L99.3519 99.7162C99.8298 99.7449 100.275 99.8142 100.689 99.924C101.102 100.034 101.47 100.191 101.793 100.397C102.116 100.603 102.382 100.863 102.592 101.179C102.805 101.494 102.949 101.872 103.024 102.312C103.125 102.959 103.051 103.547 102.8 104.075C102.553 104.599 102.144 105.041 101.574 105.401C101.006 105.758 100.292 106.006 99.4321 106.145C98.5786 106.283 97.814 106.272 97.1385 106.113C96.4664 105.953 95.9117 105.645 95.4743 105.19C95.0399 104.73 94.7526 104.122 94.6124 103.364L96.7755 103.014C96.8569 103.365 97.0062 103.644 97.2236 103.853C97.4438 104.058 97.7151 104.196 98.0374 104.267C98.3626 104.335 98.7179 104.337 99.1034 104.275C99.482 104.214 99.8018 104.106 100.063 103.95C100.327 103.795 100.521 103.606 100.644 103.385C100.767 103.164 100.808 102.926 100.767 102.671C100.729 102.434 100.626 102.245 100.459 102.107C100.295 101.967 100.07 101.862 99.7828 101.792C99.4994 101.721 99.1575 101.671 98.757 101.64L97.5591 101.537C96.6326 101.464 95.8741 101.239 95.2833 100.861C94.6925 100.483 94.3357 99.9036 94.2129 99.1218C94.106 98.4822 94.186 97.8954 94.4528 97.3614C94.7231 96.8269 95.1394 96.3764 95.7017 96.0101C96.2641 95.6437 96.9307 95.3983 97.7016 95.2737C98.4863 95.1468 99.1929 95.1704 99.8213 95.3443C100.453 95.5176 100.971 95.817 101.376 96.2426C101.78 96.6681 102.038 97.195 102.15 97.8231L100.008 98.1694Z"
        fill="#263238" />
    <path
        d="M127.077 207.854H181.473V236.398H127.077C124.09 236.398 121.226 235.212 119.114 233.1C117.002 230.988 115.816 228.124 115.816 225.137V219.108C115.816 216.122 117.002 213.258 119.114 211.146C121.226 209.034 124.09 207.848 127.077 207.848V207.854Z"
        fill="#22A770" />
    <path
        d="M167.252 207.854H281.996C282.492 207.854 282.967 208.051 283.318 208.402C283.668 208.752 283.865 209.228 283.865 209.723V210.725C283.865 211.221 283.668 211.696 283.318 212.047C282.967 212.397 282.492 212.594 281.996 212.594H167.252V207.854Z"
        fill="#22A770" />
    <path
        d="M167.252 231.664H281.996C282.241 231.664 282.484 231.713 282.711 231.806C282.938 231.9 283.144 232.038 283.318 232.212C283.491 232.385 283.629 232.591 283.723 232.818C283.817 233.045 283.865 233.288 283.865 233.534V234.535C283.865 235.031 283.668 235.506 283.318 235.857C282.967 236.208 282.492 236.405 281.996 236.405H167.252V231.664Z"
        fill="#22A770" />
    <path
        d="M280.375 231.664H180.267C179.015 231.664 177.775 231.417 176.618 230.938C175.461 230.459 174.41 229.756 173.525 228.87C172.639 227.984 171.937 226.933 171.459 225.776C170.98 224.618 170.734 223.378 170.735 222.126C170.735 219.598 171.739 217.174 173.527 215.386C175.314 213.599 177.739 212.594 180.267 212.594H280.375C279.049 215.598 278.364 218.846 278.364 222.129C278.364 225.413 279.049 228.66 280.375 231.664Z"
        fill="#F5F5F5" />
    <path
        d="M170.735 236.405H127.3C124.254 236.405 121.333 235.195 119.18 233.041C117.026 230.887 115.816 227.966 115.816 224.921V219.249C115.816 216.227 117.017 213.328 119.153 211.191C121.29 209.055 124.189 207.854 127.211 207.854H171.813C161.484 214.119 162.256 229.112 170.735 236.405Z"
        fill="black" opacity="0.3" />
    <path
        d="M268.215 223.013C268.215 223.109 247.665 223.185 222.324 223.185C196.982 223.185 176.432 223.109 176.432 223.013C176.432 222.917 196.976 222.841 222.324 222.841C247.672 222.841 268.215 222.917 268.215 223.013Z"
        fill="#263238" />
    <path
        d="M277.658 227.249C277.658 227.345 257.108 227.421 231.766 227.421C206.425 227.421 185.875 227.345 185.875 227.249C185.875 227.154 206.418 227.083 231.766 227.083C257.114 227.083 277.658 227.16 277.658 227.249Z"
        fill="#263238" />
    <path
        d="M274.876 217.003C274.876 217.099 254.326 217.175 228.985 217.175C203.643 217.175 183.087 217.099 183.087 217.003C183.087 216.907 203.63 216.831 228.985 216.831C254.339 216.831 274.876 216.92 274.876 217.003Z"
        fill="#263238" />
    <path
        d="M165.708 234.401C165.708 234.497 156.087 234.573 144.226 234.573C132.366 234.573 122.745 234.497 122.745 234.401C122.745 234.305 132.359 234.229 144.226 234.229C156.093 234.229 165.708 234.305 165.708 234.401Z"
        fill="#263238" />
    <path
        d="M165.708 210.227C165.708 210.323 156.087 210.4 144.226 210.4C132.366 210.4 122.745 210.323 122.745 210.227C122.745 210.132 132.359 210.055 144.226 210.055C156.093 210.055 165.708 210.132 165.708 210.227Z"
        fill="#263238" />
    <path
        d="M103.062 256.438H176.362V293.199H103.062C100.076 293.199 97.2117 292.013 95.0999 289.901C92.9882 287.789 91.8018 284.925 91.8018 281.939V267.698C91.8018 264.712 92.9882 261.848 95.0999 259.736C97.2117 257.624 100.076 256.438 103.062 256.438Z"
        fill="#22A770" />
    <path
        d="M158.045 256.438H306.336C306.831 256.438 307.307 256.635 307.657 256.985C308.008 257.336 308.205 257.811 308.205 258.307V260.674C308.205 261.17 308.008 261.645 307.657 261.996C307.307 262.346 306.831 262.543 306.336 262.543H158.045V256.438Z"
        fill="#22A770" />
    <path
        d="M158.045 287.1H306.336C306.831 287.1 307.307 287.297 307.657 287.648C308.008 287.998 308.205 288.474 308.205 288.969V291.336C308.205 291.832 308.008 292.308 307.657 292.658C307.307 293.009 306.831 293.206 306.336 293.206H158.045V287.1Z"
        fill="#22A770" />
    <path
        d="M303.726 287.1H174.812C171.556 287.098 168.434 285.804 166.132 283.501C163.83 281.198 162.537 278.075 162.537 274.819C162.537 273.207 162.854 271.61 163.471 270.121C164.088 268.632 164.992 267.279 166.132 266.139C167.272 264.999 168.625 264.095 170.115 263.478C171.604 262.861 173.2 262.543 174.812 262.543H303.726C302.016 266.411 301.133 270.593 301.133 274.822C301.133 279.05 302.016 283.232 303.726 287.1Z"
        fill="#F5F5F5" />
    <path
        d="M162.524 293.199H102.916C101.456 293.199 100.012 292.912 98.6635 292.353C97.3155 291.795 96.0907 290.976 95.0592 289.944C94.0277 288.912 93.2096 287.686 92.6518 286.338C92.094 284.99 91.8073 283.545 91.8081 282.085V267.96C91.8081 264.914 93.018 261.993 95.1717 259.84C97.3254 257.686 100.246 256.476 103.292 256.476H163.902C150.613 264.502 151.608 283.814 162.524 293.199Z"
        fill="black" opacity="0.3" />
    <path
        d="M288.063 275.961C288.063 276.056 261.599 276.133 228.965 276.133C196.332 276.133 169.861 276.056 169.861 275.961C169.861 275.865 196.319 275.788 228.965 275.788C261.612 275.788 288.063 275.865 288.063 275.961Z"
        fill="#263238" />
    <path
        d="M300.23 281.415C300.23 281.511 273.766 281.588 241.126 281.588C208.486 281.588 182.021 281.511 182.021 281.415C182.021 281.32 208.479 281.25 241.126 281.25C273.772 281.25 300.23 281.358 300.23 281.415Z"
        fill="#263238" />
    <path
        d="M296.67 270.895C296.67 270.991 270.212 271.067 237.572 271.067C204.932 271.067 178.468 270.991 178.468 270.895C178.468 270.799 204.926 270.723 237.572 270.723C270.218 270.723 296.67 270.799 296.67 270.895Z"
        fill="#263238" />
    <path
        d="M156.048 290.622C156.048 290.717 143.665 290.794 128.385 290.794C113.105 290.794 100.721 290.717 100.721 290.622C100.721 290.526 113.105 290.456 128.385 290.456C143.665 290.456 156.048 290.532 156.048 290.622Z"
        fill="#263238" />
    <path
        d="M156.048 259.494C156.048 259.583 143.665 259.66 128.385 259.66C113.105 259.66 100.721 259.583 100.721 259.494C100.721 259.404 113.105 259.321 128.385 259.321C143.665 259.321 156.048 259.398 156.048 259.494Z"
        fill="#263238" />
    <path
        d="M137.923 235.524H198.316V256.578H137.923C135.723 256.578 133.613 255.704 132.058 254.149C130.503 252.593 129.629 250.484 129.629 248.284V243.818C129.629 241.618 130.503 239.509 132.058 237.953C133.613 236.398 135.723 235.524 137.923 235.524Z"
        fill="#455A64" />
    <path
        d="M183.438 235.524H303.484C304.003 235.524 304.502 235.73 304.869 236.098C305.236 236.465 305.442 236.963 305.442 237.483V238.529C305.442 239.049 305.236 239.547 304.869 239.914C304.502 240.281 304.003 240.488 303.484 240.488H183.438V235.53V235.524Z"
        fill="#455A64" />
    <path
        d="M183.438 251.614H303.484C304.003 251.614 304.502 251.821 304.869 252.188C305.236 252.555 305.442 253.054 305.442 253.573V254.619C305.442 255.139 305.236 255.637 304.869 256.004C304.502 256.372 304.003 256.578 303.484 256.578H183.438V251.621V251.614Z"
        fill="#455A64" />
    <path
        d="M301.774 251.614H192.676C191.2 251.614 189.784 251.029 188.74 249.985C187.695 248.942 187.108 247.527 187.106 246.051C187.106 244.574 187.693 243.157 188.738 242.113C189.782 241.068 191.199 240.481 192.676 240.481H301.774C298.984 244.194 298.984 247.906 301.774 251.614Z"
        fill="#F5F5F5" />
    <path
        d="M187.074 256.572H137.948C136.851 256.572 135.765 256.355 134.751 255.935C133.737 255.515 132.816 254.9 132.041 254.123C131.265 253.347 130.65 252.426 130.231 251.412C129.811 250.398 129.596 249.311 129.597 248.214V244.054C129.596 242.934 129.816 241.825 130.244 240.79C130.672 239.755 131.3 238.815 132.091 238.023C132.883 237.231 133.823 236.602 134.857 236.174C135.892 235.745 137.001 235.524 138.121 235.524H188.21C177.396 240.143 178.206 251.2 187.074 256.572Z"
        fill="black" opacity="0.3" />
    <path
        d="M289.071 245.171C289.071 245.266 267.571 245.343 241.055 245.343C214.54 245.343 193.04 245.266 193.04 245.171C193.04 245.075 214.534 245.005 241.055 245.005C267.577 245.005 289.071 245.081 289.071 245.171Z"
        fill="#263238" />
    <path
        d="M298.954 248.182C298.954 248.278 277.453 248.354 250.938 248.354C224.423 248.354 202.922 248.278 202.922 248.182C202.922 248.086 224.416 248.01 250.938 248.01C277.46 248.01 298.954 248.074 298.954 248.182Z"
        fill="#263238" />
    <path
        d="M181.83 254.479C181.83 254.575 171.769 254.651 159.353 254.651C146.938 254.651 136.876 254.575 136.876 254.479C136.876 254.383 146.938 254.307 159.353 254.307C171.769 254.307 181.83 254.383 181.83 254.479Z"
        fill="#263238" />
    <path
        d="M181.83 238.006C181.83 238.102 171.769 238.172 159.353 238.172C146.938 238.172 136.876 238.102 136.876 238.006C136.876 237.91 146.938 237.834 159.353 237.834C171.769 237.834 181.83 237.91 181.83 238.006Z"
        fill="#263238" />
    <path
        d="M304.007 235.524C304.007 235.62 267.086 235.696 221.558 235.696C176.031 235.696 139.084 235.62 139.084 235.524C139.084 235.428 175.992 235.352 221.539 235.352C267.086 235.352 304.007 235.422 304.007 235.524Z"
        fill="#263238" />
    <path d="M237.802 216.69V228.123L241.764 225.584L246.179 228.123V216.69H237.802Z"
        fill="#22A770" />
    <path
        d="M278.066 103.209L258.116 119.829L227.772 179.776L246.689 188.325L276.203 129.533L278.066 103.209Z"
        fill="#22A770" />
    <g opacity="0.7">
        <path
            d="M276.203 129.514C275.972 129.571 275.73 129.574 275.498 129.523C275.266 129.471 275.048 129.366 274.863 129.217C274.677 129.067 274.529 128.877 274.43 128.661C274.33 128.444 274.282 128.208 274.289 127.97C273.66 128.703 272.816 129.22 271.878 129.448C270.94 129.677 269.953 129.605 269.057 129.244C268.162 128.883 267.402 128.25 266.884 127.434C266.367 126.619 266.119 125.661 266.174 124.697C265.333 125.15 264.387 125.371 263.433 125.337C262.478 125.304 261.55 125.017 260.743 124.507C259.936 123.997 259.279 123.281 258.84 122.433C258.401 121.585 258.195 120.636 258.243 119.682L278.021 103.19L276.203 129.514Z"
            fill="white" />
    </g>
    <path
        d="M270.04 109.896C270.04 109.896 270.346 114.859 277.3 113.991L278.066 103.209L270.04 109.896Z"
        fill="#22A770" />
    <path
        d="M266.199 124.716L236.947 183.597L227.772 179.769L258.116 119.797L258.269 119.67C258.223 120.469 258.363 121.268 258.677 122.005C259.096 122.972 259.776 123.803 260.642 124.404C261.705 125.129 262.995 125.445 264.272 125.29C264.944 125.218 265.597 125.023 266.199 124.716Z"
        fill="black" opacity="0.3" />
    <path
        d="M274.34 127.989L244.29 187.227L246.715 188.325L276.203 129.514C275.803 129.587 275.39 129.508 275.045 129.294C274.699 129.079 274.446 128.744 274.334 128.353C274.324 128.232 274.326 128.11 274.34 127.989Z"
        fill="black" opacity="0.3" />
    <path
        d="M266.046 119C265.983 119.073 265.947 119.165 265.944 119.261C265.945 119.401 265.998 119.535 266.092 119.637C266.186 119.74 266.315 119.804 266.454 119.816C266.907 119.836 267.354 119.711 267.73 119.459C267.968 119.32 268.157 119.11 268.273 118.859C268.336 118.724 268.364 118.574 268.354 118.425C268.344 118.275 268.296 118.131 268.215 118.004C268.11 117.874 267.978 117.767 267.828 117.691C267.679 117.615 267.515 117.572 267.347 117.564C266.978 117.532 266.607 117.553 266.244 117.628C265.431 117.763 264.656 118.065 263.966 118.515C263.782 118.628 263.624 118.78 263.503 118.959C263.382 119.138 263.3 119.341 263.264 119.555C263.255 119.778 263.3 120 263.397 120.202C263.494 120.403 263.639 120.578 263.819 120.71C264.239 120.951 264.702 121.105 265.182 121.164C265.662 121.224 266.149 121.186 266.614 121.054C267.537 120.86 268.389 120.416 269.076 119.77C269.764 119.124 270.261 118.301 270.512 117.392C270.555 117.191 270.551 116.983 270.5 116.783C270.449 116.584 270.353 116.399 270.218 116.244C269.948 115.954 269.611 115.735 269.236 115.606C268.562 115.359 267.854 115.217 267.137 115.185C266.091 115.129 265.046 115.286 264.062 115.644C263.717 115.771 263.424 115.893 263.277 115.976C263.13 116.059 263.009 116.103 263.009 116.103C263.335 115.896 263.681 115.723 264.043 115.586C265.029 115.209 266.082 115.038 267.137 115.082C267.868 115.107 268.591 115.245 269.281 115.491C269.675 115.626 270.029 115.856 270.314 116.161C270.464 116.333 270.572 116.538 270.63 116.76C270.687 116.981 270.693 117.213 270.646 117.437C270.316 118.621 269.587 119.655 268.583 120.363C267.578 121.071 266.36 121.41 265.134 121.322C264.631 121.296 264.147 121.128 263.736 120.837C263.531 120.695 263.365 120.504 263.253 120.281C263.142 120.058 263.089 119.81 263.098 119.561C263.138 119.328 263.226 119.107 263.358 118.911C263.491 118.715 263.663 118.549 263.864 118.426C264.571 117.967 265.367 117.661 266.199 117.526C266.575 117.455 266.96 117.438 267.341 117.475C267.522 117.486 267.699 117.535 267.86 117.62C268.02 117.705 268.161 117.823 268.273 117.966C268.361 118.107 268.412 118.268 268.422 118.434C268.432 118.6 268.401 118.766 268.33 118.917C268.206 119.184 268.004 119.407 267.749 119.555C267.361 119.805 266.902 119.924 266.441 119.893C266.292 119.878 266.154 119.808 266.054 119.695C265.955 119.583 265.902 119.437 265.906 119.287C265.937 119.051 266.046 118.993 266.046 119Z"
        fill="white" />
    <path
        d="M276.752 118.668C276.752 118.668 276.458 118.623 275.935 118.668C275.19 118.717 274.461 118.912 273.791 119.242C272.806 119.748 271.881 120.364 271.035 121.08C270.006 121.986 268.833 122.714 267.564 123.236C266.256 123.686 264.845 123.739 263.507 123.389C262.417 123.102 261.416 122.549 260.591 121.781C260.032 121.252 259.569 120.63 259.219 119.944C259.087 119.703 258.976 119.451 258.888 119.191C258.924 119.25 258.956 119.312 258.983 119.376C259.041 119.504 259.136 119.689 259.264 119.918C259.638 120.564 260.109 121.147 260.661 121.647C261.48 122.392 262.467 122.927 263.539 123.204C264.854 123.535 266.237 123.477 267.52 123.038C268.772 122.524 269.931 121.808 270.952 120.92C271.806 120.201 272.745 119.589 273.747 119.095C274.428 118.765 275.171 118.58 275.929 118.553C276.207 118.556 276.483 118.595 276.752 118.668Z"
        fill="white" />
    <path
        d="M276.637 124.646C276.271 124.275 275.784 124.049 275.265 124.008C274.004 123.997 272.749 124.182 271.545 124.557C270.325 124.886 269.138 125.326 267.998 125.871C267.558 126.082 267.213 126.267 266.971 126.388C266.852 126.464 266.726 126.528 266.595 126.579C266.706 126.492 266.823 126.413 266.946 126.343C267.175 126.203 267.52 125.999 267.954 125.782C269.087 125.203 270.278 124.745 271.507 124.416C272.183 124.231 272.869 124.087 273.562 123.983C274.128 123.879 274.705 123.855 275.278 123.912C275.669 123.954 276.04 124.104 276.35 124.346C276.459 124.432 276.556 124.533 276.637 124.646Z"
        fill="white" />
    <path
        d="M268.355 128.876C268.549 128.674 268.763 128.493 268.993 128.334C269.562 127.916 270.215 127.629 270.907 127.492C271.254 127.421 271.612 127.428 271.955 127.513C272.298 127.598 272.618 127.759 272.892 127.983C273.054 128.121 273.19 128.287 273.294 128.474C273.332 128.541 273.358 128.615 273.37 128.691C273.223 128.452 273.04 128.237 272.828 128.053C272.558 127.849 272.247 127.706 271.917 127.632C271.587 127.559 271.245 127.556 270.914 127.626C270.249 127.765 269.618 128.034 269.057 128.417C268.832 128.583 268.598 128.737 268.355 128.876Z"
        fill="white" />
    <path
        d="M277.275 115.063C277.246 115.095 277.214 115.123 277.179 115.146C277.115 115.191 277.019 115.261 276.886 115.344C276.73 115.454 276.554 115.532 276.369 115.574C276.118 115.618 275.86 115.603 275.616 115.529C275.074 115.408 274.468 115.133 273.785 114.891C273.045 114.64 272.285 114.45 271.514 114.323C270.1 114.118 268.673 114.022 267.245 114.036H265.969C265.81 114.052 265.65 114.052 265.491 114.036L265.969 113.998L267.245 113.953C268.679 113.908 270.114 113.991 271.533 114.202C272.315 114.326 273.084 114.522 273.83 114.789C274.519 115.031 275.106 115.312 275.641 115.427C275.841 115.499 276.055 115.525 276.266 115.501C276.478 115.478 276.681 115.407 276.86 115.293C276.994 115.21 277.133 115.133 277.275 115.063Z"
        fill="white" />
    <path
        d="M298.418 169.242V221.501C298.431 221.601 298.479 221.693 298.555 221.76C298.631 221.827 298.729 221.864 298.83 221.864C298.931 221.864 299.028 221.827 299.104 221.76C299.18 221.693 299.229 221.601 299.241 221.501V169.242C299.229 169.142 299.18 169.05 299.104 168.983C299.028 168.916 298.931 168.879 298.83 168.879C298.729 168.879 298.631 168.916 298.555 168.983C298.479 169.05 298.431 169.142 298.418 169.242Z"
        fill="#22A770" />
    <path
        d="M301.774 209.985C301.774 210.568 301.601 211.138 301.277 211.623C300.953 212.107 300.493 212.485 299.954 212.708C299.416 212.931 298.823 212.99 298.251 212.876C297.68 212.762 297.154 212.481 296.742 212.069C296.33 211.657 296.049 211.132 295.936 210.56C295.822 209.988 295.88 209.396 296.103 208.857C296.326 208.318 296.704 207.858 297.189 207.534C297.674 207.21 298.243 207.037 298.826 207.037C299.608 207.037 300.358 207.348 300.911 207.901C301.463 208.453 301.774 209.203 301.774 209.985Z"
        fill="#22A770" />
    <path
        d="M298.01 211.51C298.01 211.51 295.86 213.66 295.215 219.957C294.571 226.254 294.431 229.399 294.431 229.399L300.224 229.757V225.252C300.224 225.463 301.372 228.615 301.372 228.615L305.953 227.109C305.953 227.109 304.326 210.368 298.01 211.51Z"
        fill="#22A770" />
    <path d="M267.877 173.517H169.497V208.983H267.877V173.517Z" fill="#263238" />
    <path d="M302.431 167.418H134.159V173.523H302.431V167.418Z" fill="#263238" />
    <path
        d="M169.497 198.922C169.497 198.922 199.381 188.204 218.687 184.248C237.993 180.292 267.877 181.607 267.877 181.607V173.536H169.497V198.922Z"
        fill="black" opacity="0.3" />
    <path d="M195.024 167.418H134.159V173.523H195.024V167.418Z" fill="black" opacity="0.3" />
    <path
        d="M301.213 173.536C301.213 173.632 263.794 173.708 217.635 173.708C171.475 173.708 134.057 173.632 134.057 173.536C134.057 173.44 171.462 173.37 217.635 173.37C263.807 173.37 301.213 173.428 301.213 173.536Z"
        fill="#455A64" />
    <path
        d="M194.928 173.568C194.698 171.507 194.698 169.427 194.928 167.367C195.149 169.428 195.149 171.507 194.928 173.568Z"
        fill="#455A64" />
    <path
        d="M208.958 208.99C208.868 208.99 208.792 202.067 208.792 193.531C208.792 184.994 208.868 178.079 208.958 178.079C209.047 178.079 209.13 184.994 209.13 193.531C209.13 202.067 209.053 208.99 208.958 208.99Z"
        fill="#455A64" />
    <path
        d="M66.6391 252.546L77.9509 247.978L86.5894 225.412L98.1053 231.345C98.1053 231.345 96.9952 233.572 94.6154 239.09C93.6903 241.215 90.6471 247.155 89.4094 250.045C88.2639 252.717 86.3772 255.005 83.9724 256.639C81.5676 258.273 78.7452 259.184 75.8391 259.264L65.2228 259.538L66.6391 252.546Z"
        fill="#FFBF9D" />
    <path
        d="M61.0184 248.182L59.3341 246.383C59.0068 246.168 58.6215 246.059 58.2303 246.07L52.8201 246.236C52.315 246.285 51.8274 246.447 51.3933 246.709C50.9593 246.972 50.59 247.33 50.3127 247.755L48.3413 251.104C48.3413 251.104 47.0207 253.394 47.1865 253.956C47.2604 254.189 47.418 254.386 47.6289 254.51C47.8398 254.634 48.0891 254.675 48.3286 254.626C48.3286 254.626 48.52 255.685 48.8709 255.902C49.074 256.004 49.2957 256.064 49.5227 256.078C49.7497 256.093 49.9772 256.061 50.1915 255.985C50.2846 256.186 50.436 256.354 50.626 256.468C50.816 256.582 51.0359 256.636 51.257 256.623C51.3518 256.614 51.4458 256.597 51.5377 256.572C52.1757 256.374 52.4692 255.13 52.4692 255.13L55.2126 254.626C55.2126 254.626 59.1554 257.261 60.5463 258.983C61.9371 260.706 65.5737 259.392 65.5737 259.392L66.9326 252.884L61.0184 248.182Z"
        fill="#FFBF9D" />
    <path
        d="M57.0309 248.954C56.646 249.073 56.2469 249.14 55.8442 249.152C55.0977 249.235 54.045 249.267 52.852 249.42L52.9796 249.324C52.7745 249.765 52.54 250.191 52.2778 250.6C51.5573 251.743 50.6812 252.78 49.6747 253.682C49.2794 254.079 48.82 254.407 48.3158 254.651C48.3158 254.607 48.7943 254.224 49.5089 253.503C50.4471 252.57 51.2795 251.537 51.9907 250.421C52.2523 249.994 52.4883 249.573 52.6861 249.145L52.7244 249.062H52.8137C54.0323 248.928 55.085 248.941 55.8314 248.916C56.2315 248.887 56.6335 248.9 57.0309 248.954Z"
        fill="#FF9A6C" />
    <path
        d="M57.152 251.538C56.8328 251.694 56.4858 251.785 56.1312 251.806C55.25 251.928 54.3545 251.898 53.4835 251.717L53.6813 251.608C53.5665 251.942 53.4345 252.27 53.2857 252.591C52.7924 253.608 52.1004 254.517 51.2505 255.264C50.9187 255.593 50.5237 255.851 50.0894 256.023C50.4042 255.693 50.7364 255.38 51.0846 255.085C51.8711 254.32 52.5188 253.424 52.9986 252.437C53.1462 252.133 53.2761 251.819 53.3878 251.5L53.4389 251.359H53.5792C54.7567 251.579 55.9585 251.64 57.152 251.538Z"
        fill="#FF9A6C" />
    <path
        d="M64.0297 252.871L59.2001 250.626C58.552 250.265 57.834 250.047 57.0947 249.988C56.3039 250.057 55.5408 250.313 54.8681 250.734L52.265 252.074C52.1247 252.15 51.9715 252.24 51.9269 252.386C51.8822 252.533 52.0034 252.788 52.1502 252.935C52.8221 253.571 53.7014 253.942 54.6256 253.979C55.5498 254.017 56.4564 253.718 57.1776 253.139C57.5301 254.289 58.0806 255.369 58.8045 256.329C59.1747 256.811 59.6627 257.189 60.2214 257.427C60.7802 257.665 61.3908 257.755 61.9945 257.688"
        fill="#FFBF9D" />
    <path
        d="M61.9817 257.752C61.9416 257.772 61.8985 257.785 61.8541 257.79C61.7246 257.822 61.5919 257.839 61.4585 257.841C60.9517 257.843 60.4522 257.72 60.0039 257.484C59.3096 257.121 58.7206 256.585 58.2941 255.927C57.7646 255.083 57.3363 254.179 57.0181 253.235L57.2605 253.292C56.873 253.618 56.4248 253.863 55.9419 254.014C55.4589 254.165 54.9508 254.219 54.4469 254.173C53.8991 254.135 53.3648 253.986 52.8774 253.733C52.6279 253.601 52.3945 253.44 52.182 253.254C52.0669 253.159 51.9621 253.052 51.8694 252.935C51.8093 252.862 51.7661 252.777 51.7429 252.685C51.7197 252.594 51.7172 252.498 51.7354 252.406C51.7562 252.329 51.7924 252.259 51.8418 252.197C51.8912 252.136 51.9527 252.085 52.0225 252.048C52.1374 251.978 52.2331 251.933 52.3351 251.876L52.9349 251.57L54.1152 250.932C54.8484 250.502 55.6301 250.162 56.4439 249.917C57.2251 249.777 58.031 249.9 58.7343 250.268C59.3723 250.562 60.0103 250.855 60.5207 251.117L63.0727 252.393C63.3933 252.537 63.7026 252.706 63.9978 252.897C63.6602 252.797 63.3316 252.669 63.0153 252.514L60.3995 251.359L58.6003 250.555C57.9517 250.223 57.2105 250.117 56.4949 250.256C55.7099 250.501 54.9562 250.837 54.2491 251.257L53.0752 251.895L52.4755 252.208C52.2713 252.31 52.0544 252.412 52.0417 252.514C52.0289 252.616 52.1884 252.865 52.3862 253.024C52.581 253.194 52.7951 253.339 53.0242 253.458C53.4704 253.689 53.9586 253.828 54.4597 253.867C55.3918 253.957 56.3222 253.678 57.05 253.088L57.2158 252.948L57.286 253.152C57.5834 254.081 57.9836 254.973 58.4791 255.812C58.8696 256.449 59.4136 256.978 60.0613 257.35C60.65 257.665 61.3163 257.804 61.9817 257.752Z"
        fill="#FF9A6C" />
    <path
        d="M126.834 189.658C126.879 186.034 127.472 182.423 127.306 178.812C127.141 175.201 126.215 171.418 123.689 168.821C121.163 166.225 116.754 165.242 113.819 167.316L113.181 170.403C114.342 184.376 114.189 198.571 115.35 212.543C115.503 214.381 116.99 216.046 117.826 217.686C118.662 219.325 120.34 220.684 122.177 220.569C124.582 220.423 126.158 217.985 126.905 215.689C129.648 207.388 126.726 198.418 126.834 189.658Z"
        fill="#263238" />
    <path
        d="M118.119 170.869C117.635 169.949 117.014 169.107 116.275 168.375C115.903 168.01 115.453 167.735 114.959 167.569C114.465 167.403 113.94 167.352 113.424 167.418C113.18 167.448 112.949 167.54 112.751 167.685C112.553 167.83 112.396 168.024 112.294 168.247C112.135 168.706 112.479 169.325 112.964 169.281L113.066 169.37C114.151 170.331 115.255 171.269 116.378 172.183C116.645 172.433 116.96 172.628 117.303 172.758C117.475 172.82 117.662 172.833 117.841 172.795C118.02 172.757 118.185 172.669 118.317 172.541C118.719 172.094 118.426 171.386 118.119 170.869Z"
        fill="#22A770" />
    <path
        d="M120.167 174.429C116.556 170.014 111.707 167.469 106.004 167.411C102.814 167.354 101.455 168.049 99.1389 168.649C96.8199 169.209 94.7702 170.563 93.3458 172.477C91.7062 174.806 90.3281 177.415 90.0155 180.254C89.6067 183.155 89.4679 186.087 89.6008 189.014C89.7347 191.955 90.6797 194.801 92.3314 197.238L99.7577 198.514C103.86 198.654 108.02 198.788 112.02 197.876C116.02 196.963 119.899 194.788 122.037 191.285C125.01 186.385 123.772 178.838 120.167 174.429Z"
        fill="#263238" />
    <path
        d="M113.564 174.378L103.662 170.442L101.072 170.742C95.2534 170.742 91.234 177.185 91.1958 181.894C91.1575 187.138 91.3106 193.531 92.14 197.391C93.8179 205.155 100.434 205.8 100.434 205.8C100.434 205.8 100.3 209.94 100.249 212.543L115.414 211.452L116.173 177.039C116.15 176.349 115.87 175.693 115.387 175.201C114.903 174.708 114.253 174.415 113.564 174.378Z"
        fill="#FFBF9D" />
    <path
        d="M103.783 195.573C103.722 195.176 103.518 194.815 103.209 194.558C102.928 194.316 102.576 194.173 102.206 194.151C101.836 194.129 101.469 194.23 101.161 194.437C100.842 194.683 100.594 195.009 100.443 195.383C100.292 195.756 100.242 196.163 100.3 196.561C100.47 196.801 100.69 197.001 100.944 197.148C101.199 197.296 101.481 197.387 101.774 197.416C101.865 197.423 101.957 197.423 102.048 197.416C102.521 197.426 102.98 197.25 103.324 196.925C103.497 196.749 103.629 196.535 103.708 196.301C103.788 196.067 103.813 195.818 103.783 195.573Z"
        fill="#FF9A6C" />
    <path
        d="M93.8179 188.523C93.8279 188.785 93.9404 189.033 94.1313 189.213C94.3222 189.393 94.5762 189.491 94.8387 189.486C94.9671 189.489 95.0947 189.466 95.2142 189.418C95.3336 189.371 95.4425 189.301 95.5345 189.211C95.6265 189.121 95.6998 189.014 95.7501 188.896C95.8004 188.778 95.8267 188.651 95.8276 188.523C95.8144 188.26 95.7 188.013 95.5084 187.834C95.3168 187.654 95.063 187.556 94.8004 187.559C94.6723 187.557 94.5449 187.58 94.4258 187.627C94.3067 187.674 94.1983 187.745 94.1068 187.835C94.0153 187.924 93.9426 188.031 93.893 188.149C93.8434 188.268 93.8178 188.394 93.8179 188.523Z"
        fill="#263238" />
    <path
        d="M92.9694 184.516C93.097 184.637 93.8307 184.037 94.8834 183.98C95.9361 183.923 96.7974 184.42 96.8995 184.28C97.0016 184.14 96.8102 183.986 96.4529 183.757C95.9673 183.458 95.4011 183.318 94.8324 183.355C94.2706 183.383 93.7322 183.588 93.2948 183.942C93.0013 184.216 92.8992 184.459 92.9694 184.516Z"
        fill="#263238" />
    <path
        d="M99.9108 192.995C99.332 192.843 98.7356 192.768 98.1371 192.772C97.8628 192.772 97.5948 192.721 97.5374 192.529C97.5028 192.247 97.5516 191.961 97.6778 191.706C97.9011 191.024 98.1371 190.309 98.3796 189.556C99.3493 186.507 100.038 183.999 99.9108 183.961C99.7832 183.923 98.9027 186.366 97.933 189.422L97.295 191.579C97.1379 191.921 97.1085 192.308 97.212 192.67C97.2562 192.765 97.3218 192.848 97.4038 192.913C97.4857 192.979 97.5817 193.024 97.6842 193.046C97.8392 193.079 97.9979 193.092 98.1563 193.084C98.7426 193.124 99.3315 193.094 99.9108 192.995Z"
        fill="#263238" />
    <path
        d="M100.421 205.793C104.112 205.647 107.691 204.479 110.757 202.418C110.757 202.418 108.262 208.001 100.383 207.701L100.421 205.793Z"
        fill="#FF9A6C" />
    <path
        d="M103.133 193.563C102.96 193.563 103.018 194.737 102.061 195.624C101.104 196.51 99.847 196.453 99.847 196.619C99.847 196.785 100.141 196.829 100.664 196.817C101.354 196.789 102.012 196.518 102.52 196.051C103.007 195.605 103.302 194.987 103.343 194.328C103.356 193.837 103.216 193.556 103.133 193.563Z"
        fill="#263238" />
    <path
        d="M93.333 180.733C93.5308 180.981 94.3475 180.765 95.3172 180.79C96.287 180.816 97.1036 181.026 97.3078 180.79C97.3971 180.669 97.2759 180.42 96.925 180.152C96.4505 179.844 95.8958 179.682 95.33 179.686C94.7641 179.671 94.2058 179.82 93.7222 180.114C93.3713 180.356 93.2501 180.605 93.333 180.733Z"
        fill="#263238" />
    <path
        d="M105.615 188.255C105.62 188.517 105.523 188.77 105.344 188.962C105.166 189.154 104.919 189.269 104.658 189.282C104.53 189.294 104.401 189.281 104.279 189.243C104.156 189.204 104.043 189.142 103.945 189.06C103.847 188.977 103.766 188.876 103.708 188.762C103.649 188.647 103.614 188.523 103.605 188.395C103.599 188.133 103.695 187.88 103.872 187.687C104.05 187.495 104.294 187.378 104.555 187.361C104.684 187.349 104.813 187.363 104.937 187.401C105.06 187.44 105.174 187.502 105.273 187.586C105.371 187.669 105.452 187.771 105.511 187.886C105.57 188.001 105.605 188.126 105.615 188.255Z"
        fill="#263238" />
    <path
        d="M107.592 184.095C107.471 184.229 106.699 183.68 105.615 183.699C104.53 183.718 103.752 184.28 103.63 184.146C103.509 184.012 103.694 183.852 104.039 183.591C104.5 183.259 105.053 183.078 105.621 183.074C106.184 183.062 106.736 183.229 107.197 183.553C107.535 183.801 107.656 184.037 107.592 184.095Z"
        fill="#263238" />
    <path
        d="M106.942 180.637C106.737 180.886 105.895 180.637 104.894 180.637C103.892 180.637 103.037 180.835 102.839 180.58C102.75 180.458 102.884 180.209 103.248 179.942C103.752 179.646 104.329 179.498 104.913 179.514C105.493 179.507 106.062 179.669 106.552 179.98C106.916 180.261 107.037 180.516 106.942 180.637Z"
        fill="#263238" />
    <path
        d="M114.84 190.194C114.84 189.614 115.408 188.204 115.982 188.082C117.507 187.757 120.282 187.725 120.525 191.63C120.856 196.97 115.421 196.198 115.421 196.045C115.421 195.892 114.936 192.21 114.84 190.194Z"
        fill="#FFBF9D" />
    <path
        d="M116.754 194.003C116.754 194.003 116.85 194.067 117.009 194.124C117.234 194.216 117.486 194.216 117.711 194.124C118.26 193.882 118.681 192.957 118.649 191.993C118.633 191.535 118.516 191.086 118.304 190.679C118.244 190.515 118.145 190.368 118.015 190.251C117.885 190.134 117.728 190.051 117.558 190.009C117.45 189.988 117.338 190.005 117.241 190.057C117.145 190.11 117.069 190.194 117.028 190.296C116.965 190.449 117.028 190.558 116.977 190.564C116.926 190.571 116.856 190.481 116.888 190.258C116.909 190.124 116.977 190.002 117.079 189.913C117.148 189.853 117.228 189.807 117.314 189.778C117.401 189.75 117.493 189.739 117.583 189.748C117.806 189.774 118.017 189.859 118.196 189.994C118.376 190.128 118.516 190.307 118.604 190.513C118.859 190.962 119.001 191.465 119.019 191.981C119.051 193.059 118.56 194.099 117.807 194.367C117.666 194.418 117.516 194.437 117.367 194.422C117.218 194.408 117.074 194.361 116.945 194.284C116.754 194.137 116.754 194.016 116.754 194.003Z"
        fill="#FF9A6C" />
    <path
        d="M116.186 188.095L114.84 189.486C108.983 183.878 97.5375 169.842 98.1819 170.678C100.851 169.686 103.728 169.381 106.546 169.791C110.904 170.531 119.159 172.713 119.032 177.849C118.904 182.985 116.186 188.095 116.186 188.095Z"
        fill="#263238" />
    <path
        d="M123.944 186.934C123.927 186.829 123.899 186.727 123.861 186.628C123.764 186.337 123.642 186.056 123.498 185.786C122.945 184.797 122.183 183.941 121.265 183.278C119.911 182.306 118.4 181.575 116.799 181.115C115.012 180.535 113.003 180.082 111.025 179.201C109.16 178.424 107.391 177.433 105.755 176.248C104.417 175.278 103.169 174.189 102.029 172.994C101.264 172.185 100.546 171.333 99.8789 170.442L99.343 169.702C99.2832 169.612 99.2148 169.529 99.1388 169.453C99.1835 169.551 99.2369 169.645 99.2983 169.734C99.4068 169.912 99.5663 170.174 99.7896 170.499C100.428 171.422 101.13 172.301 101.889 173.128C104.407 175.866 107.489 178.025 110.923 179.457C112.823 180.177 114.759 180.801 116.722 181.326C118.317 181.761 119.827 182.462 121.188 183.399C122.096 184.038 122.863 184.857 123.44 185.805C123.772 186.5 123.912 186.934 123.944 186.934Z"
        fill="#455A64" />
    <path
        d="M122.388 187.757C122.405 187.358 122.335 186.959 122.183 186.589C121.781 185.569 121.08 184.693 120.174 184.076C118.817 183.202 117.298 182.609 115.708 182.334C113.805 181.953 111.95 181.362 110.176 180.573C108.41 179.767 106.752 178.745 105.238 177.53C104.007 176.533 102.875 175.42 101.857 174.206C101.163 173.382 100.524 172.515 99.9427 171.609L99.4898 170.863C99.443 170.773 99.3851 170.689 99.3175 170.614C99.3531 170.709 99.3957 170.8 99.4451 170.888L99.8534 171.667C100.396 172.596 101.006 173.486 101.678 174.327C102.684 175.573 103.815 176.713 105.053 177.728C106.575 178.967 108.25 180.007 110.036 180.822C111.825 181.62 113.7 182.209 115.625 182.576C117.186 182.837 118.682 183.4 120.027 184.235C120.916 184.821 121.617 185.652 122.043 186.628C122.192 186.993 122.308 187.371 122.388 187.757Z"
        fill="#455A64" />
    <path
        d="M116.008 197.142C116.008 197.104 116.461 197.046 117.252 196.836C118.361 196.516 119.382 195.946 120.238 195.171C121.491 193.998 122.443 192.54 123.013 190.922C123.741 188.949 124.134 186.868 124.174 184.765C124.198 183.678 124.11 182.592 123.912 181.524C123.377 178.836 122.115 176.347 120.263 174.327C119.174 173.171 117.973 172.126 116.677 171.207C116.677 171.207 116.786 171.246 116.977 171.36C117.169 171.475 117.443 171.628 117.781 171.871C118.75 172.536 119.645 173.304 120.448 174.161C121.651 175.432 122.625 176.902 123.325 178.506C123.732 179.457 124.041 180.447 124.251 181.46C124.456 182.551 124.548 183.661 124.525 184.771C124.487 186.913 124.079 189.033 123.319 191.036C122.715 192.693 121.714 194.176 120.403 195.356C119.509 196.134 118.441 196.687 117.29 196.97C116.977 197.041 116.659 197.092 116.339 197.123C116.229 197.138 116.118 197.144 116.008 197.142Z"
        fill="#455A64" />
    <path
        d="M122.802 262.799L91.234 267.386C79.3736 270.742 66.8815 271.724 53.8217 270.576L101.334 292.74L120.41 293.033C120.41 293.033 126.216 293.033 127.23 287.968C128.244 282.902 129.374 267.475 129.374 267.475C129.374 267.475 125.603 264.209 122.802 262.799Z"
        fill="#263238" />
    <g opacity="0.3">
        <path
            d="M122.706 276.088C123.228 279.25 123.417 282.457 123.268 285.658C124.238 284.594 124.952 283.322 125.356 281.94C125.761 280.558 125.845 279.102 125.603 277.683C125.329 276.126 124.678 274.41 125.495 273.051C126.043 272.139 127.491 271.093 127.281 270.053C127.281 270.053 126.005 270.053 124.863 270.008C123.938 269.97 122.017 269.912 122.017 269.912C122.844 271.897 123.022 274.092 122.528 276.184"
            fill="black" />
    </g>
    <path
        d="M100.3 211.242L115.638 209.583L118.445 212.135L107.497 218.579L102.667 221.08L97.8947 219.632L96.3827 216.786L100.3 211.242Z"
        fill="#FFBF9D" />
    <path
        d="M79.6224 229.916C79.6224 229.916 84.433 220.691 85.6196 218.674C87.6485 215.236 91.4382 213.29 91.4382 213.29L100.3 211.242C100.3 211.242 99.3813 215.708 104.894 215.989C111.912 216.378 116.269 209.653 116.269 209.653C116.269 209.653 124.27 210.476 126.477 211.401C128.685 212.326 134.937 214.949 135.856 223.255L137.999 236.826L121.092 238.102L121.322 256.17L114.138 262.046C114.138 262.046 93.5117 269.147 92.191 269.612C91.553 269.836 91.7189 261.07 90.2451 253.554L87.4635 246.798C86.3374 244.099 85.6711 241.231 85.492 238.312C85.3836 236.398 85.4346 234.931 85.4346 234.931C85.4346 234.931 81.0962 233.444 79.6224 229.916Z"
        fill="#455A64" />
    <path
        d="M92.9439 262.531L121.29 254.026L121.092 238.114L135.524 237.017C135.524 237.017 134.376 245.26 134.203 249.484C133.961 255.564 131.013 264.062 129.099 265.861C127.185 267.66 92.2102 269.625 92.2102 269.625L92.9439 262.531Z"
        fill="#FFBF9D" />
    <path
        d="M76.8662 267.533C77.003 267.767 77.2201 267.943 77.4772 268.028C77.7342 268.114 78.0137 268.103 78.2635 267.998C78.9015 267.743 78.7292 266.454 78.7292 266.454L81.7469 265.714C81.7469 265.714 85.9131 267.973 87.4889 269.542C89.0648 271.112 92.5291 269.472 92.5291 269.472L93.2501 262.856L87.2337 258.205C87.2337 258.205 87.6038 258.486 87.138 257.567C86.6723 256.648 84.9369 257.146 84.9369 257.146C84.6307 256.693 83.4632 256.616 83.4632 256.616L78.5697 257.567C78.0731 257.664 77.6045 257.87 77.1982 258.172C76.792 258.473 76.4583 258.862 76.2219 259.309L74.3908 262.773C74.3908 262.773 73.4721 265.236 73.6954 265.778C73.7916 266.002 73.967 266.184 74.1882 266.287C74.4093 266.391 74.6608 266.409 74.8948 266.339C74.8948 266.339 75.2585 267.883 75.6732 267.903C76.0922 267.851 76.4973 267.719 76.8662 267.513V267.533Z"
        fill="#FFBF9D" />
    <path
        d="M87.004 262.046C87.004 262.097 86.366 262.084 85.2942 262.212C83.9293 262.386 82.5943 262.744 81.3258 263.277C80.6294 263.575 79.9574 263.927 79.3161 264.33C78.7483 264.706 78.1486 265.032 77.9891 265.485C77.9547 265.582 77.946 265.687 77.9639 265.788C77.9818 265.89 78.0256 265.985 78.0912 266.065C78.192 266.198 78.3296 266.297 78.4867 266.352C78.7547 266.435 78.9142 266.352 78.927 266.352C78.9397 266.352 78.7802 266.499 78.4548 266.442C78.2622 266.399 78.0881 266.296 77.9572 266.148C77.8633 266.047 77.7974 265.923 77.7661 265.789C77.7347 265.655 77.739 265.515 77.7786 265.382C77.8875 265.085 78.083 264.827 78.34 264.642C78.5952 264.445 78.8632 264.247 79.163 264.049C80.9908 262.852 83.0906 262.134 85.2687 261.963C85.8478 261.897 86.4339 261.925 87.004 262.046Z"
        fill="#FF9A6C" />
    <path
        d="M87.5974 265.166C87.5974 265.255 85.5813 265.331 83.1314 265.663C80.6815 265.995 78.7164 266.454 78.6654 266.365C79.0702 266.17 79.4994 266.031 79.9414 265.95C80.9753 265.69 82.0234 265.49 83.0804 265.351C84.1381 265.207 85.2032 265.124 86.2704 265.102C86.7135 265.062 87.16 265.084 87.5974 265.166Z"
        fill="#FF9A6C" />
    <path
        d="M76.8854 267.405C76.8336 267.237 76.7994 267.063 76.7833 266.888C76.7176 266.408 76.6792 265.924 76.6685 265.44C76.6629 265.103 76.6842 264.766 76.7323 264.432C76.7914 264.039 76.928 263.662 77.1342 263.322C77.5586 262.535 78.1355 261.841 78.8313 261.28C79.5195 260.718 80.2843 260.256 81.1026 259.908C81.7809 259.657 82.4883 259.492 83.208 259.417C83.846 259.347 84.3053 259.328 84.6499 259.309C84.8254 259.283 85.0038 259.283 85.1794 259.309C84.5483 259.453 83.9092 259.56 83.2654 259.628C82.5711 259.73 81.8906 259.909 81.2366 260.164C80.4516 260.514 79.7176 260.969 79.0546 261.516C78.3933 262.048 77.8354 262.697 77.4086 263.43C77.068 264.035 76.8982 264.721 76.9173 265.414C76.8663 266.646 76.9556 267.405 76.8854 267.405Z"
        fill="#FF9A6C" />
    <path
        d="M83.3228 257.905C83.3228 257.956 82.5891 258.033 81.4088 258.256C80.2285 258.479 78.474 258.741 77.5808 260.387C76.6691 261.635 75.9328 263.003 75.3924 264.451C75.224 265.067 75.115 265.697 75.0671 266.333C75.0075 266.166 74.9835 265.987 74.9969 265.81C74.9853 265.329 75.0455 264.85 75.1755 264.387C75.6611 262.888 76.3849 261.477 77.3192 260.208C77.5675 259.824 77.8657 259.474 78.206 259.168C78.5343 258.887 78.9132 258.67 79.3225 258.53C79.9934 258.298 80.6859 258.133 81.3896 258.039C82.0259 257.914 82.6753 257.869 83.3228 257.905Z"
        fill="#FF9A6C" />
    <path
        d="M86.3022 268.598C86.1918 268.54 86.0871 268.472 85.9896 268.394L85.1156 267.801C84.0141 267.075 82.8724 266.412 81.6959 265.816H81.7661L78.7547 266.576L78.8504 266.435C78.8791 266.685 78.8791 266.938 78.8504 267.188C78.8316 267.464 78.7317 267.728 78.5633 267.947C78.4587 268.057 78.3229 268.133 78.1741 268.164C78.037 268.212 77.8916 268.232 77.7467 268.222C77.4471 268.2 77.1647 268.074 76.9492 267.864C76.8969 267.81 76.8479 267.752 76.8024 267.692V267.647L76.9811 267.698L76.8854 267.743C76.7613 267.808 76.6335 267.866 76.5026 267.915C76.3691 267.968 76.2327 268.012 76.0942 268.049C76.0213 268.071 75.9466 268.086 75.8709 268.094C75.7741 268.11 75.6748 268.099 75.5838 268.062C75.4381 267.97 75.3228 267.837 75.2521 267.679C75.1813 267.547 75.1195 267.411 75.0671 267.271C74.9598 266.995 74.8724 266.711 74.8055 266.422L74.9905 266.531C74.7872 266.593 74.5705 266.598 74.3645 266.545C74.1585 266.492 73.9711 266.384 73.823 266.231C73.6689 266.068 73.5784 265.855 73.5678 265.631C73.5673 265.43 73.5865 265.229 73.6252 265.032C73.7959 264.263 74.0219 263.509 74.3015 262.773L75.2776 260.923L75.9156 259.755C76.1047 259.352 76.3357 258.969 76.6046 258.613C76.8971 258.271 77.255 257.992 77.6573 257.79C78.0497 257.61 78.4669 257.49 78.8951 257.433L83.5014 256.546H83.5397C83.8229 256.568 84.1031 256.619 84.3755 256.699C84.6647 256.763 84.9261 256.917 85.1219 257.14L84.9433 257.101C85.1864 256.967 85.4584 256.893 85.7361 256.886C86.0138 256.88 86.2891 256.94 86.5383 257.063C86.9692 257.335 87.2832 257.758 87.4187 258.25L87.3741 258.192L91.5211 261.382L92.6376 262.263C92.7721 262.36 92.898 262.469 93.014 262.588C92.8674 262.512 92.7285 262.423 92.5993 262.32L91.4445 261.484L87.2337 258.384H87.2018V258.339C87.0831 257.912 86.8074 257.545 86.4298 257.312C86.2194 257.211 85.9877 257.162 85.7545 257.17C85.5212 257.178 85.2932 257.242 85.09 257.356L84.9816 257.407L84.9114 257.318C84.7492 257.15 84.5403 257.034 84.3117 256.986C84.0573 256.916 83.7966 256.871 83.5333 256.852H83.5716L78.9652 257.758C78.5631 257.811 78.1714 257.925 77.8041 258.097C77.4419 258.276 77.1205 258.528 76.8598 258.837C76.6086 259.176 76.3947 259.542 76.2218 259.928L75.5838 261.095C75.2457 261.733 74.9458 262.371 74.6077 262.945C74.3445 263.666 74.1314 264.403 73.9697 265.153C73.933 265.327 73.9138 265.504 73.9123 265.682C73.9208 265.835 73.9842 265.98 74.0909 266.091C74.2006 266.201 74.338 266.279 74.4885 266.317C74.639 266.355 74.797 266.352 74.9458 266.308L75.099 266.269V266.416C75.1691 266.69 75.2521 266.971 75.3478 267.233C75.4178 267.472 75.5447 267.691 75.7178 267.871C75.7594 267.883 75.8038 267.883 75.8454 267.871L76.0304 267.832C76.1594 267.804 76.2854 267.763 76.4069 267.711C76.5281 267.667 76.6493 267.609 76.7705 267.552L76.8598 267.513L77.0449 267.564V267.596C77.0796 267.646 77.118 267.693 77.1597 267.737C77.2786 267.863 77.4312 267.954 77.5997 267.997C77.7681 268.04 77.9452 268.033 78.1103 267.979C78.2122 267.962 78.3059 267.913 78.3783 267.839C78.6031 267.454 78.6866 267.003 78.6143 266.563V266.448H78.7164L81.7405 265.733H81.7788C82.9546 266.346 84.0866 267.038 85.1666 267.807C85.543 268.081 85.8046 268.298 86.0151 268.445C86.1144 268.489 86.2103 268.54 86.3022 268.598Z"
        fill="#FF9A6C" />
    <path
        d="M71.5645 272.694C71.5645 272.694 51.5632 266.41 45.2852 264.4C34.4392 260.891 27.383 264.438 25.15 268.305C22.2534 273.326 29.2013 283.119 31.8809 285.371C39.8112 292.038 53.407 292.938 53.407 292.938L102.291 292.848L88.044 273.466L71.5645 272.694Z"
        fill="#263238" />
    <path
        d="M74.5631 281.766C66.4172 282.714 58.1639 281.591 50.5679 278.5C49.272 277.914 47.9376 277.417 46.574 277.013C45.226 276.673 43.8287 276.574 42.4461 276.72C41.8975 276.734 41.3572 276.858 40.8574 277.085C40.3577 277.312 39.9086 277.637 39.5369 278.04C38.5607 279.316 39.0584 281.154 39.6007 282.672C40.2387 284.459 40.8767 286.283 42.1527 287.712C43.6009 289.378 45.7063 290.335 47.8181 290.998C51.946 292.274 56.3035 292.676 60.6291 292.842L75.4818 292.032L74.5631 281.766Z"
        fill="#E0E0E0" />
    <path
        d="M45.8786 277.02C45.9761 277.139 46.0517 277.275 46.1019 277.422C46.2744 277.802 46.4069 278.2 46.4974 278.608C46.8181 279.966 46.7618 281.385 46.3345 282.713C45.9072 284.041 45.1252 285.227 44.073 286.143C43.7598 286.417 43.4224 286.663 43.065 286.877C42.8034 287.023 42.6567 287.087 42.6439 287.068C42.6311 287.049 43.1798 286.698 43.9199 285.977C44.8909 285.049 45.6148 283.893 46.0259 282.614C46.437 281.335 46.5223 279.973 46.2741 278.653C46.0955 277.632 45.8275 277.039 45.8786 277.02Z"
        fill="#263238" />
    <path
        d="M122.617 271.469C121.456 268.177 121.265 263.341 114.1 261.019C106.935 258.696 101.525 263.149 97.8437 264.693C94.1624 266.237 74.0463 277.275 74.0463 277.275C74.0463 277.275 70.2566 284.031 71.3348 287.017C72.413 290.003 77.3128 292.95 77.3128 292.95H99.8151C105.621 292.95 116.403 292.753 116.403 292.753C117.847 290.386 119.14 287.932 120.276 285.403L120.467 284.433C120.486 283.661 123.772 274.761 122.617 271.469Z"
        fill="#263238" />
    <path
        d="M110.151 288.561C110.122 288.675 110.065 288.78 109.985 288.867C109.767 289.12 109.518 289.345 109.245 289.537C108.24 290.23 107.172 290.826 106.055 291.317C105.292 291.673 104.508 291.982 103.707 292.242C102.78 292.534 101.83 292.747 100.868 292.88C98.6718 293.099 96.4645 293.184 94.2582 293.135C89.5816 293.212 85.3262 293.391 82.2638 293.352C80.7262 293.352 79.4821 293.282 78.6272 293.193C78.2974 293.164 77.9694 293.117 77.6447 293.053C77.5296 293.039 77.4163 293.013 77.3065 292.976C77.3065 292.944 77.7786 293.027 78.6336 293.072C79.4885 293.116 80.7326 293.148 82.2638 293.135C85.3326 293.135 89.5689 292.899 94.2582 292.823C96.4534 292.87 98.6494 292.794 100.836 292.593C101.781 292.477 102.716 292.285 103.63 292.019C104.426 291.773 105.206 291.479 105.965 291.139C107.075 290.672 108.142 290.11 109.155 289.461C109.431 289.276 109.686 289.062 109.915 288.823C110.093 288.669 110.132 288.555 110.151 288.561Z"
        fill="#263238" />
    <path
        d="M77.3129 292.95L77.013 292.791C76.8216 292.683 76.5409 292.504 76.1772 292.268C75.1191 291.577 74.128 290.789 73.2169 289.914C72.5569 289.281 71.9937 288.554 71.5454 287.757C71.0872 286.759 70.9706 285.638 71.2136 284.567C71.7607 282.002 72.6784 279.531 73.9379 277.23V277.198C77.6255 275.169 81.8554 272.866 86.4746 270.384C88.7841 269.147 91.1894 267.864 93.6903 266.556C94.9663 265.918 96.2423 265.28 97.5183 264.642C98.7943 264.004 100.102 263.366 101.423 262.677C103.247 261.678 105.204 260.941 107.235 260.489C108.233 260.29 109.249 260.198 110.266 260.215C111.261 260.245 112.249 260.386 113.213 260.636C115.082 261.096 116.836 261.934 118.368 263.098C119.081 263.689 119.711 264.371 120.244 265.127C120.734 265.873 121.138 266.671 121.45 267.507C121.769 268.324 121.992 269.147 122.222 269.951C122.485 270.732 122.698 271.529 122.86 272.337C122.96 273.881 122.831 275.431 122.477 276.937C122.19 278.372 121.839 279.712 121.475 280.956C121.297 281.594 121.118 282.187 120.952 282.768C120.786 283.349 120.595 283.923 120.505 284.433C120.429 284.797 120.372 285.071 120.308 285.397C119.693 287.368 118.825 289.251 117.724 290.998C117.334 291.623 116.874 292.201 116.352 292.721L116.435 292.606C116.505 292.523 116.595 292.421 116.703 292.281C117.041 291.855 117.356 291.412 117.647 290.954C118.71 289.196 119.548 287.312 120.142 285.346C120.505 285.039 120.435 284.739 120.327 284.376C120.438 283.794 120.583 283.219 120.761 282.653L121.277 280.848C121.622 279.572 121.967 278.257 122.247 276.835C122.587 275.352 122.707 273.828 122.605 272.311C122.437 271.519 122.224 270.737 121.967 269.97C121.73 269.166 121.501 268.349 121.188 267.552C120.884 266.735 120.488 265.956 120.008 265.229C119.49 264.498 118.876 263.839 118.183 263.271C115.889 261.551 113.125 260.572 110.259 260.464C109.265 260.447 108.273 260.539 107.299 260.738C105.292 261.183 103.359 261.911 101.557 262.901C100.281 263.539 99.0049 264.304 97.6332 264.872C96.2615 265.44 95.0812 266.116 93.8052 266.786C91.3106 268.062 88.899 269.338 86.5894 270.614L74.0336 277.383L74.0782 277.332C72.8225 279.606 71.9007 282.049 71.3412 284.586C71.0895 285.621 71.1905 286.71 71.6283 287.681C72.0578 288.471 72.6042 289.191 73.2488 289.818C74.1435 290.7 75.115 291.501 76.1517 292.21L76.9684 292.759C77.198 292.88 77.3129 292.95 77.3129 292.95Z"
        fill="#263238" />
    <path
        d="M113.934 284.599C113.934 284.599 120.639 285.403 120.046 288.682C119.453 291.962 117.258 293.065 117.258 293.065L99.0367 293.104C99.0367 293.104 109.915 292.351 113.934 284.599Z"
        fill="#E0E0E0" />
    <path
        d="M114.585 283.01C114.583 283.33 114.514 283.645 114.381 283.936C114.134 284.669 113.767 285.357 113.296 285.971C112.661 286.866 111.772 287.55 110.744 287.936C111.59 287.301 112.366 286.578 113.06 285.779C113.645 284.901 114.155 283.974 114.585 283.01Z"
        fill="#263238" />
    <path
        d="M112.288 284.293C112.299 285.116 112.078 285.925 111.65 286.628C111.323 287.373 110.822 288.03 110.189 288.542C110.119 288.484 110.776 287.636 111.369 286.468C111.963 285.301 112.173 284.28 112.288 284.293Z"
        fill="#263238" />
    <path
        d="M120.812 292.153C120.761 292.153 121.195 291.298 121.718 289.888C123.091 286.206 123.545 282.244 123.038 278.347C122.841 276.86 122.611 275.948 122.662 275.935C122.763 276.137 122.836 276.351 122.879 276.573C123.036 277.15 123.162 277.736 123.255 278.327C123.894 282.259 123.434 286.29 121.928 289.977C121.701 290.521 121.443 291.051 121.156 291.566C121.065 291.775 120.949 291.972 120.812 292.153Z"
        fill="#455A64" />
    <g opacity="0.3">
        <path
            d="M117.022 282.832C116.971 282.392 116.799 281.868 116.384 281.779C115.848 281.671 115.484 282.283 115.274 282.781C112.926 288.121 105.34 292.287 99.528 292.842C102.347 292.836 105.161 292.605 107.943 292.153C110.316 291.798 112.54 290.78 114.361 289.218C115.267 288.431 115.978 287.444 116.44 286.337C116.901 285.229 117.1 284.029 117.022 282.832Z"
            fill="black" />
    </g>
    <path
        d="M72.63 275.565C71.5189 275.253 70.4384 274.841 69.4017 274.334C68.3241 273.925 67.2862 273.419 66.301 272.822C67.4107 273.135 68.4909 273.545 69.5293 274.047C70.6072 274.457 71.6451 274.965 72.63 275.565Z"
        fill="#263238" />
    <g opacity="0.2">
        <path
            d="M79.112 272.745C70.4352 271.086 61.7265 269.612 52.9859 268.324L46.4783 270.378C48.303 273.772 51.9077 275.935 55.6527 276.828C59.3978 277.721 63.3087 277.511 67.1367 277.16C71.3603 276.771 75.6987 276.177 79.3736 274.059C79.6543 273.9 79.9733 273.657 79.935 273.332C79.8967 273.007 79.4884 272.815 79.112 272.745Z"
            fill="black" />
    </g>
    <path
        d="M36.4043 246.906L47.3396 271.086C47.5608 271.579 47.9189 271.998 48.3713 272.293C48.8237 272.588 49.3514 272.747 49.8916 272.751L81.7916 273.166L85.811 271.003L79.5139 270.544L69.7143 247.027C69.5617 246.661 69.305 246.348 68.9761 246.127C68.6471 245.906 68.2604 245.786 67.8641 245.783L37.3102 245.553C37.1473 245.548 36.9855 245.583 36.8402 245.657C36.695 245.732 36.5711 245.842 36.4803 245.977C36.3895 246.113 36.3349 246.269 36.3216 246.432C36.3083 246.594 36.3368 246.758 36.4043 246.906Z"
        fill="#E0E0E0" />
    <path
        d="M36.4043 246.906C36.3521 246.816 36.3195 246.716 36.3086 246.613C36.2884 246.459 36.3051 246.304 36.3573 246.158C36.4094 246.013 36.4955 245.882 36.6085 245.777C36.7829 245.615 37.0088 245.52 37.2465 245.509H40.0473L52.8392 245.553L61.7329 245.598L66.7029 245.63H67.9789C68.4515 245.664 68.8998 245.852 69.2549 246.166C69.5972 246.487 69.85 246.892 69.9886 247.34L70.5118 248.616C73.2998 255.296 76.3814 262.684 79.6479 270.493L79.4948 270.384L85.575 270.831H85.7919L86.4299 270.876L85.8876 271.169L81.8682 273.332H81.8235H81.7789L57.5987 273L52.2012 272.924C51.3208 272.924 50.4786 272.924 49.6045 272.873C49.168 272.821 48.748 272.674 48.3743 272.443C48.0006 272.211 47.6823 271.901 47.4417 271.533C46.019 268.541 44.8323 265.791 43.6775 263.239L38.3311 251.283C37.6931 249.885 37.2337 248.794 36.902 248.035C36.7425 247.678 36.6276 247.397 36.5383 247.193C36.449 246.989 36.4235 246.9 36.4235 246.9C36.4779 246.99 36.5269 247.084 36.5702 247.18L36.9657 248.01C37.3103 248.756 37.8079 249.841 38.4523 251.2L43.9008 263.118C45.0556 265.625 46.2933 268.445 47.6841 271.354C47.9006 271.686 48.188 271.966 48.5256 272.173C48.8632 272.38 49.2426 272.51 49.6364 272.554C50.4531 272.592 51.3399 272.585 52.1884 272.598L57.5859 272.662L81.7661 272.956H81.6768L85.6962 270.786L85.7728 271.124H85.5558L79.4757 270.684H79.3672L79.3226 270.589C76.0751 262.767 73 255.379 70.2183 248.692L69.7015 247.448C69.5878 247.043 69.3675 246.675 69.0635 246.383C68.7602 246.109 68.3738 245.945 67.9662 245.917H66.6902L61.7201 245.872L52.8328 245.783L40.0282 245.63H38.0248H37.2337C37.1073 245.635 36.9832 245.665 36.869 245.719C36.7547 245.773 36.6527 245.85 36.5691 245.945C36.4856 246.04 36.4222 246.151 36.3829 246.271C36.3436 246.392 36.3292 246.518 36.3405 246.644C36.3569 246.733 36.3782 246.82 36.4043 246.906Z"
        fill="#263238" />
    <path
        d="M78.5505 273.121C78.4911 273.038 78.4418 272.948 78.4038 272.853L78.0401 272.075C77.7211 271.348 77.2873 270.365 76.7641 269.179C75.6987 266.722 74.2504 263.328 72.6937 259.551C71.137 255.774 69.7589 252.348 68.8083 249.854C68.3298 248.578 67.9534 247.589 67.7109 246.88C67.5961 246.555 67.5068 246.287 67.4302 246.064C67.3945 245.969 67.3688 245.871 67.3536 245.77C67.412 245.853 67.4592 245.943 67.494 246.038L67.8258 246.836C68.1256 247.576 68.5276 248.565 69.0124 249.771C70.046 252.284 71.4432 255.679 72.9808 259.436C74.5184 263.194 75.9347 266.576 76.9683 269.089L78.1614 272.024C78.2826 272.349 78.3847 272.611 78.4676 272.828C78.5119 272.92 78.5399 273.02 78.5505 273.121Z"
        fill="#263238" />
    <path
        d="M58.7726 258.626C58.7739 258.937 58.6827 259.241 58.5108 259.5C58.3388 259.759 58.0937 259.962 57.8067 260.081C57.5197 260.201 57.2036 260.232 56.8985 260.172C56.5935 260.112 56.3132 259.962 56.0934 259.742C55.8735 259.522 55.7239 259.242 55.6635 258.937C55.6032 258.632 55.6348 258.316 55.7544 258.029C55.8739 257.742 56.0761 257.497 56.3352 257.325C56.5942 257.153 56.8986 257.062 57.2095 257.063C57.6241 257.063 58.0217 257.228 58.3148 257.521C58.6079 257.814 58.7726 258.211 58.7726 258.626Z"
        fill="white" />
    <path
        d="M89.8113 219.727C89.8623 219.727 89.4029 220.614 88.7585 222.043C87.0719 225.774 85.9701 229.742 85.492 233.808C85.3006 235.371 85.2495 236.36 85.1921 236.36C85.158 236.131 85.158 235.899 85.1921 235.671C85.1921 235.231 85.1921 234.593 85.2814 233.801C85.642 229.684 86.7626 225.669 88.5863 221.96C88.9372 221.252 89.2243 220.684 89.4731 220.314C89.5617 220.106 89.6753 219.908 89.8113 219.727Z"
        fill="#263238" />
    <path
        d="M137.999 236.826C137.885 236.86 137.767 236.88 137.648 236.883L136.634 236.979L132.844 237.298L119.887 238.274H119.721V238.108C119.612 236.385 119.497 234.567 119.383 232.704C119.197 229.45 119.038 226.324 118.987 223.523C118.822 221 119.396 218.484 120.639 216.282C121.493 214.797 122.752 213.586 124.27 212.792C124.679 212.587 125.106 212.418 125.546 212.288C125.698 212.24 125.854 212.202 126.011 212.173C126.011 212.224 125.373 212.358 124.321 212.907C122.858 213.729 121.65 214.939 120.831 216.403C119.648 218.583 119.119 221.057 119.306 223.53C119.37 226.343 119.536 229.444 119.721 232.698C119.835 234.561 119.944 236.379 120.052 238.095L119.874 237.942L132.844 237.087L136.672 236.864L137.687 236.826H137.999Z"
        fill="#263238" />
    <path
        d="M106.208 247.876C106.011 247.838 105.822 247.769 105.646 247.672C105.427 247.58 105.214 247.473 105.008 247.353C104.733 247.205 104.467 247.04 104.211 246.861C103.532 246.403 102.905 245.873 102.342 245.279C101.659 244.543 101.06 243.734 100.555 242.867C100.068 241.991 99.6804 241.062 99.4004 240.099C99.1782 239.312 99.0413 238.503 98.9921 237.687C98.9733 237.375 98.9733 237.061 98.9921 236.749C98.993 236.512 99.0101 236.275 99.0431 236.041C99.0489 235.838 99.0877 235.638 99.1579 235.448C99.2217 235.448 99.1133 236.309 99.2473 237.668C99.3274 238.461 99.4834 239.245 99.713 240.009C100.006 240.943 100.393 241.845 100.868 242.702C101.356 243.546 101.931 244.337 102.584 245.062C103.127 245.65 103.723 246.186 104.364 246.664C105.449 247.474 106.24 247.818 106.208 247.876Z"
        fill="#263238" />
</svg>
