<svg fill="none" height="30" viewBox="0 0 30 30" width="30" xmlns="http://www.w3.org/2000/svg">
    <path
        d="M0 0H1.2V1.2H0V0ZM1.2 0H2.4V1.2H1.2V0ZM2.4 0H3.6V1.2H2.4V0ZM3.6 0H4.8V1.2H3.6V0ZM4.8 0H6V1.2H4.8V0ZM6 0H7.2V1.2H6V0ZM7.2 0H8.4V1.2H7.2V0ZM10.8 0H12V1.2H10.8V0ZM19.2 0H20.4V1.2H19.2V0ZM21.6 0H22.8V1.2H21.6V0ZM22.8 0H24V1.2H22.8V0ZM24 0H25.2V1.2H24V0ZM25.2 0H26.4V1.2H25.2V0ZM26.4 0H27.6V1.2H26.4V0ZM27.6 0H28.8V1.2H27.6V0ZM28.8 0H30V1.2H28.8V0ZM0 1.2H1.2V2.4H0V1.2ZM7.2 1.2H8.4V2.4H7.2V1.2ZM9.6 1.2H10.8V2.4H9.6V1.2ZM10.8 1.2H12V2.4H10.8V1.2ZM13.2 1.2H14.4V2.4H13.2V1.2ZM14.4 1.2H15.6V2.4H14.4V1.2ZM16.8 1.2H18V2.4H16.8V1.2ZM18 1.2H19.2V2.4H18V1.2ZM21.6 1.2H22.8V2.4H21.6V1.2ZM28.8 1.2H30V2.4H28.8V1.2ZM0 2.4H1.2V3.6H0V2.4ZM2.4 2.4H3.6V3.6H2.4V2.4ZM3.6 2.4H4.8V3.6H3.6V2.4ZM4.8 2.4H6V3.6H4.8V2.4ZM7.2 2.4H8.4V3.6H7.2V2.4ZM10.8 2.4H12V3.6H10.8V2.4ZM12 2.4H13.2V3.6H12V2.4ZM13.2 2.4H14.4V3.6H13.2V2.4ZM15.6 2.4H16.8V3.6H15.6V2.4ZM16.8 2.4H18V3.6H16.8V2.4ZM19.2 2.4H20.4V3.6H19.2V2.4ZM21.6 2.4H22.8V3.6H21.6V2.4ZM24 2.4H25.2V3.6H24V2.4ZM25.2 2.4H26.4V3.6H25.2V2.4ZM26.4 2.4H27.6V3.6H26.4V2.4ZM28.8 2.4H30V3.6H28.8V2.4ZM0 3.6H1.2V4.8H0V3.6ZM2.4 3.6H3.6V4.8H2.4V3.6ZM3.6 3.6H4.8V4.8H3.6V3.6ZM4.8 3.6H6V4.8H4.8V3.6ZM7.2 3.6H8.4V4.8H7.2V3.6ZM9.6 3.6H10.8V4.8H9.6V3.6ZM10.8 3.6H12V4.8H10.8V3.6ZM13.2 3.6H14.4V4.8H13.2V3.6ZM21.6 3.6H22.8V4.8H21.6V3.6ZM24 3.6H25.2V4.8H24V3.6ZM25.2 3.6H26.4V4.8H25.2V3.6ZM26.4 3.6H27.6V4.8H26.4V3.6ZM28.8 3.6H30V4.8H28.8V3.6ZM0 4.8H1.2V6H0V4.8ZM2.4 4.8H3.6V6H2.4V4.8ZM3.6 4.8H4.8V6H3.6V4.8ZM4.8 4.8H6V6H4.8V4.8ZM7.2 4.8H8.4V6H7.2V4.8ZM12 4.8H13.2V6H12V4.8ZM14.4 4.8H15.6V6H14.4V4.8ZM16.8 4.8H18V6H16.8V4.8ZM18 4.8H19.2V6H18V4.8ZM19.2 4.8H20.4V6H19.2V4.8ZM21.6 4.8H22.8V6H21.6V4.8ZM24 4.8H25.2V6H24V4.8ZM25.2 4.8H26.4V6H25.2V4.8ZM26.4 4.8H27.6V6H26.4V4.8ZM28.8 4.8H30V6H28.8V4.8ZM0 6H1.2V7.2H0V6ZM7.2 6H8.4V7.2H7.2V6ZM9.6 6H10.8V7.2H9.6V6ZM12 6H13.2V7.2H12V6ZM21.6 6H22.8V7.2H21.6V6ZM28.8 6H30V7.2H28.8V6ZM0 7.2H1.2V8.4H0V7.2ZM1.2 7.2H2.4V8.4H1.2V7.2ZM2.4 7.2H3.6V8.4H2.4V7.2ZM3.6 7.2H4.8V8.4H3.6V7.2ZM4.8 7.2H6V8.4H4.8V7.2ZM6 7.2H7.2V8.4H6V7.2ZM7.2 7.2H8.4V8.4H7.2V7.2ZM9.6 7.2H10.8V8.4H9.6V7.2ZM12 7.2H13.2V8.4H12V7.2ZM14.4 7.2H15.6V8.4H14.4V7.2ZM16.8 7.2H18V8.4H16.8V7.2ZM19.2 7.2H20.4V8.4H19.2V7.2ZM21.6 7.2H22.8V8.4H21.6V7.2ZM22.8 7.2H24V8.4H22.8V7.2ZM24 7.2H25.2V8.4H24V7.2ZM25.2 7.2H26.4V8.4H25.2V7.2ZM26.4 7.2H27.6V8.4H26.4V7.2ZM27.6 7.2H28.8V8.4H27.6V7.2ZM28.8 7.2H30V8.4H28.8V7.2ZM14.4 8.4H15.6V9.6H14.4V8.4ZM16.8 8.4H18V9.6H16.8V8.4ZM18 8.4H19.2V9.6H18V8.4ZM0 9.6H1.2V10.8H0V9.6ZM1.2 9.6H2.4V10.8H1.2V9.6ZM2.4 9.6H3.6V10.8H2.4V9.6ZM3.6 9.6H4.8V10.8H3.6V9.6ZM4.8 9.6H6V10.8H4.8V9.6ZM7.2 9.6H8.4V10.8H7.2V9.6ZM8.4 9.6H9.6V10.8H8.4V9.6ZM9.6 9.6H10.8V10.8H9.6V9.6ZM10.8 9.6H12V10.8H10.8V9.6ZM12 9.6H13.2V10.8H12V9.6ZM14.4 9.6H15.6V10.8H14.4V9.6ZM15.6 9.6H16.8V10.8H15.6V9.6ZM16.8 9.6H18V10.8H16.8V9.6ZM18 9.6H19.2V10.8H18V9.6ZM19.2 9.6H20.4V10.8H19.2V9.6ZM20.4 9.6H21.6V10.8H20.4V9.6ZM22.8 9.6H24V10.8H22.8V9.6ZM25.2 9.6H26.4V10.8H25.2V9.6ZM27.6 9.6H28.8V10.8H27.6V9.6ZM0 10.8H1.2V12H0V10.8ZM2.4 10.8H3.6V12H2.4V10.8ZM3.6 10.8H4.8V12H3.6V10.8ZM6 10.8H7.2V12H6V10.8ZM8.4 10.8H9.6V12H8.4V10.8ZM10.8 10.8H12V12H10.8V10.8ZM16.8 10.8H18V12H16.8V10.8ZM19.2 10.8H20.4V12H19.2V10.8ZM21.6 10.8H22.8V12H21.6V10.8ZM1.2 12H2.4V13.2H1.2V12ZM2.4 12H3.6V13.2H2.4V12ZM4.8 12H6V13.2H4.8V12ZM6 12H7.2V13.2H6V12ZM7.2 12H8.4V13.2H7.2V12ZM9.6 12H10.8V13.2H9.6V12ZM10.8 12H12V13.2H10.8V12ZM13.2 12H14.4V13.2H13.2V12ZM14.4 12H15.6V13.2H14.4V12ZM15.6 12H16.8V13.2H15.6V12ZM16.8 12H18V13.2H16.8V12ZM18 12H19.2V13.2H18V12ZM19.2 12H20.4V13.2H19.2V12ZM22.8 12H24V13.2H22.8V12ZM27.6 12H28.8V13.2H27.6V12ZM28.8 12H30V13.2H28.8V12ZM0 13.2H1.2V14.4H0V13.2ZM1.2 13.2H2.4V14.4H1.2V13.2ZM8.4 13.2H9.6V14.4H8.4V13.2ZM10.8 13.2H12V14.4H10.8V13.2ZM12 13.2H13.2V14.4H12V13.2ZM13.2 13.2H14.4V14.4H13.2V13.2ZM18 13.2H19.2V14.4H18V13.2ZM22.8 13.2H24V14.4H22.8V13.2ZM28.8 13.2H30V14.4H28.8V13.2ZM0 14.4H1.2V15.6H0V14.4ZM1.2 14.4H2.4V15.6H1.2V14.4ZM2.4 14.4H3.6V15.6H2.4V14.4ZM3.6 14.4H4.8V15.6H3.6V14.4ZM7.2 14.4H8.4V15.6H7.2V14.4ZM8.4 14.4H9.6V15.6H8.4V14.4ZM9.6 14.4H10.8V15.6H9.6V14.4ZM10.8 14.4H12V15.6H10.8V14.4ZM13.2 14.4H14.4V15.6H13.2V14.4ZM19.2 14.4H20.4V15.6H19.2V14.4ZM21.6 14.4H22.8V15.6H21.6V14.4ZM24 14.4H25.2V15.6H24V14.4ZM25.2 14.4H26.4V15.6H25.2V14.4ZM26.4 14.4H27.6V15.6H26.4V14.4ZM27.6 14.4H28.8V15.6H27.6V14.4ZM0 15.6H1.2V16.8H0V15.6ZM4.8 15.6H6V16.8H4.8V15.6ZM9.6 15.6H10.8V16.8H9.6V15.6ZM10.8 15.6H12V16.8H10.8V15.6ZM12 15.6H13.2V16.8H12V15.6ZM14.4 15.6H15.6V16.8H14.4V15.6ZM15.6 15.6H16.8V16.8H15.6V15.6ZM19.2 15.6H20.4V16.8H19.2V15.6ZM22.8 15.6H24V16.8H22.8V15.6ZM26.4 15.6H27.6V16.8H26.4V15.6ZM0 16.8H1.2V18H0V16.8ZM2.4 16.8H3.6V18H2.4V16.8ZM3.6 16.8H4.8V18H3.6V16.8ZM6 16.8H7.2V18H6V16.8ZM7.2 16.8H8.4V18H7.2V16.8ZM8.4 16.8H9.6V18H8.4V16.8ZM15.6 16.8H16.8V18H15.6V16.8ZM16.8 16.8H18V18H16.8V16.8ZM18 16.8H19.2V18H18V16.8ZM19.2 16.8H20.4V18H19.2V16.8ZM21.6 16.8H22.8V18H21.6V16.8ZM24 16.8H25.2V18H24V16.8ZM26.4 16.8H27.6V18H26.4V16.8ZM27.6 16.8H28.8V18H27.6V16.8ZM28.8 16.8H30V18H28.8V16.8ZM0 18H1.2V19.2H0V18ZM9.6 18H10.8V19.2H9.6V18ZM14.4 18H15.6V19.2H14.4V18ZM15.6 18H16.8V19.2H15.6V18ZM19.2 18H20.4V19.2H19.2V18ZM21.6 18H22.8V19.2H21.6V18ZM22.8 18H24V19.2H22.8V18ZM24 18H25.2V19.2H24V18ZM25.2 18H26.4V19.2H25.2V18ZM27.6 18H28.8V19.2H27.6V18ZM0 19.2H1.2V20.4H0V19.2ZM6 19.2H7.2V20.4H6V19.2ZM7.2 19.2H8.4V20.4H7.2V19.2ZM12 19.2H13.2V20.4H12V19.2ZM14.4 19.2H15.6V20.4H14.4V19.2ZM16.8 19.2H18V20.4H16.8V19.2ZM18 19.2H19.2V20.4H18V19.2ZM19.2 19.2H20.4V20.4H19.2V19.2ZM20.4 19.2H21.6V20.4H20.4V19.2ZM21.6 19.2H22.8V20.4H21.6V19.2ZM22.8 19.2H24V20.4H22.8V19.2ZM24 19.2H25.2V20.4H24V19.2ZM25.2 19.2H26.4V20.4H25.2V19.2ZM26.4 19.2H27.6V20.4H26.4V19.2ZM27.6 19.2H28.8V20.4H27.6V19.2ZM9.6 20.4H10.8V21.6H9.6V20.4ZM19.2 20.4H20.4V21.6H19.2V20.4ZM24 20.4H25.2V21.6H24V20.4ZM25.2 20.4H26.4V21.6H25.2V20.4ZM28.8 20.4H30V21.6H28.8V20.4ZM0 21.6H1.2V22.8H0V21.6ZM1.2 21.6H2.4V22.8H1.2V21.6ZM2.4 21.6H3.6V22.8H2.4V21.6ZM3.6 21.6H4.8V22.8H3.6V21.6ZM4.8 21.6H6V22.8H4.8V21.6ZM6 21.6H7.2V22.8H6V21.6ZM7.2 21.6H8.4V22.8H7.2V21.6ZM9.6 21.6H10.8V22.8H9.6V21.6ZM12 21.6H13.2V22.8H12V21.6ZM13.2 21.6H14.4V22.8H13.2V21.6ZM14.4 21.6H15.6V22.8H14.4V21.6ZM18 21.6H19.2V22.8H18V21.6ZM19.2 21.6H20.4V22.8H19.2V21.6ZM21.6 21.6H22.8V22.8H21.6V21.6ZM24 21.6H25.2V22.8H24V21.6ZM25.2 21.6H26.4V22.8H25.2V21.6ZM27.6 21.6H28.8V22.8H27.6V21.6ZM28.8 21.6H30V22.8H28.8V21.6ZM0 22.8H1.2V24H0V22.8ZM7.2 22.8H8.4V24H7.2V22.8ZM12 22.8H13.2V24H12V22.8ZM13.2 22.8H14.4V24H13.2V22.8ZM16.8 22.8H18V24H16.8V22.8ZM18 22.8H19.2V24H18V22.8ZM19.2 22.8H20.4V24H19.2V22.8ZM24 22.8H25.2V24H24V22.8ZM0 24H1.2V25.2H0V24ZM2.4 24H3.6V25.2H2.4V24ZM3.6 24H4.8V25.2H3.6V24ZM4.8 24H6V25.2H4.8V24ZM7.2 24H8.4V25.2H7.2V24ZM9.6 24H10.8V25.2H9.6V24ZM13.2 24H14.4V25.2H13.2V24ZM18 24H19.2V25.2H18V24ZM19.2 24H20.4V25.2H19.2V24ZM20.4 24H21.6V25.2H20.4V24ZM21.6 24H22.8V25.2H21.6V24ZM22.8 24H24V25.2H22.8V24ZM24 24H25.2V25.2H24V24ZM25.2 24H26.4V25.2H25.2V24ZM0 25.2H1.2V26.4H0V25.2ZM2.4 25.2H3.6V26.4H2.4V25.2ZM3.6 25.2H4.8V26.4H3.6V25.2ZM4.8 25.2H6V26.4H4.8V25.2ZM7.2 25.2H8.4V26.4H7.2V25.2ZM9.6 25.2H10.8V26.4H9.6V25.2ZM14.4 25.2H15.6V26.4H14.4V25.2ZM15.6 25.2H16.8V26.4H15.6V25.2ZM16.8 25.2H18V26.4H16.8V25.2ZM19.2 25.2H20.4V26.4H19.2V25.2ZM20.4 25.2H21.6V26.4H20.4V25.2ZM21.6 25.2H22.8V26.4H21.6V25.2ZM24 25.2H25.2V26.4H24V25.2ZM25.2 25.2H26.4V26.4H25.2V25.2ZM28.8 25.2H30V26.4H28.8V25.2ZM0 26.4H1.2V27.6H0V26.4ZM2.4 26.4H3.6V27.6H2.4V26.4ZM3.6 26.4H4.8V27.6H3.6V26.4ZM4.8 26.4H6V27.6H4.8V26.4ZM7.2 26.4H8.4V27.6H7.2V26.4ZM9.6 26.4H10.8V27.6H9.6V26.4ZM10.8 26.4H12V27.6H10.8V26.4ZM15.6 26.4H16.8V27.6H15.6V26.4ZM16.8 26.4H18V27.6H16.8V26.4ZM22.8 26.4H24V27.6H22.8V26.4ZM25.2 26.4H26.4V27.6H25.2V26.4ZM26.4 26.4H27.6V27.6H26.4V26.4ZM28.8 26.4H30V27.6H28.8V26.4ZM0 27.6H1.2V28.8H0V27.6ZM7.2 27.6H8.4V28.8H7.2V27.6ZM9.6 27.6H10.8V28.8H9.6V27.6ZM10.8 27.6H12V28.8H10.8V27.6ZM14.4 27.6H15.6V28.8H14.4V27.6ZM15.6 27.6H16.8V28.8H15.6V27.6ZM18 27.6H19.2V28.8H18V27.6ZM19.2 27.6H20.4V28.8H19.2V27.6ZM21.6 27.6H22.8V28.8H21.6V27.6ZM22.8 27.6H24V28.8H22.8V27.6ZM24 27.6H25.2V28.8H24V27.6ZM28.8 27.6H30V28.8H28.8V27.6ZM0 28.8H1.2V30H0V28.8ZM1.2 28.8H2.4V30H1.2V28.8ZM2.4 28.8H3.6V30H2.4V28.8ZM3.6 28.8H4.8V30H3.6V28.8ZM4.8 28.8H6V30H4.8V28.8ZM6 28.8H7.2V30H6V28.8ZM7.2 28.8H8.4V30H7.2V28.8ZM9.6 28.8H10.8V30H9.6V28.8ZM10.8 28.8H12V30H10.8V28.8ZM14.4 28.8H15.6V30H14.4V28.8ZM16.8 28.8H18V30H16.8V28.8ZM19.2 28.8H20.4V30H19.2V28.8ZM21.6 28.8H22.8V30H21.6V28.8ZM22.8 28.8H24V30H22.8V28.8ZM24 28.8H25.2V30H24V28.8ZM25.2 28.8H26.4V30H25.2V28.8ZM26.4 28.8H27.6V30H26.4V28.8ZM27.6 28.8H28.8V30H27.6V28.8ZM28.8 28.8H30V30H28.8V28.8Z"
        fill="white" />
</svg>
